<?xml version="1.0" encoding="UTF-8" standalone="no"?>
<svg
   xmlns:dc="http://purl.org/dc/elements/1.1/"
   xmlns:cc="http://creativecommons.org/ns#"
   xmlns:rdf="http://www.w3.org/1999/02/22-rdf-syntax-ns#"
   xmlns:svg="http://www.w3.org/2000/svg"
   xmlns="http://www.w3.org/2000/svg"
   xmlns:sodipodi="http://sodipodi.sourceforge.net/DTD/sodipodi-0.dtd"
   xmlns:inkscape="http://www.inkscape.org/namespaces/inkscape"
   version="1.0"
   width="146.26166mm"
   height="144.78mm"
   id="svg10178"
   sodipodi:docname="cannon.svg"
   inkscape:version="0.92.2 5c3e80d, 2017-08-06">
  <metadata
     id="metadata10182">
    <rdf:RDF>
      <cc:Work
         rdf:about="">
        <dc:format>image/svg+xml</dc:format>
        <dc:type
           rdf:resource="http://purl.org/dc/dcmitype/StillImage" />
        <dc:title></dc:title>
      </cc:Work>
    </rdf:RDF>
  </metadata>
  <sodipodi:namedview
     pagecolor="#ffffff"
     bordercolor="#666666"
     borderopacity="1"
     objecttolerance="10"
     gridtolerance="10"
     guidetolerance="10"
     inkscape:pageopacity="0"
     inkscape:pageshadow="2"
     inkscape:window-width="640"
     inkscape:window-height="480"
     id="namedview10180"
     showgrid="false"
     inkscape:zoom="0.43128655"
     inkscape:cx="276.39998"
     inkscape:cy="273.6"
     inkscape:window-x="429"
     inkscape:window-y="332"
     inkscape:window-maximized="0"
     inkscape:current-layer="svg10178" />
  <defs
     id="defs10112">
    <pattern
       id="WMFhbasepattern"
       patternUnits="userSpaceOnUse"
       width="6"
       height="6"
       x="0"
       y="0" />
  </defs>
  <path
     style="fill:#000000;fill-rule:nonzero;fill-opacity:1;stroke:none;"
     d="  M 125.2,294.88   L 123.12,292.48   L 118.88,286.56   L 114.96,279.84   L 111.68,272.96   L 110.56,269.68   L 109.92,267.76   L 108.96,263.2   L 107.84,255.2   L 107.44,243.36   L 108.08,231.84   L 108.96,226.96   L 109.84,222.8   L 112.8,213.44   L 116.72,203.28   L 121.52,192.8   L 127.04,182.32   L 132.88,172.32   L 139.04,163.12   L 145.12,155.12   L 148.08,151.84   L 150.56,149.2   L 152.72,146.24   L 153.44,144.48   L 153.52,142.56   L 152.96,140.4   L 151.04,136.08   L 148.88,131.92   L 146.88,128.56   L 140.4,120.48   L 132.64,112.48   L 127.04,107.84   L 123.92,105.6   L 122.64,104.96   L 120.64,104.08   L 118.4,102.24   L 118,101.2   L 118.32,100.72   L 119.76,100.4   L 121.52,100.72   L 124.8,101.44   L 130.56,103.2   L 135.68,105.44   L 140.16,108.24   L 144.24,111.76   L 148,116   L 151.6,121.28   L 155.2,127.52   L 157.04,131.12   L 160.96,139.12   L 169.68,133.44   L 174.32,130.48   L 188.16,122.96   L 204.32,114.96   L 219.44,108.24   L 225.2,105.92   L 230.08,104.24   L 240.8,100.88   L 253.12,97.6   L 267.28,94.32   L 275.2,92.64   L 282.64,91.04   L 296.8,87.52   L 311.44,83.04   L 328.32,77.12   L 338.32,73.44   L 359.44,65.6   L 377.28,59.28   L 388.56,55.28   L 400.64,50.64   L 407.12,47.76   L 412.88,44.48   L 418.64,40.72   L 428.56,33.2   L 437.36,26.08   L 445.6,19.36   L 457.76,10   L 466.16,4.4   L 472.32,1.52   L 475.04,0.88   L 478.08,0.32   L 484.16,0   L 490.32,0.56   L 496.56,2   L 502.72,4.32   L 508.88,7.52   L 515.12,11.6   L 521.2,16.56   L 524.32,19.44   L 528.24,23.36   L 535.12,31.6   L 540.88,40.32   L 545.6,49.6   L 549.12,59.36   L 551.44,69.52   L 552.64,80.16   L 552.72,91.12   L 552.24,96.72   L 551.52,103.6   L 550.24,113.76   L 548.88,120.8   L 547.28,125.76   L 546.32,127.84   L 544.64,130.96   L 541.84,134.48   L 539.44,136.48   L 536.48,138.24   L 532.64,139.84   L 525.04,142.4   L 518.08,144.32   L 513.04,145.84   L 502,150.16   L 489.92,156.08   L 476.96,163.44   L 463.44,172.16   L 449.44,182.08   L 435.12,193.04   L 420.72,204.96   L 413.52,211.28   L 401.12,222.64   L 383.12,239.84   L 373.92,248.64   L 357.68,263.36   L 343.6,275.28   L 330.88,284.88   L 324.8,288.96   L 320.08,292.16   L 309.36,297.92   L 297.36,302.8   L 284.24,306.88   L 270.4,310.08   L 255.84,312.56   L 240.96,314.24   L 226,315.12   L 211.04,315.28   L 196.4,314.72   L 182.4,313.44   L 169.12,311.52   L 156.8,308.96   L 145.76,305.68   L 136.24,301.84   L 128.32,297.36   L 125.2,294.88  z "
     id="path10114" />
  <path
     style="fill:#94908d;fill-rule:evenodd;fill-opacity:1;stroke:none;"
     d="  M 293.28,291.76   L 302.32,286.8   L 315.36,279.12   L 316.24,278.24   L 315.12,278.4   L 309.84,280.32   L 298,285.36   L 289.6,289.44   L 280.32,294   L 276.96,295.28   L 276.48,295.28   L 276,294.96   L 276,293.84   L 277.36,291.04   L 280.4,286.8   L 282.56,284   L 294.8,268.88   L 303.84,256.88   L 307.2,251.52   L 308.48,249.04   L 310,245.92   L 311.76,241.28   L 312.08,238.8   L 311.76,237.44   L 310.72,235.84   L 309.52,234.96   L 308.56,234.4   L 306.24,233.52   L 302,232.8   L 295.04,232.96   L 286.96,234.24   L 278.24,236.48   L 269.12,239.68   L 260.16,243.6   L 251.76,248.24   L 247.92,250.8   L 243.92,253.6   L 237.12,257.84   L 231.84,260.8   L 228.16,262.24   L 226.48,262.4   L 225.84,262.08   L 225.76,260.96   L 227.2,258.16   L 230.56,253.92   L 233.04,251.28   L 239.36,244.32   L 243.36,239.28   L 245.68,236.48   L 258,223.44   L 266,215.28   L 273.44,207.68   L 284.08,196.4   L 290.72,188.48   L 294.56,182.4   L 295.68,179.76   L 296.64,176.96   L 296.88,174.48   L 296.32,172.88   L 295.84,171.84   L 295.04,170.56   L 292.96,168.4   L 290.24,166.88   L 286.88,165.76   L 282.8,165.28   L 278.16,165.28   L 272.96,165.92   L 267.04,167.04   L 263.92,167.84   L 258,169.52   L 240.16,175.84   L 220.24,183.76   L 203.68,190.96   L 198.88,193.52   L 193.28,196.64   L 189.44,198.16   L 188.48,197.76   L 188.48,197.04   L 188.64,196.08   L 190.32,193.36   L 193.6,189.52   L 198.48,184.8   L 201.6,182.08   L 207.52,176.88   L 222.16,163.12   L 236.96,148.72   L 248.16,137.28   L 250.8,134.16   L 253.12,131.12   L 256.8,125.52   L 258.96,120.88   L 259.52,118.4   L 259.28,117.28   L 259.04,116.88   L 258.64,116.64   L 256.88,116.16   L 252.96,115.76   L 246,115.76   L 239.12,116.48   L 236.48,117.12   L 232.72,118.24   L 222.32,122.24   L 210.32,127.44   L 198.96,132.96   L 194.24,135.44   L 190.88,136.32   L 184.16,138.96   L 177.36,142.48   L 170.56,146.8   L 163.84,151.92   L 157.28,157.68   L 150.96,164   L 144.88,170.72   L 139.2,177.84   L 134,185.2   L 129.36,192.8   L 125.2,200.4   L 121.84,208   L 119.12,215.44   L 117.28,222.72   L 116.24,229.6   L 116.16,232.88   L 116.16,240.4   L 116.48,251.12   L 117.04,257.92   L 118.08,264.4   L 119.76,270.56   L 122.32,276.24   L 125.68,281.6   L 127.92,284.08   L 132.08,287.12   L 141.12,292.56   L 150.72,297.12   L 160.96,300.96   L 171.68,304   L 182.72,306.32   L 194,307.92   L 205.36,308.88   L 216.88,309.12   L 228.24,308.72   L 239.44,307.68   L 250.4,306.08   L 260.88,303.84   L 270.96,301.04   L 280.48,297.76   L 289.2,293.92   L 293.28,291.76  z "
     id="path10116" />
  <path
     style="fill:#8b5624;fill-rule:evenodd;fill-opacity:1;stroke:none;"
     d="  M 325.92,269.68   L 327.12,269.68   L 329.6,268.96   L 334.48,266.16   L 340,262.08   L 345.36,258   L 356.56,248.88   L 377.04,231.2   L 396.96,213.2   L 410.08,201.36   L 429.68,184.24   L 445.36,171.52   L 461.6,159.76   L 471.68,152.88   L 479.28,147.84   L 490.24,141.68   L 497.2,138.24   L 503.84,135.44   L 510.08,133.28   L 515.84,131.84   L 521.04,131.12   L 523.44,131.04   L 525.44,130.96   L 529.28,130   L 532.72,128.24   L 535.52,125.84   L 536.56,124.4   L 537.92,122.24   L 540.8,117.04   L 543.2,110.56   L 544.4,104.72   L 544.8,100.4   L 544.8,98.08   L 544.64,91.6   L 543.04,78.88   L 540.08,66.72   L 535.76,55.28   L 530.08,44.64   L 525.04,37.28   L 521.28,32.64   L 517.2,28.4   L 512.8,24.32   L 508.16,20.64   L 503.2,17.28   L 500.56,15.76   L 496.88,13.68   L 490.08,10.72   L 483.92,9.2   L 478.56,8.96   L 476.24,9.52   L 474,10.16   L 469.6,12.4   L 464.24,16.64   L 456.48,24   L 451.04,29.28   L 445.44,34.88   L 434.96,44.32   L 424.4,52.32   L 412.64,59.36   L 398.64,65.92   L 381.2,72.56   L 359.36,79.76   L 331.92,88.08   L 315.44,92.8   L 289.52,100.4   L 270,106.48   L 266.16,108   L 265.52,108.56   L 265.84,108.64   L 266.88,108.88   L 268.24,109.44   L 268.8,110.72   L 268.88,113.2   L 268.88,115.28   L 268.8,117.28   L 268.16,121.36   L 266.96,125.44   L 265.2,129.6   L 262.8,133.92   L 259.76,138.4   L 253.92,145.6   L 248.96,150.96   L 244.96,154.96   L 235.6,163.76   L 231.68,167.12   L 224.72,172.8   L 221.6,175.52   L 221.68,175.76   L 228.24,173.28   L 233.6,171.04   L 239.44,168.56   L 250.24,164.32   L 260,161.04   L 268.72,158.64   L 276.48,157.2   L 283.28,156.56   L 289.12,156.88   L 294.08,158.08   L 296.24,159.04   L 298.56,160.32   L 301.2,162.56   L 302.56,164.32   L 304.08,167.44   L 304.96,172.8   L 305.04,176.24   L 305.04,178.72   L 304.4,183.36   L 303.04,187.76   L 300.72,192.32   L 297.36,197.12   L 292.8,202.4   L 283.44,211.68   L 274.88,219.36   L 264.8,228.32   L 255.28,237.52   L 252.56,240.64   L 252.64,240.88   L 256.08,239.52   L 266.32,234.56   L 271.92,231.92   L 281.68,228   L 290.32,225.6   L 298.48,224.48   L 302.56,224.48   L 306,224.56   L 312,225.6   L 316.8,227.68   L 320.56,230.72   L 321.92,232.72   L 322.72,234.08   L 323.6,237.28   L 323.6,240.88   L 322.8,244.88   L 321.2,249.12   L 318.88,253.76   L 315.68,258.64   L 311.76,263.68   L 309.52,266.32   L 304.16,272.4   L 302.56,274.4   L 304.8,274.08   L 312.32,272.24   L 316.4,271.2   L 323.84,269.84   L 325.92,269.68  z "
     id="path10118" />
  <path
     style="fill:none;stroke:none;"
     d="  M 541.68,95.92   L 541.68,97.44   L 540.96,102.96   L 539.52,109.92   L 537.52,116.48   L 536.4,119.04   L 535.04,121.52   L 533.04,124.08   L 531.6,125.28   L 530,126.08   L 528.32,126.4   L 525.36,126.24   L 522.88,125.6   L 520.8,124.8   L 515.52,121.36   L 509.44,116.16   L 503.28,109.68   L 500.4,106.24   L 496.16,100.8   L 488.96,90.8   L 483.12,81.36   L 478.56,72.24   L 475.2,63.28   L 472.96,54.24   L 471.68,44.72   L 471.36,34.64   L 471.52,29.2   L 471.92,21.04   L 472.72,15.76   L 473.76,14   L 474.56,13.36   L 475.28,12.8   L 476.96,12.16   L 480,11.92   L 484.96,12.96   L 490.56,15.2   L 496.64,18.48   L 502.8,22.48   L 511.76,29.2   L 516.96,33.84   L 519.04,35.84   L 522.88,40.08   L 526.16,44.48   L 529.04,49.04   L 532.72,56.08   L 536.32,65.28   L 538.72,73.84   L 540.24,81.28   L 541.36,89.6   L 541.6,91.6  "
     id="path10120" />
  <path
     style="fill:none;stroke:none;"
     d="  M 538.4,95.28   L 538.56,93.2   L 537.68,84.96   L 536.24,77.68   L 533.92,69.52   L 530.72,60.88   L 526.32,52.48   L 522.16,46.64   L 518.96,43.12   L 517.2,41.52   L 513.68,38.72   L 500.32,30.16   L 494.96,27.2   L 492.48,26.08   L 487.04,24.16   L 484.88,23.68   L 480.4,22.96   L 480.96,34.64   L 481.36,40.56   L 483.28,51.6   L 486.88,62.64   L 492.32,74.64   L 496,81.44   L 500.24,88.88   L 508.32,101.28   L 513.76,108.08   L 517.04,111.44   L 519.92,113.76   L 522.4,114.96   L 523.44,115.04   L 524.48,114.96   L 526.72,114.16   L 530.08,111.84   L 534.16,107.28   L 537.2,102   L 537.92,99.6  "
     id="path10122" />
  <path
     style="fill:#000000;fill-rule:nonzero;fill-opacity:1;stroke:none;"
     d="  M 245.52,248.88   L 249.28,246.24   L 251.76,244   L 251.76,243.52   L 251.12,243.6   L 249.76,243.92   L 248.64,243.6   L 248.32,243.12   L 248.56,241.84   L 250.24,239.12   L 255.6,233.04   L 268.24,220.96   L 277.04,213.28   L 283.76,207.28   L 291.44,199.52   L 295.36,194.8   L 298.4,190.4   L 300.64,186.24   L 302,182.24   L 302.72,178.32   L 302.72,176.32   L 302.72,174.56   L 302.24,171.36   L 301.36,168.48   L 300,165.92   L 298.24,163.76   L 296.08,162   L 293.52,160.56   L 290.48,159.52   L 288.8,159.12   L 286.64,158.88   L 280.08,159.28   L 271.92,160.64   L 263.2,162.8   L 259.04,164.08   L 249.44,167.52   L 231.92,174.72   L 224.64,178.16   L 224.08,178.72   L 224.96,178.56   L 232.56,175.84   L 238,173.76   L 243.92,171.44   L 255.04,167.68   L 265.04,165.04   L 274,163.36   L 281.76,162.88   L 288.16,163.36   L 292,164.56   L 294.16,165.6   L 295.92,166.96   L 297.36,168.64   L 297.84,169.52   L 298.56,171.12   L 299.28,174.32   L 299.04,177.68   L 297.84,181.6   L 296.88,183.84   L 295.52,186.56   L 292.08,191.84   L 286.08,198.8   L 275.76,209.68   L 268.08,217.44   L 260.16,225.6   L 247.84,238.64   L 245.52,241.44   L 241.76,246.16   L 236.48,252   L 234.16,254.48   L 232.72,256.56   L 232.8,256.96   L 234.64,256.24   L 240.72,252.24   L 245.52,248.88  z "
     id="path10124" />
  <path
     style="fill:#000000;fill-rule:nonzero;fill-opacity:1;stroke:none;"
     d="  M 207.2,546.64   L 178.96,545.6   L 143.52,543.6   L 122.96,542.08   L 104.72,540.24   L 88.24,538.08   L 73.36,535.68   L 59.52,532.88   L 52.88,531.28   L 47.44,529.92   L 34.72,526.16   L 21.84,521.92   L 10.48,517.76   L 6.32,515.92   L 0,513.12   L 0.64,506.24   L 1.12,502.72   L 3.44,494.4   L 5.2,490   L 7.04,485.36   L 12,470.96   L 14.4,463.68   L 17.2,454.8   L 22.48,440.72   L 26.4,432.48   L 29.12,427.84   L 32,423.76   L 35.12,420.08   L 36.72,418.4   L 38.64,416.56   L 42.96,413.2   L 47.68,410.24   L 52.48,407.92   L 54.8,407.04   L 56.48,406.48   L 58.64,405.52   L 59.92,404.24   L 60.72,402.32   L 61.12,400.88   L 63.84,390.4   L 67.76,377.84   L 70.32,370.88   L 72.96,364.96   L 75.76,359.84   L 78.8,355.36   L 82.08,351.36   L 83.92,349.52   L 85.76,347.68   L 89.04,344.96   L 92,342.96   L 95.36,341.44   L 97.36,340.72   L 101.92,339.28   L 110.48,337.12   L 118.56,335.68   L 126.24,335.2   L 129.92,335.28   L 138.96,335.68   L 138.96,329.76   L 138.88,323.92   L 131.52,320.4   L 127.68,318.4   L 124.24,315.84   L 122.72,314   L 122.16,312.88   L 120.16,309.04   L 118.24,305.44   L 118.24,301.76   L 119.12,297.04   L 120.96,294.4   L 124.32,292.24   L 129.76,290.64   L 137.68,289.76   L 148.64,289.52   L 155.52,289.76   L 160.56,290.08   L 172.24,291.52   L 184.8,293.2   L 197.12,294.48   L 202.72,294.64   L 212.48,294.64   L 234.72,293.76   L 245.92,292.8   L 251.68,292.24   L 263.12,291.6   L 274.4,291.68   L 285.36,292.88   L 290.8,294.08   L 293.04,295.28   L 297.04,298.56   L 299.2,301.44   L 300.16,303.36   L 300.4,305.28   L 300.08,307.12   L 299.52,307.92   L 297.92,310.08   L 294.16,314.16   L 289.76,317.92   L 285.04,321.12   L 282.72,322.48   L 281.28,323.2   L 279.44,324.32   L 278.8,325.44   L 279.04,327.12   L 279.36,328.32   L 279.6,329.04   L 280.72,330   L 285.84,330.8   L 294.56,331.12   L 301.04,331.52   L 314.56,333.12   L 327.36,335.52   L 337.76,338.48   L 341.36,340   L 344,341.52   L 349.92,346.48   L 355.92,353.04   L 360.72,359.76   L 362.24,362.8   L 363.28,365.52   L 366.32,376   L 367.76,382   L 371.04,396.24   L 375.52,397.92   L 377.52,398.72   L 381.36,400.72   L 385.04,403.2   L 388.56,406.32   L 392,410   L 395.28,414.24   L 400,421.6   L 402.96,427.36   L 407.04,435.84   L 412.88,448.8   L 416.96,460.24   L 420.64,473.84   L 422.8,482.88   L 423.92,488.08   L 425.2,498.56   L 425.36,507.92   L 424.72,513.28   L 423.92,515.92   L 423.44,516.88   L 422.88,517.6   L 421.36,519.12   L 418,521.2   L 411.2,524   L 401.2,526.96   L 394.8,528.64   L 384.08,531.12   L 363.92,535.2   L 342.08,538.48   L 315.2,541.52   L 298.32,543.12   L 278.8,544.64   L 239.28,546.64   L 220.32,547.28   L 216.8,547.12   L 213.76,546.96   L 207.2,546.64  z "
     id="path10126" />
  <path
     style="fill:#000000;fill-rule:nonzero;fill-opacity:1;stroke:none;"
     d="  M 256.8,543.6   L 268.72,543.04   L 298.16,540.72   L 329.2,537.52   L 356.16,534   L 365.84,532.32   L 372.8,530.96   L 387.28,527.68   L 400.64,524.32   L 410.72,521.28   L 413.6,520.16   L 416.4,518.88   L 419.36,516.8   L 420.8,515.28   L 421.84,513.44   L 422.56,511.2   L 423.12,507.2   L 423.2,503.6   L 423.12,500.8   L 422.32,493.92   L 419.52,480.08   L 416.16,466.56   L 414.56,461.12   L 408.88,446.72   L 401.76,431.36   L 396.48,421.52   L 393.36,416.4   L 392.08,414.56   L 390.16,412.16   L 385.6,407.68   L 380.72,403.84   L 375.76,400.96   L 373.44,400   L 368.88,398.32   L 365.6,384   L 364.16,378   L 361.2,367.6   L 360.08,364.88   L 358.56,361.84   L 353.76,355.04   L 347.84,348.56   L 341.84,343.6   L 339.28,342.08   L 335.6,340.56   L 325.2,337.6   L 312.4,335.12   L 298.88,333.52   L 292.4,333.2   L 283.68,332.88   L 278.56,332.08   L 277.44,331.12   L 277.2,330.4   L 276.72,328.4   L 276.48,325.36   L 277.12,322.96   L 278.8,321.28   L 280,320.56   L 282.48,318.48   L 286.4,314.56   L 289.2,311.12   L 290.96,308   L 291.68,305.2   L 291.52,302.8   L 290.4,300.72   L 288.48,298.96   L 285.68,297.44   L 282.24,296.24   L 275.84,294.96   L 265.2,294.16   L 252.56,294.32   L 245.6,294.72   L 236.4,295.76   L 217.92,298.56   L 206.56,299.92   L 202.16,300   L 198.4,299.76   L 185.76,297.76   L 170.88,295.2   L 158.32,293.28   L 154.72,293.12   L 146.8,293.44   L 135.04,294.64   L 127.44,296.4   L 124,298   L 122.56,299.12   L 121.36,300.88   L 121.2,303.12   L 122.4,306.16   L 122.72,307.52   L 124.08,309.6   L 126,312.8   L 126.16,313.52   L 126.56,314.16   L 130.64,316.64   L 133.6,318.16   L 141.04,321.76   L 141.04,330   L 141.12,338.24   L 132.16,337.6   L 128.56,337.36   L 121.12,337.76   L 113.04,339.04   L 104.32,341.28   L 99.52,342.8   L 97.52,343.52   L 94.16,345.04   L 91.12,347.04   L 87.92,349.76   L 86,351.6   L 84.24,353.44   L 80.88,357.44   L 77.92,361.84   L 75.12,367.04   L 72.48,372.96   L 69.84,379.92   L 66,392.48   L 63.28,402.96   L 62.88,404.4   L 62.08,406.32   L 60.8,407.6   L 58.56,408.56   L 56.96,409.12   L 54.64,410   L 49.76,412.32   L 45.04,415.28   L 40.72,418.64   L 38.88,420.48   L 37.2,422.16   L 34.16,425.84   L 31.28,429.92   L 28.56,434.56   L 24.64,442.8   L 19.28,456.88   L 16.48,465.76   L 14.16,473.04   L 9.2,487.28   L 7.44,491.84   L 5.84,495.76   L 3.44,503.44   L 2.96,505.92   L 2.16,510.96   L 8.48,513.76   L 12.64,515.6   L 23.92,519.76   L 36.88,524   L 49.52,527.68   L 55.04,529.12   L 60.8,530.48   L 72.72,532.96   L 91.52,536.16   L 120.32,539.52   L 155.36,542   L 176.32,543.04   L 202.88,544.32   L 232.24,544.48   L 256.8,543.6  z "
     id="path10128" />
  <path
     style="fill:#000000;fill-rule:nonzero;fill-opacity:1;stroke:none;"
     d="  M 183.2,535.6   L 166.96,534.72   L 155.36,534   L 145.52,533.28   L 144.8,524.08   L 144.4,518.96   L 144.32,507.84   L 144.8,496   L 145.92,483.84   L 147.6,471.84   L 149.76,460.4   L 152.24,450   L 155.2,440.96   L 156.72,437.28   L 159.52,431.04   L 182.48,431.04   L 192.96,431.04   L 218.24,430.32   L 228.88,429.84   L 242.72,429.2   L 251.2,429.2   L 253.2,429.92   L 253.68,430.48   L 254.64,432.08   L 257.36,439.28   L 260.4,449.44   L 263.2,460.56   L 264.32,465.76   L 265.52,472.4   L 267.36,486.72   L 268.32,501.36   L 268.4,515.12   L 268,521.36   L 267.52,526.4   L 266.48,533.68   L 266.08,534.72   L 265.44,534.96   L 259.92,535.44   L 245.12,535.84   L 218.16,536.16   L 192.24,535.92   L 183.2,535.6  z "
     id="path10130" />
  <path
     style="fill:#ffffff;fill-rule:evenodd;fill-opacity:1;stroke:none;"
     d="  M 264,532.56   L 264.24,532.16   L 264.8,529.76   L 265.52,523.6   L 266,512.24   L 266,500   L 265.68,494.56   L 265.12,488.32   L 263.2,473.76   L 262.16,467.92   L 261.04,462.72   L 258.24,451.68   L 255.2,441.52   L 252.48,434.32   L 251.6,432.72   L 251.12,432.16   L 249.2,431.52   L 241.52,431.44   L 229.52,432.08   L 219.92,432.56   L 195.84,433.12   L 185.2,433.2   L 161.6,433.2   L 158.8,439.44   L 157.28,443.04   L 154.48,451.68   L 152,461.76   L 149.84,472.72   L 148.24,484.16   L 147.04,495.68   L 146.48,506.88   L 146.56,517.28   L 146.88,521.92   L 147.6,531.2   L 157.44,531.84   L 167.52,532.56   L 186.32,533.52   L 204.64,534   L 223.36,534.08   L 233.28,533.92   L 245.28,533.68   L 261.92,532.96   L 264,532.64   L 264,532.56  z "
     id="path10132" />
  <path
     style="fill:#000000;fill-rule:nonzero;fill-opacity:1;stroke:none;"
     d="  M 276.24,504.96   L 275.92,491.44   L 274.88,474.88   L 273.92,465.52   L 272.56,457.28   L 270.88,450   L 268.8,443.44   L 266.32,437.44   L 264.88,434.48   L 263.12,430.88   L 262.64,429.04   L 263.12,428.64   L 267.92,427.68   L 271.44,427.36   L 279.68,426.64   L 296.56,424.24   L 313.28,420.96   L 329.2,416.88   L 336.56,414.56   L 340,413.52   L 345.2,412.4   L 346.16,412.56   L 349.2,414.48   L 354.72,419.52   L 359.6,426   L 363.68,433.68   L 365.36,438   L 367.04,443.04   L 369.52,453.52   L 371.12,466.24   L 372,483.2   L 372.24,494.16   L 372.56,511.28   L 372.24,521.04   L 371.44,522.96   L 370.8,523.2   L 366.96,524.16   L 351.6,526.64   L 328.72,529.52   L 300.24,532.48   L 284.4,533.92   L 276.8,534.64   L 276.24,504.96  z "
     id="path10134" />
  <path
     style="fill:#ffffff;fill-rule:evenodd;fill-opacity:1;stroke:none;"
     d="  M 314.4,528.64   L 332.32,526.8   L 355.44,523.6   L 365.92,521.76   L 368.72,521.04   L 369.36,520.8   L 370.16,519.04   L 370.48,509.92   L 370.16,494.08   L 369.84,483.92   L 368.96,467.84   L 367.36,455.36   L 364.88,444.96   L 363.2,440.08   L 361.92,436.64   L 358.72,430.24   L 355.04,424.56   L 351.04,419.92   L 349.04,418.16   L 344.88,414.88   L 336.08,417.6   L 328.4,419.84   L 313.12,423.6   L 297.68,426.56   L 282.08,428.72   L 274.16,429.44   L 265.92,430.16   L 267.6,433.44   L 268.96,436.08   L 271.28,441.84   L 273.2,448.24   L 274.8,455.44   L 276.08,463.68   L 277.04,473.04   L 278.08,489.44   L 278.4,502.64   L 278.96,532.08   L 283.36,531.68   L 292.8,530.8   L 314.4,528.64  z "
     id="path10136" />
  <path
     style="fill:#000000;fill-rule:nonzero;fill-opacity:1;stroke:none;"
     d="  M 111.36,530.64   L 98.72,529.12   L 69.2,524.32   L 60.56,522.4   L 58.72,521.92   L 56.48,521.12   L 55.44,520   L 55.04,517.92   L 54.88,516.32   L 54.8,513.2   L 55.36,504.56   L 56.8,494.24   L 58.8,483.52   L 60,478.48   L 61.12,474.24   L 63.6,466.08   L 66.4,458.4   L 69.52,451.28   L 72.8,444.64   L 76.32,438.72   L 80,433.6   L 83.84,429.2   L 85.76,427.36   L 87.92,425.52   L 91.28,423.2   L 94.88,422.56   L 99.76,423.2   L 103.2,424   L 110.88,425.6   L 132.16,428.64   L 142,429.52   L 152,430.24   L 151.44,433.04   L 150.24,437.2   L 147.6,444.64   L 146.32,448.24   L 144,456.16   L 142,464.8   L 140.32,474   L 139.04,483.52   L 138.08,493.28   L 137.6,503.04   L 137.44,512.56   L 137.6,517.12   L 138.24,532.32   L 131.36,532.24   L 123.12,531.84   L 111.36,530.64  z "
     id="path10138" />
  <path
     style="fill:#ffffff;fill-rule:evenodd;fill-opacity:1;stroke:none;"
     d="  M 135.36,515.6   L 135.2,510.64   L 135.44,499.84   L 136.16,488.48   L 137.52,476.96   L 139.28,465.76   L 141.44,455.28   L 143.92,446   L 146.64,438.24   L 148.08,435.2   L 149.52,432.4   L 139.76,431.68   L 130,430.8   L 108.64,427.84   L 100.8,426.16   L 96.72,425.28   L 93.68,425.28   L 92.08,426.08   L 91.04,426.72   L 88.88,428.4   L 84.56,432.8   L 80.32,438.24   L 76.24,444.64   L 72.4,451.92   L 68.8,459.92   L 65.6,468.64   L 62.8,477.84   L 61.6,482.56   L 60.56,487.2   L 58.64,498.16   L 57.28,508.72   L 56.88,516.24   L 57.12,517.76   L 57.28,518.08   L 58.72,518.8   L 62.48,520   L 75.36,522.96   L 99.12,526.88   L 117.04,529.12   L 127.28,530   L 131.36,530.16   L 136.08,530.32   L 135.36,515.6  z "
     id="path10140" />
  <path
     style="fill:#000000;fill-rule:nonzero;fill-opacity:1;stroke:none;"
     d="  M 383.2,507.84   L 383.12,502.24   L 382.24,487.52   L 381.6,480.64   L 380.96,474.48   L 379.28,462.88   L 377.36,452.24   L 375.12,442.48   L 372.56,433.84   L 369.84,426.24   L 366.8,419.84   L 363.6,414.64   L 361.92,412.56   L 360.64,411.04   L 358.88,408.4   L 358.72,407.68   L 358.88,407.12   L 360.96,405.52   L 362.48,404.88   L 364.48,404.16   L 367.36,403.92   L 369.28,404.24   L 372.4,405.52   L 377.12,408.96   L 380,411.44   L 382.8,414.16   L 387.44,419.6   L 391.76,426.4   L 396.72,436.08   L 399.84,442.72   L 403.12,450.08   L 408.48,464.88   L 412.32,479.12   L 414,488.88   L 414.56,494.72   L 414.64,497.36   L 414.64,501.76   L 414,506.4   L 413.12,508.8   L 411.68,510.72   L 409.52,512.32   L 404.8,514.48   L 400.24,516.08   L 396,517.52   L 388.64,519.36   L 386.72,519.6   L 383.2,519.6   L 383.2,507.84  z "
     id="path10142" />
  <path
     style="fill:#ffffff;fill-rule:evenodd;fill-opacity:1;stroke:none;"
     d="  M 400.16,513.28   L 403.84,511.92   L 407.68,509.92   L 409.52,508.4   L 410.88,506.72   L 411.76,504.64   L 412.48,500.72   L 412.48,497.36   L 412.4,495.04   L 411.76,489.68   L 410,480.32   L 406,466.16   L 400.72,451.6   L 397.68,444.8   L 394.56,438.16   L 389.6,428.4   L 385.28,421.6   L 380.56,416.16   L 377.76,413.44   L 375.36,411.28   L 371.44,408.32   L 368.32,406.88   L 365.44,406.64   L 364.08,407.04   L 363.28,407.28   L 362.48,407.68   L 362.88,408.96   L 364.56,410.96   L 366.64,413.76   L 370.72,421.36   L 374.4,431.2   L 377.68,442.8   L 380.56,455.68   L 382.8,469.6   L 384.4,484   L 385.28,498.56   L 385.36,505.76   L 385.36,517.6   L 388.8,516.88   L 393.28,515.6   L 400.16,513.28  z "
     id="path10144" />
  <path
     style="fill:#000000;fill-rule:nonzero;fill-opacity:1;stroke:none;"
     d="  M 35.52,515.52   L 26.72,512.56   L 18.72,509.52   L 16.08,508.48   L 12.8,507.04   L 11.36,505.68   L 10.96,503.92   L 10.96,502.56   L 11.04,500.64   L 11.92,495.68   L 13.6,490.08   L 15.84,484.48   L 17.04,481.84   L 18.4,478.88   L 22.72,467.28   L 25.04,460.56   L 26.72,455.52   L 30,446.64   L 33.36,439.04   L 36.8,432.64   L 40.48,427.28   L 44.4,422.72   L 48.8,418.96   L 53.68,415.84   L 56.32,414.48   L 64.16,410.56   L 73.84,414.64   L 77.68,416.4   L 82.96,419.28   L 83.52,419.92   L 83.28,420.64   L 80.88,423.2   L 79.12,424.64   L 77.76,425.84   L 75.12,428.56   L 71.2,433.6   L 66.16,442.08   L 61.6,452.16   L 57.52,463.6   L 54,476.08   L 51.28,489.28   L 49.28,502.88   L 48.64,509.76   L 48.4,513.28   L 47.92,516.56   L 47.2,517.76   L 46,518.32   L 44.16,518.16   L 39.92,517.04   L 35.52,515.52  z "
     id="path10146" />
  <path
     style="fill:#ffffff;fill-rule:evenodd;fill-opacity:1;stroke:none;"
     d="  M 46.56,507.12   L 47.2,500.4   L 49.12,487.12   L 51.84,474.24   L 55.2,462.16   L 59.12,450.96   L 63.44,441.04   L 68.16,432.64   L 73.12,426.08   L 75.68,423.6   L 78.56,420.96   L 79.12,420   L 77.12,419.12   L 71.36,416.64   L 64.08,413.6   L 57.28,417.12   L 54.8,418.48   L 50.16,421.6   L 46.08,425.36   L 42.24,429.92   L 38.64,435.28   L 35.28,441.68   L 32,449.12   L 28.8,457.84   L 27.12,462.72   L 24.88,469.44   L 20.56,480.96   L 19.2,484   L 17.04,488.72   L 14.24,496.88   L 13.2,501.28   L 13.12,502.64   L 13.28,503.44   L 14.88,505.04   L 16,505.6   L 26.32,509.44   L 41.68,514.72   L 44.16,515.28   L 44.64,515.28   L 45.36,514.56   L 46.16,511.44   L 46.56,507.12  z "
     id="path10148" />
  <path
     style="fill:#000000;fill-rule:nonzero;fill-opacity:1;stroke:none;"
     d="  M 150.72,422.48   L 140.88,421.84   L 128.24,420.32   L 123.12,419.44   L 122.32,419.04   L 122.16,418   L 123.04,410.24   L 124.64,399.52   L 126.48,389.68   L 127.28,386.64   L 128.56,383.04   L 132.96,372.56   L 135.52,367.28   L 141.44,355.28   L 152.72,355.28   L 158,355.44   L 171.28,356.4   L 177.2,357.04   L 190.4,358.88   L 189.68,364.32   L 188.88,370.08   L 188,376.64   L 187.6,380.56   L 187.04,394.88   L 187.04,403.04   L 186.96,422.48   L 183.92,422.48   L 179.76,422.64   L 172.96,422.96   L 169.04,423.12   L 156.88,422.88   L 150.72,422.48  z "
     id="path10150" />
  <path
     style="fill:#ffffff;fill-rule:evenodd;fill-opacity:1;stroke:none;"
     d="  M 180.72,420.4   L 184.8,420.4   L 184.8,401.44   L 184.88,395.12   L 185.28,383.12   L 186,372.64   L 186.96,364.96   L 187.6,362.64   L 187.68,362.16   L 186.8,361.28   L 182.16,360.16   L 174.96,359.2   L 169.2,358.48   L 157.12,357.52   L 152.72,357.44   L 143.6,357.44   L 137.6,369.44   L 135.04,374.72   L 131.2,383.92   L 128.48,392.48   L 126.64,401.36   L 126,406.24   L 125.36,411.6   L 125.28,415.6   L 125.76,416.88   L 126.16,417.2   L 126.88,417.52   L 130.48,418.24   L 139.2,419.28   L 154,420.4   L 167.6,420.96   L 171.92,420.72   L 176.48,420.48   L 180.72,420.4  z "
     id="path10152" />
  <path
     style="fill:#1a1a1a;fill-rule:nonzero;fill-opacity:1;stroke:none;"
     d="  M 194,420.16   L 193.68,418.64   L 193.36,414.08   L 193.28,404.8   L 194.24,389.52   L 196,374.56   L 197.2,368.4   L 198.88,360.72   L 211.84,360.64   L 221.04,360.56   L 241.28,359.2   L 252.24,357.92   L 258.24,357.2   L 260.64,361.92   L 262.88,366.64   L 266.72,378   L 269.6,390.48   L 271.12,402.96   L 271.2,408.88   L 271.2,417.04   L 266.16,417.68   L 253.28,418.96   L 208.32,422.08   L 196.96,422.56   L 195.92,422.48   L 194.4,421.28   L 194,420.16  z "
     id="path10154" />
  <path
     style="fill:#ffffff;fill-rule:evenodd;fill-opacity:1;stroke:none;"
     d="  M 222.72,418.8   L 233.52,418.08   L 257.04,416.24   L 264,415.52   L 269.12,414.88   L 269.12,408.8   L 268.96,403.68   L 267.36,391.84   L 264.48,379.68   L 260.64,368.56   L 258.56,364.08   L 257.76,362.64   L 256.64,360.8   L 255.52,360   L 254.24,359.92   L 253.28,360.08   L 250.64,360.56   L 241.44,361.44   L 223.76,362.64   L 213.44,362.8   L 200.96,362.8   L 199.28,370.56   L 198.16,376.48   L 196.4,390.32   L 195.52,404.16   L 195.52,412.48   L 195.92,416.64   L 196.16,418.08   L 196.4,418.88   L 197.12,419.92   L 199.84,420.32   L 204.48,420   L 212.72,419.36   L 222.72,418.8  z "
     id="path10156" />
  <path
     style="fill:#000000;fill-rule:nonzero;fill-opacity:1;stroke:none;"
     d="  M 89.36,411.76   L 75.6,408.4   L 69.92,407.04   L 69.2,406.88   L 68.24,406.24   L 67.52,404.32   L 67.52,401.44   L 67.6,398.8   L 68.48,392.8   L 70.24,386.24   L 72.88,379.36   L 74.48,375.84   L 75.76,373.2   L 78.96,368.08   L 82.8,363.28   L 87.2,358.72   L 92,354.64   L 97.12,350.96   L 102.48,348   L 107.92,345.6   L 110.72,344.72   L 112.96,344.16   L 120.48,343.04   L 124.56,342.56   L 132.56,341.68   L 136.72,340.88   L 137.6,340.64   L 138.64,340.56   L 138.96,342.08   L 138.48,345.36   L 138.24,346.8   L 137.44,349.36   L 136.24,351.68   L 134.24,354.24   L 132.88,355.68   L 131.28,357.52   L 128,362.24   L 124.72,368   L 121.52,374.72   L 118.56,382   L 115.84,389.6   L 113.52,397.44   L 111.68,405.2   L 110.96,408.96   L 110.32,412.56   L 109.28,415.28   L 108.56,416   L 108.08,416.08   L 102.96,415.04   L 89.36,411.76  z "
     id="path10158" />
  <path
     style="fill:#ffffff;fill-rule:evenodd;fill-opacity:1;stroke:none;"
     d="  M 108.96,406.08   L 109.68,402.24   L 111.6,394.48   L 115.2,382.88   L 119.6,372.08   L 122.8,365.52   L 126,359.84   L 129.28,355.2   L 130.88,353.44   L 132.8,351.2   L 135.52,347.28   L 135.76,346.16   L 135.76,345.52   L 135.2,344.72   L 132.16,344.4   L 126.96,344.8   L 123.04,345.12   L 116.4,346.08   L 110.56,347.68   L 104.72,350.16   L 101.44,351.76   L 98.8,353.28   L 93.84,356.72   L 89.12,360.88   L 84.72,365.6   L 80.8,370.8   L 77.36,376.48   L 74.48,382.56   L 72.16,388.88   L 71.28,392.08   L 70.48,395.36   L 69.68,400.08   L 69.84,403.04   L 71.04,404.56   L 72,404.88   L 77.28,406.08   L 89.36,409.04   L 101.28,411.92   L 106,412.8   L 106.4,412.8   L 107.2,412.08   L 108.24,409.52   L 108.96,406.08  z "
     id="path10160" />
  <path
     style="fill:#000000;fill-rule:nonzero;fill-opacity:1;stroke:none;"
     d="  M 280.96,413.68   L 280.48,411.84   L 278.96,402.72   L 278.24,396.88   L 277.52,390.96   L 275.92,380.8   L 274.16,372.32   L 272.16,365.44   L 271.12,362.48   L 270.24,360.24   L 269.36,357.04   L 269.28,355.2   L 270.24,354.32   L 271.04,354.32   L 272.72,354.16   L 278.8,352.64   L 285.76,350.48   L 290.72,348.48   L 291.36,347.92   L 291.52,347.68   L 292.16,347.36   L 294,347.28   L 297.44,347.84   L 301.36,349.2   L 303.28,350.08   L 305.6,351.36   L 310.4,355.6   L 315.2,361.2   L 319.36,367.6   L 320.96,370.8   L 322.4,374.08   L 325.92,384.24   L 329.52,395.44   L 331.84,404.08   L 332.08,406.08   L 332,406.64   L 331.6,407.76   L 331.2,408   L 326.64,409.04   L 297.44,413.92   L 286.48,415.6   L 283.84,415.92   L 281.92,415.44   L 281.28,414.48   L 280.96,413.68  z "
     id="path10162" />
  <path
     style="fill:#ffffff;fill-rule:evenodd;fill-opacity:1;stroke:none;"
     d="  M 308.24,409.68   L 323.12,407.2   L 328,406.48   L 328.32,406.48   L 328.64,406.08   L 328.8,404.8   L 327.76,398.96   L 325.6,391.44   L 324.4,387.52   L 321.84,380.32   L 319.12,373.92   L 316.24,368.24   L 313.12,363.28   L 309.84,359.12   L 306.32,355.68   L 302.72,352.96   L 300.72,351.92   L 296.64,349.84   L 287.92,352.56   L 280.4,354.8   L 275.68,356   L 273.76,356.4   L 272.72,357.28   L 272.72,358.24   L 272.88,358.96   L 274,362.56   L 276.16,370.8   L 278.08,379.76   L 279.68,389.04   L 280.24,393.68   L 281.04,400.24   L 282.24,408.4   L 283.04,411.36   L 283.68,412.32   L 284.96,412.88   L 286.24,412.88   L 292.88,412.16   L 308.24,409.68  z "
     id="path10164" />
  <path
     style="fill:#000000;fill-rule:nonzero;fill-opacity:1;stroke:none;"
     d="  M 340,400.4   L 339.52,397.52   L 337.36,390.56   L 334.24,382.8   L 330.48,375.28   L 328.48,371.92   L 326.24,368.4   L 320.16,359.84   L 313.84,351.6   L 309.28,346.32   L 308.4,345.76   L 308,345.68   L 307.52,344.48   L 307.44,343.6   L 307.44,342.88   L 307.84,342   L 309.6,341.68   L 312.56,342.08   L 317.28,342.8   L 325.68,344.56   L 332.88,346.96   L 339.12,350   L 344.48,353.76   L 348.96,358.32   L 352.8,363.76   L 356,370.16   L 357.44,373.76   L 359.76,380.72   L 363.44,393.36   L 364.8,398.96   L 364.8,399.76   L 361.92,400.8   L 346.16,404.88   L 342.48,405.52   L 342.08,405.44   L 341.28,404.88   L 340.48,402.88   L 340,400.4  z "
     id="path10166" />
  <path
     style="fill:#ffffff;fill-rule:evenodd;fill-opacity:1;stroke:none;"
     d="  M 356.32,399.44   L 358.56,398.88   L 360.56,398   L 361.2,396.96   L 361.2,394.4   L 359.04,387.2   L 357.04,381.2   L 354.96,375.04   L 351.52,367.68   L 349.12,363.44   L 346.4,359.84   L 343.36,356.72   L 340,354   L 336.16,351.52   L 334.08,350.4   L 331.84,349.44   L 325.92,347.36   L 319.6,345.6   L 314.8,344.8   L 313.76,344.88   L 313.6,345.04   L 314.24,346.48   L 316.8,350.32   L 319.36,353.68   L 324,359.76   L 331.76,371.6   L 337.6,383.04   L 340.56,390.96   L 341.84,395.84   L 342.24,398.16   L 342.96,403.04   L 346.8,402.08   L 351.12,400.96   L 356.32,399.44  z "
     id="path10168" />
  <path
     style="fill:#000000;fill-rule:nonzero;fill-opacity:1;stroke:none;"
     d="  M 160.8,350.32   L 157.12,349.92   L 152,349.44   L 146.4,348.8   L 146.4,336.64   L 146.48,331.04   L 146.88,326.08   L 147.28,324.56   L 147.6,324.48   L 150.8,324.88   L 159.04,326.48   L 164.48,327.52   L 176.88,329.12   L 190.64,330.16   L 205.2,330.72   L 219.92,330.8   L 234.16,330.4   L 247.12,329.36   L 258.4,327.92   L 263.04,326.96   L 268.72,325.76   L 270.56,325.68   L 271.84,328.88   L 275.84,343.84   L 276.24,346.48   L 274.32,347.28   L 269.44,348.72   L 267.36,349.12   L 260.4,349.76   L 240,350.32   L 213.6,350.4   L 174.48,350.48   L 160.8,350.32  z "
     id="path10170" />
  <path
     style="fill:#ffffff;fill-rule:evenodd;fill-opacity:1;stroke:none;"
     d="  M 265.68,346.88   L 268.4,346.24   L 272.32,345.04   L 272.96,344.56   L 273.04,343.76   L 272,339.2   L 271.04,336.08   L 268.64,328.56   L 264.88,329.28   L 260.88,330   L 253.12,331.12   L 238.8,332.08   L 222.72,332.56   L 212.24,332.8   L 193.84,332.64   L 177.92,331.76   L 164.08,330   L 157.76,328.88   L 148.56,326.96   L 148.56,336.88   L 148.56,346.72   L 154.16,347.28   L 159.28,347.84   L 162.96,348.16   L 175.92,348.4   L 212.56,348.4   L 235.6,348.32   L 255.92,347.84   L 263.52,347.28   L 265.68,346.88  z "
     id="path10172" />
  <path
     style="fill:#7f7f7f;fill-rule:evenodd;fill-opacity:1;stroke:none;"
     d="  M 210.4,323.68   L 202.24,323.2   L 185.6,321.44   L 169.12,319.04   L 153.36,316   L 146,314.16   L 142.64,313.36   L 138,311.92   L 134.96,310.48   L 132.64,308.48   L 131.28,307.04   L 129.6,305.12   L 127.76,301.92   L 127.68,300   L 128.16,298.88   L 129.76,297.36   L 131.52,296.4   L 132.72,295.84   L 135.68,295.04   L 141.68,294.48   L 152.88,294.96   L 168.08,296.88   L 177.52,298.4   L 200.32,302.24   L 223.2,300.56   L 234.64,299.76   L 255.52,298.56   L 272.48,298.08   L 283.44,298.16   L 285.6,298.56   L 287.28,299.12   L 288.72,300.4   L 289.2,301.52   L 289.04,303.36   L 287.28,306.32   L 285.6,308   L 283.84,309.52   L 279.84,312.4   L 275.2,314.96   L 269.92,317.2   L 263.92,319.12   L 257.36,320.72   L 246.32,322.56   L 238,323.36   L 229.68,324   L 218.4,324.08   L 210.4,323.68  z "
     id="path10174" />
  <path
     style="fill:#ffffff;fill-rule:evenodd;fill-opacity:1;stroke:none;"
     d="  M 235.84,321.2   L 243.76,320.48   L 254.24,318.8   L 260.48,317.36   L 266.16,315.68   L 271.28,313.6   L 276,311.28   L 280.24,308.56   L 282.16,307.12   L 284,305.68   L 285.68,303.84   L 286.16,302.88   L 286.16,302   L 285.44,301.36   L 283.12,300.56   L 277.2,300.16   L 267.68,300.24   L 246.16,301.28   L 224.8,302.72   L 222.72,303.04   L 211.12,304.16   L 202.72,304.56   L 199.2,304.48   L 196,304.24   L 188.32,303.12   L 177.68,301.04   L 175.76,300.56   L 166,299.04   L 149.28,296.88   L 145.04,296.64   L 142.48,296.72   L 137.36,297.44   L 133.2,298.56   L 131.2,299.6   L 130.48,300.24   L 130.4,300.64   L 130.64,301.2   L 132.56,303.84   L 133.92,305.44   L 135.04,306.64   L 137.28,308.48   L 140.24,309.84   L 144.8,311.2   L 148.08,312.08   L 155.44,313.84   L 171.28,316.88   L 187.76,319.36   L 204.4,321.04   L 212.56,321.52   L 217.6,321.84   L 220.56,322.08   L 225.2,321.92   L 235.84,321.2  z "
     id="path10176" />
</svg>
