<?xml version="1.0" encoding="UTF-8" standalone="no"?>
<svg
   xmlns:dc="http://purl.org/dc/elements/1.1/"
   xmlns:cc="http://creativecommons.org/ns#"
   xmlns:rdf="http://www.w3.org/1999/02/22-rdf-syntax-ns#"
   xmlns:svg="http://www.w3.org/2000/svg"
   xmlns="http://www.w3.org/2000/svg"
   xmlns:sodipodi="http://sodipodi.sourceforge.net/DTD/sodipodi-0.dtd"
   xmlns:inkscape="http://www.inkscape.org/namespaces/inkscape"
   version="1.1"
   x="0px"
   y="0px"
   viewBox="0 0 88 102"
   enable-background="new 0 0 100 100"
   xml:space="preserve"
   id="svg2"
   inkscape:version="0.48.2 r9819"
   width="100%"
   height="100%"
   sodipodi:docname="noun_7175_cc.svg"><metadata
     id="metadata32"><rdf:RDF><cc:Work
         rdf:about=""><dc:format>image/svg+xml</dc:format><dc:type
           rdf:resource="http://purl.org/dc/dcmitype/StillImage" /></cc:Work></rdf:RDF></metadata><defs
     id="defs30" /><sodipodi:namedview
     pagecolor="#ffffff"
     bordercolor="#666666"
     borderopacity="1"
     objecttolerance="10"
     gridtolerance="10"
     guidetolerance="10"
     inkscape:pageopacity="0"
     inkscape:pageshadow="2"
     inkscape:window-width="994"
     inkscape:window-height="622"
     id="namedview28"
     showgrid="false"
     inkscape:zoom="1.888"
     inkscape:cx="50"
     inkscape:cy="62.5"
     inkscape:window-x="0"
     inkscape:window-y="0"
     inkscape:window-maximized="0"
     inkscape:current-layer="svg2" /><g
     id="g4"
     transform="translate(-6,1)"><path
       d="m 60.086,14.7 c 0.471,-1.206 0.725,-2.519 0.725,-3.89 C 60.811,4.84 55.972,0 50,0 44.032,0 39.189,4.84 39.189,10.811 c 0,1.371 0.254,2.684 0.725,3.89 C 20.896,19.242 6.757,36.347 6.757,56.757 6.757,80.639 26.118,100 50,100 73.882,100 93.243,80.639 93.243,56.757 93.243,36.347 79.104,19.242 60.086,14.7 z M 44.595,10.811 c 0,-2.984 2.422,-5.405 5.405,-5.405 2.983,0 5.405,2.421 5.405,5.405 0,1.086 -0.319,2.095 -0.871,2.939 -1.488,-0.158 -3.003,-0.236 -4.534,-0.236 -1.531,0 -3.046,0.078 -4.534,0.236 -0.552,-0.845 -0.871,-1.854 -0.871,-2.939 z m 40.54,45.946 c 0,19.37 -15.676,35.078 -35.03,35.135 l -0.029,0.125 -0.031,-0.125 c -0.014,0 -0.028,0 -0.044,0 -19.369,0 -35.078,-15.676 -35.135,-35.033 l -0.125,-0.031 0.125,-0.029 c 0,-0.015 0,-0.026 0,-0.041 0,-19.369 15.676,-35.079 35.033,-35.135 l 0.006,-0.005 0.022,-0.119 0.032,0.124 c 0.015,0 0.025,0 0.041,0 19.37,0 35.078,15.675 35.135,35.033 l 0.125,0.03 -0.125,0.03 c 0,0.014 0,0.026 0,0.041 z"
       id="path6"
       inkscape:connector-curvature="0"
       style="fill:#000000" /><path
       d="m 65.535,52.109 c 0.441,1.472 0.681,3.033 0.681,4.647 0,1.56 -0.225,3.066 -0.634,4.493 l 19.553,-4.534 c 0,-0.019 0,-0.042 0,-0.061 l -19.6,-4.545 z"
       id="path8"
       inkscape:connector-curvature="0"
       style="fill:#000000" /><path
       d="m 50,72.973 c -1.558,0 -3.065,-0.225 -4.493,-0.634 l 4.537,19.553 c 0.021,0 0.042,0 0.061,0 L 54.647,72.294 C 53.176,72.733 51.616,72.973 50,72.973 z"
       id="path10"
       inkscape:connector-curvature="0"
       style="fill:#000000" /><path
       d="m 33.784,56.757 c 0,-1.558 0.226,-3.066 0.634,-4.493 l -19.553,4.534 c 0,0.018 0,0.042 0,0.061 l 19.6,4.546 c -0.442,-1.472 -0.681,-3.03 -0.681,-4.648 z"
       id="path12"
       inkscape:connector-curvature="0"
       style="fill:#000000" /><path
       d="m 50,40.541 c 1.562,0 3.067,0.226 4.493,0.633 L 49.959,21.622 c -0.019,0 -0.042,0 -0.061,0 l -4.545,19.599 c 1.471,-0.44 3.033,-0.68 4.647,-0.68 z"
       id="path14"
       inkscape:connector-curvature="0"
       style="fill:#000000" /><path
       d="m 60.153,69.399 7.079,4.522 -4.529,-7.09 c -0.751,0.947 -1.606,1.81 -2.55,2.568 z"
       id="path16"
       inkscape:connector-curvature="0"
       style="fill:#000000" /><path
       d="m 39.849,44.114 -7.081,-4.522 4.529,7.089 c 0.755,-0.945 1.606,-1.808 2.552,-2.567 z"
       id="path18"
       inkscape:connector-curvature="0"
       style="fill:#000000" /><path
       d="m 69.037,39.479 c 2.447,-3.486 1.597,-4.337 -1.891,-1.89 L 48.943,50.356 c 1.984,-0.369 4.01,0.185 5.575,1.752 1.565,1.565 2.12,3.592 1.749,5.575 l 12.77,-18.204 z"
       id="path20"
       inkscape:connector-curvature="0"
       style="fill:#000000" /><path
       d="M 45.481,61.146 C 43.917,59.579 43.364,57.548 43.738,55.56 L 30.964,73.773 c -2.448,3.483 -1.598,4.336 1.894,1.889 L 51.061,62.891 c -1.985,0.37 -4.015,-0.185 -5.58,-1.745 z"
       id="path22"
       inkscape:connector-curvature="0"
       style="fill:#000000" /></g></svg>