<?xml version="1.0" encoding="UTF-8" standalone="no"?>
<!-- Created with Inkscape (http://www.inkscape.org/) -->

<svg
   xmlns:dc="http://purl.org/dc/elements/1.1/"
   xmlns:cc="http://creativecommons.org/ns#"
   xmlns:rdf="http://www.w3.org/1999/02/22-rdf-syntax-ns#"
   xmlns:svg="http://www.w3.org/2000/svg"
   xmlns="http://www.w3.org/2000/svg"
   xmlns:sodipodi="http://sodipodi.sourceforge.net/DTD/sodipodi-0.dtd"
   xmlns:inkscape="http://www.inkscape.org/namespaces/inkscape"
   width="210mm"
   height="297mm"
   viewBox="0 0 210 297"
   version="1.1"
   id="svg9759"
   inkscape:version="0.92.2 5c3e80d, 2017-08-06"
   sodipodi:docname="cutlass2.svg">
  <defs
     id="defs9753" />
  <sodipodi:namedview
     id="base"
     pagecolor="#ffffff"
     bordercolor="#666666"
     borderopacity="1.0"
     inkscape:pageopacity="0.0"
     inkscape:pageshadow="2"
     inkscape:zoom="0.35"
     inkscape:cx="400"
     inkscape:cy="560"
     inkscape:document-units="mm"
     inkscape:current-layer="layer1"
     showgrid="false"
     inkscape:window-width="1920"
     inkscape:window-height="1080"
     inkscape:window-x="0"
     inkscape:window-y="23"
     inkscape:window-maximized="0" />
  <metadata
     id="metadata9756">
    <rdf:RDF>
      <cc:Work
         rdf:about="">
        <dc:format>image/svg+xml</dc:format>
        <dc:type
           rdf:resource="http://purl.org/dc/dcmitype/StillImage" />
        <dc:title></dc:title>
      </cc:Work>
    </rdf:RDF>
  </metadata>
  <g
     inkscape:label="Layer 1"
     inkscape:groupmode="layer"
     id="layer1">
    <path
       inkscape:connector-curvature="0"
       style="fill:#e5e5e5;fill-opacity:1;fill-rule:evenodd;stroke:#939090;stroke-width:0.08466666px;stroke-linecap:butt;stroke-linejoin:miter;stroke-miterlimit:4;stroke-dasharray:none;stroke-opacity:1"
       d="m 147.18091,82.826603 -0.27516,-0.127 -0.59267,-0.127 -0.29633,0.04233 -0.9525,0.232833 -1.82034,0.719667 -0.889,0.359833 -2.18016,0.9525 -3.15384,1.608667 -2.032,1.185333 -0.99483,0.635 -1.82033,1.185334 -3.53484,2.497666 -1.67216,1.354667 -1.27,1.058333 -1.27,1.0795 -1.905,1.693334 -3.64067,3.59833 -3.40783,3.81 -3.19617,4.0005 -1.50283,2.07434 -1.22767,1.69333 -2.2225,3.53483 -1.0795,1.79917 -0.71967,1.27 -0.6985,1.27 -0.93133,1.73567 -0.86783,1.73566 -0.86784,1.82034 -1.4605,3.7465 -0.783163,1.8415 -0.3175,0.762 -0.508,1.56633 -0.232834,0.78317 -0.3175,0.889 -0.550333,1.79916 -0.211667,0.91017 -0.486833,1.82033 -0.677333,2.77284 -0.359834,1.86266 -0.127,0.93134 -0.338666,1.7145 -0.465667,3.429 -0.148167,1.73566 -0.08467,1.4605 -0.211667,2.921 0.04233,1.4605 -0.04233,2.01084 0.127,4.0005 0.169333,2.01083 -0.359833,0.127 -0.381,0.127 0.232833,-0.0212 0.3175,0.10583 0.296334,0.35984 0.169333,1.16416 0.105833,0.71967 0.592667,0.381 0.5715,0.40217 0.275167,0.16933 0.550333,0.23283 0.846667,0.10584 1.777997,-0.21167 1.16417,-0.1905 0.1905,-0.16933 0.29633,-0.35984 0.27517,-0.65616 0.1905,-0.93134 0.27517,-0.889 0.29633,-0.381 -0.23283,-0.0847 -0.254,-0.0847 0.0847,-1.50283 0.381,-3.00567 0.23283,-1.50283 0.29633,-1.82033 0.71967,-3.57717 0.40217,-1.79917 0.65616,-2.43416 1.50284,-4.826 0.889,-2.37067 1.12183,-2.7305 1.88383,-4.02167 1.397,-2.6035 0.74084,-1.29116 0.91016,-1.48167 1.905,-2.921 2.032,-2.81517 2.20134,-2.70933 1.143,-1.31233 1.67216,-1.778 3.51367,-3.3655 1.86267,-1.56634 1.16416,-0.91016 2.37067,-1.7145 2.4765,-1.5875 2.58233,-1.39701 1.3335,-0.635 0.10584,-1.75683 0.508,-3.51367 0.78316,-3.471328 0.99484,-3.429 0.55033,-1.672167 0.6985,-1.905 1.27,-2.772833 0.99483,-1.756833 0.5715,-0.846667 0.508,-0.719667 1.22767,-1.248833 0.65617,-0.592667 0.16933,-0.148166 0.29633,-0.381 0.16934,-0.4445 -0.0423,-0.465667 z"
       id="path6886" />
    <path
       inkscape:connector-curvature="0"
       style="fill:#7e5e38;fill-opacity:1;fill-rule:nonzero;stroke:#7e5e38;stroke-width:0.08466666px;stroke-linecap:butt;stroke-linejoin:miter;stroke-miterlimit:4;stroke-dasharray:none;stroke-opacity:1"
       d="m 102.85791,166.03277 0.71967,0.21167 1.397,0.59266 0.635,0.40217 0.635,0.4445 1.03717,1.12183 0.78316,1.31234 0.4445,1.48166 0.0847,0.762 -0.3175,0.33867 -0.3175,0.3175 -0.71966,-0.59267 -1.5875,-1.05833 -1.651,-0.91017 -1.75684,-0.71966 -0.91016,-0.3175 0.1905,-0.16934 0.29633,-0.35983 0.27517,-0.65617 0.1905,-0.93133 0.27516,-0.889 z"
       id="path6888" />
    <path
       inkscape:connector-curvature="0"
       style="fill:#795b36;fill-opacity:1;fill-rule:nonzero;stroke:#795b36;stroke-width:0.08466666px;stroke-linecap:butt;stroke-linejoin:miter;stroke-miterlimit:4;stroke-dasharray:none;stroke-opacity:1"
       d="m 89.141913,168.53044 0.635,-0.35984 1.27,-0.67733 2.010834,-0.84667 1.375833,-0.4445 0.232833,-0.0212 0.3175,0.10584 0.296334,0.35983 0.169333,1.16417 0.105833,0.71966 -0.02117,0.254 -0.02117,0.254 -0.910167,0.21167 -1.778,0.5715 -1.693333,0.80433 -1.502834,1.05834 -0.656166,0.67733 -0.910167,0.889 -1.185333,1.50283 -0.592667,1.10067 -0.1905,0.61383 -0.359833,0.84667 -0.486834,1.31233 -0.0635,0.91017 0.127,0.4445 -0.3175,0.78317 -0.550333,1.56633 -0.211667,0.80434 -0.211666,-0.21167 -0.254,-0.46567 -0.148167,-0.8255 -0.02117,-0.55033 -0.169333,0.0212 -0.169334,0.0212 0.04233,-0.4445 -0.02117,-0.84667 -0.105833,-0.42333 -0.148167,0.3175 -0.1905,0.635 -0.02117,0.33866 -0.105833,2.49767 -0.169333,2.49767 -0.254,-0.10584 -0.232834,-0.10583 -0.169333,-1.0795 -0.127,-2.13783 0.08467,-2.159 0.359833,-2.11667 0.3175,-1.03717 0.211667,-0.65616 0.529166,-1.24884 0.656167,-1.2065 0.762,-1.12183 0.867833,-1.05833 0.931334,-0.99484 1.545166,-1.35466 z"
       id="path6890" />
    <path
       inkscape:connector-curvature="0"
       style="fill:#8d7150;fill-opacity:1;fill-rule:nonzero;stroke:#8d7150;stroke-width:0.08466666px;stroke-linecap:butt;stroke-linejoin:miter;stroke-miterlimit:4;stroke-dasharray:none;stroke-opacity:1"
       d="m 95.555413,168.53044 0.592667,0.381 0.5715,0.40216 0.275167,0.16934 0.550333,0.23283 0.846667,0.10583 1.778003,-0.21166 1.16416,-0.1905 0.91017,0.3175 1.75683,0.71966 1.651,0.91017 1.5875,1.05833 0.71967,0.59267 0.3175,-0.3175 0.3175,-0.33867 -0.0423,0.61384 -0.14817,0.61383 -0.16933,-0.14817 -0.27517,0.0212 -0.16933,0.27517 -0.0423,0.35983 0.0847,0.16934 -0.48683,0.33866 -1.0795,0.46567 -0.5715,0.127 -0.27517,-0.1905 -0.254,-0.16933 0.55033,-0.10584 0.55034,-0.0847 -0.508,-0.4445 -1.10067,-0.78316 -1.18533,-0.65617 -1.24884,-0.52917 -1.29116,-0.381 -1.333503,-0.23283 -1.354667,-0.0847 -1.354667,0.0847 -0.656166,0.10583 -0.740834,0.14817 -1.439333,0.42333 -1.375833,0.635 -1.27,0.8255 -0.592667,0.46567 -0.338667,0.33867 -0.423333,0.5715 -0.04233,0.4445 0.105833,0.23283 -0.719667,0.35983 -1.375833,0.86784 -1.227667,1.03716 -1.037166,1.22767 -0.4445,0.67733 -0.127,-0.4445 0.0635,-0.91016 0.486833,-1.31234 0.359833,-0.84666 0.1905,-0.61384 0.592667,-1.10066 1.185333,-1.50284 0.910167,-0.889 0.656167,-0.67733 1.502833,-1.05833 1.693333,-0.80434 1.778,-0.5715 0.910167,-0.21166 0.02117,-0.254 z"
       id="path6892" />
    <path
       inkscape:connector-curvature="0"
       style="fill:#a48e75;fill-opacity:1;fill-rule:nonzero;stroke:#a48e75;stroke-width:0.08466666px;stroke-linecap:butt;stroke-linejoin:miter;stroke-miterlimit:4;stroke-dasharray:none;stroke-opacity:1"
       d="m 96.232747,171.7266 0.656166,-0.10583 1.354667,-0.0847 1.354667,0.0847 1.333503,0.23283 1.29116,0.381 1.24884,0.52917 1.18533,0.65617 1.10067,0.78316 0.508,0.4445 -0.55034,0.0847 -0.55033,0.10584 0.254,0.16933 0.27517,0.1905 -0.67734,0.10583 -1.37583,0.0212 -0.67733,-0.14816 -0.3175,-0.14817 -1.56634,-0.27517 -3.174997,-0.27516 -2.391833,0.0847 -1.5875,0.16933 -1.545167,0.33867 -1.524,0.4445 -0.740833,0.29633 -0.105834,-0.23283 0.04233,-0.4445 0.423334,-0.5715 0.338666,-0.33867 0.592667,-0.46567 1.270001,-0.8255 1.375833,-0.635 1.439333,-0.42333 z"
       id="path6894" />
    <path
       inkscape:connector-curvature="0"
       style="fill:#64523f;fill-opacity:1;fill-rule:nonzero;stroke:#64523f;stroke-width:0.08466666px;stroke-linecap:butt;stroke-linejoin:miter;stroke-miterlimit:4;stroke-dasharray:none;stroke-opacity:1"
       d="m 107.83208,174.2666 -0.0847,-0.16933 0.0423,-0.35983 0.16933,-0.27517 0.27517,-0.0212 0.16933,0.14817 -0.0847,0.21166 -0.29633,0.33867 z"
       id="path6896" />
    <path
       inkscape:connector-curvature="0"
       style="fill:#341c10;fill-opacity:1;fill-rule:nonzero;stroke:#341c10;stroke-width:0.08466666px;stroke-linecap:butt;stroke-linejoin:miter;stroke-miterlimit:4;stroke-dasharray:none;stroke-opacity:1"
       d="m 90.11558,175.81177 0.740833,-0.29633 1.524,-0.4445 1.545167,-0.33867 1.5875,-0.16933 2.391833,-0.0847 3.174997,0.27516 1.56634,0.27517 0.3175,0.14817 -0.67734,-0.0635 -0.67733,-0.0635 -0.9525,-0.0635 -0.9525,-0.0423 -0.931333,0.0423 -1.8415,0.14816 H 96.02108 l -0.486833,-0.0635 -0.9525,0.10584 -0.465667,0.127 -0.8255,0.1905 -1.651,0.508 -1.566334,0.67733 -1.439333,0.93133 -0.635,0.5715 -0.529167,0.55034 -0.867833,1.16416 -0.677333,1.29117 -0.465667,1.39701 -0.296333,1.41816 -0.105834,1.48167 0.105834,1.4605 0.275166,1.43933 0.211667,0.6985 -0.169333,0.46567 -0.169334,0.48683 -0.402166,-0.80433 -0.508,-1.69333 -0.211667,-1.75684 -0.02117,-1.778 0.0635,-0.86783 0.211667,-0.80434 0.550333,-1.56633 0.3175,-0.78317 0.4445,-0.67733 1.037167,-1.22767 1.227666,-1.03717 1.375834,-0.86783 z"
       id="path6898" />
    <path
       inkscape:connector-curvature="0"
       style="fill:#4a2a14;fill-opacity:1;fill-rule:nonzero;stroke:#4a2a14;stroke-width:0.08466666px;stroke-linecap:butt;stroke-linejoin:miter;stroke-miterlimit:4;stroke-dasharray:none;stroke-opacity:1"
       d="m 94.11608,175.30377 0.465667,-0.127 0.9525,-0.10583 0.486833,0.0635 0.867833,0.254 1.3335,0.23283 0.867834,0.27517 0.402166,0.23283 -0.3175,0.16933 -0.296333,0.1905 -0.719667,-0.0847 -1.0795,-0.0847 -0.719666,0.10584 -0.338667,0.127 0.8255,0.23283 1.312333,0.21167 0.804334,0.27516 0.359833,0.254 -0.931333,0.10584 -1.905,0.0212 -0.931334,0.0423 0.465667,0.1905 0.9525,0.254 0.973667,0.21166 0.9525,0.29634 0.4445,0.21166 -1.778,0.1905 -1.778,0.0423 0.4445,0.1905 0.931333,0.23284 0.9525,0.16933 0.867833,0.35983 0.381,0.3175 -0.508,0.0212 h -0.6985 l -1.0795,-0.0847 -0.677333,0.0635 -0.338667,0.14817 0.846667,0.23283 1.27,0.23284 0.804333,0.27516 0.359834,0.254 -1.778,0.127 -1.778,0.0212 0.423333,0.21167 0.910167,0.254 0.9525,0.16933 0.867833,0.29634 0.402167,0.254 -1.905,0.14816 -1.905,0.0423 0.465666,0.1905 0.994834,0.21166 0.994833,0.1905 0.931333,0.33867 0.423334,0.27517 -1.651,0.127 -1.651,0.0423 0.402166,0.21167 0.846667,0.21166 0.867833,0.14817 0.8255,0.254 0.359834,0.254 -0.465667,0.127 -0.9525,0.0635 -1.439333,-0.0635 -0.9525,-0.0423 0.994833,0.35983 1.545167,0.3175 1.016,0.29633 0.486833,0.23284 -1.778,0.16933 -1.778,0.0635 0.402167,0.1905 0.889,0.254 1.3335,0.29633 0.867833,0.27517 -0.402167,0.16933 -0.867833,0.14817 -1.3335,0.0212 -0.867833,0.0423 0.4445,0.1905 0.910166,0.254 0.931334,0.1905 0.889,0.3175 0.402166,0.254 -1.651,0.14817 -1.672166,0.0423 0.402166,0.1905 0.889,0.21167 0.889,0.16933 0.804334,0.33867 0.338666,0.29633 -1.121833,0.0635 -2.2225,-0.16933 -1.100667,-0.23284 v -1.22766 -2.4765 l -0.127,-1.22767 -0.105833,-1.2065 0.0635,-2.37067 -0.0635,-1.2065 -0.04233,-1.43933 0.02117,-2.8575 -0.105833,-1.43933 z"
       id="path6900" />
    <path
       inkscape:connector-curvature="0"
       style="fill:#917251;fill-opacity:1;fill-rule:nonzero;stroke:#917251;stroke-width:0.08466666px;stroke-linecap:butt;stroke-linejoin:miter;stroke-miterlimit:4;stroke-dasharray:none;stroke-opacity:1"
       d="m 96.02108,175.13444 h 0.910167 l 1.8415,-0.14817 0.931333,-0.0423 0.65617,0.48683 0.635,0.48684 -0.40217,0.381 -0.42333,0.381 0.42333,0.3175 0.4445,0.29633 -0.48683,0.29633 -0.48684,0.29634 0.4445,0.42333 0.46567,0.42333 -0.42333,0.23284 -0.42334,0.254 0.35984,0.33866 0.3175,0.35984 -0.16934,0.381 -0.16933,0.35983 0.254,0.29633 0.27517,0.27517 -0.33867,0.3175 -0.3175,0.3175 0.40217,0.33867 0.42333,0.35983 -0.40217,0.3175 -0.40216,0.33867 0.29633,0.40216 0.29633,0.42334 -0.59266,0.59266 0.381,0.3175 0.381,0.29634 -0.35984,0.3175 -0.381,0.3175 0.35984,0.29633 0.35983,0.27517 -0.254,0.381 -0.254,0.381 0.40217,0.381 0.40216,0.35983 -0.40216,0.3175 -0.40217,0.29633 0.42333,0.381 0.42334,0.381 -0.42334,0.3175 -0.42333,0.33867 0.29633,0.3175 0.29634,0.33867 -0.33867,0.33866 -0.33867,0.3175 0.35984,0.29634 0.35983,0.29633 -0.254,0.42333 -0.27517,0.42334 0.35984,0.27516 0.35983,0.27517 -0.3175,0.3175 -0.29633,0.33867 0.29633,0.29633 0.3175,0.3175 -0.254,0.381 -0.254,0.381 0.35983,0.254 0.35984,0.23283 -0.35984,0.4445 -0.35983,0.42334 0.46567,0.27516 0.48683,0.27517 -0.21167,0.127 -0.1905,0.127 -0.29633,0.0212 -0.508,-0.10584 -0.65617,-0.42333 -0.35983,-0.40217 0.4445,-0.254 0.4445,-0.254 -0.4445,-0.3175 -0.4445,-0.33866 0.254,-0.3175 0.254,-0.33867 -0.486833,-0.55033 -0.465667,-0.55034 0.465667,-0.0212 0.486833,-0.0212 0.48683,-0.0212 -1.015997,-1.03716 0.486837,-0.23284 0.46566,-0.23283 -0.42333,-0.33867 -0.4445,-0.35983 0.211667,-0.27517 0.211663,-0.27516 -0.29633,-0.46567 -0.275167,-0.46567 0.381,-0.14816 0.380997,-0.16934 -0.444497,-0.508 -0.4445,-0.508 0.4445,-0.21166 0.465667,-0.1905 -0.465667,-0.40217 -0.4445,-0.40217 0.402167,-0.33866 0.42333,-0.33867 -0.55033,-0.3175 -0.529167,-0.29633 0.423334,-0.33867 0.444503,-0.33867 -0.40217,-0.35983 -0.296333,-0.4445 0.338666,-0.21167 0.338667,-0.1905 -0.381,-0.46566 -0.402167,-0.46567 0.423334,-0.254 0.444503,-0.254 -0.52917,-0.40217 -0.529167,-0.42333 0.486834,-0.23283 0.508003,-0.254 -0.59267,-0.508 -0.592667,-0.55034 0.508,-0.0212 0.359834,-0.0212 0.359833,-0.0212 -0.804333,-0.86783 0.3175,-0.40217 0.3175,-0.381 -0.465667,-0.29633 -0.465667,-0.29633 0.465667,-0.35984 0.465667,-0.35983 -0.508,-0.4445 -0.529167,-0.42333 0.296333,-0.1905 0.3175,-0.16934 -0.402166,-0.23283 -0.867834,-0.27517 -1.3335,-0.23283 z"
       id="path6902" />
    <path
       inkscape:connector-curvature="0"
       style="fill:#af987a;fill-opacity:1;fill-rule:nonzero;stroke:#af987a;stroke-width:0.08466666px;stroke-linecap:butt;stroke-linejoin:miter;stroke-miterlimit:4;stroke-dasharray:none;stroke-opacity:1"
       d="m 99.70408,174.94394 0.9525,0.0423 0.9525,0.0635 0.0423,3.21733 0.0212,4.80484 0.10583,3.19617 0.127,1.5875 0.0212,4.5085 0.0847,4.48733 -0.0635,0.1905 -0.0847,0.1905 -0.48683,-0.27517 -0.46567,-0.27516 0.35984,-0.42334 0.35983,-0.4445 -0.35983,-0.23283 -0.35984,-0.254 0.254,-0.381 0.254,-0.381 -0.3175,-0.3175 -0.29633,-0.29633 0.29633,-0.33867 0.3175,-0.3175 -0.35983,-0.27517 -0.35983,-0.27516 0.27516,-0.42334 0.254,-0.42333 -0.35983,-0.29633 -0.35983,-0.29634 0.33866,-0.3175 0.33867,-0.33866 -0.29633,-0.33867 -0.29634,-0.3175 0.42334,-0.33867 0.42333,-0.3175 -0.42333,-0.381 -0.42334,-0.381 0.40217,-0.29633 0.40217,-0.3175 -0.40217,-0.35983 -0.40217,-0.381 0.254,-0.381 0.254,-0.381 -0.35983,-0.27517 -0.35983,-0.29633 0.381,-0.3175 0.35983,-0.3175 -0.381,-0.29634 -0.381,-0.3175 0.59267,-0.59266 -0.29634,-0.42334 -0.29633,-0.40216 0.40217,-0.33867 0.40216,-0.3175 -0.42333,-0.35984 -0.40217,-0.33867 0.3175,-0.3175 0.33867,-0.3175 -0.27517,-0.27516 -0.254,-0.29634 0.16934,-0.35983 0.16933,-0.381 -0.3175,-0.35983 -0.35983,-0.33867 0.42333,-0.254 0.42333,-0.23283 -0.46566,-0.42334 -0.4445,-0.42333 0.48683,-0.29633 0.48683,-0.29634 -0.4445,-0.29633 -0.42333,-0.3175 0.42333,-0.381 0.40217,-0.381 -0.635,-0.48683 z"
       id="path6904" />
    <path
       inkscape:connector-curvature="0"
       style="fill:#745136;fill-opacity:1;fill-rule:nonzero;stroke:#745136;stroke-width:0.08466666px;stroke-linecap:butt;stroke-linejoin:miter;stroke-miterlimit:4;stroke-dasharray:none;stroke-opacity:1"
       d="m 96.02108,176.5526 0.338667,-0.127 0.719666,-0.10583 1.0795,0.0847 0.719667,0.0847 0.529167,0.42333 0.508,0.4445 -0.465667,0.35984 -0.465667,0.35983 0.465667,0.29633 0.465667,0.29634 -0.3175,0.381 -0.3175,0.40216 0.804333,0.86784 -0.359833,0.0212 -0.359834,0.0212 -0.381,-0.3175 -0.867833,-0.35984 -0.9525,-0.16933 -0.931333,-0.23283 -0.4445,-0.1905 1.778,-0.0423 1.778,-0.1905 -0.4445,-0.21167 -0.9525,-0.29633 -0.973667,-0.21167 -0.9525,-0.254 -0.465667,-0.1905 0.931334,-0.0423 1.905,-0.0212 0.931333,-0.10583 -0.359833,-0.254 -0.804334,-0.27517 -1.312333,-0.21167 z"
       id="path6906" />
    <path
       inkscape:connector-curvature="0"
       style="fill:#6b492a;fill-opacity:1;fill-rule:nonzero;stroke:#6b492a;stroke-width:0.08466666px;stroke-linecap:butt;stroke-linejoin:miter;stroke-miterlimit:4;stroke-dasharray:none;stroke-opacity:1"
       d="m 82.81308,180.70127 0.02117,-0.33867 0.1905,-0.635 0.148166,-0.3175 0.105834,0.42334 0.02117,0.84666 -0.04233,0.4445 0.169333,-0.0212 0.169333,-0.0212 0.02117,0.55034 0.148167,0.8255 0.254,0.46566 0.211667,0.21167 -0.0635,0.86783 0.02117,1.778 0.211666,1.75684 0.508,1.69333 0.402167,0.80433 0.254,0.46567 0.254,0.46567 -0.1905,0.508 -0.1905,0.52916 -0.423333,-0.35983 -0.465667,-0.65617 -0.148167,-0.508 v -0.29633 l -0.275166,-0.16933 -0.275167,-0.16934 -0.211667,0.21167 -0.1905,0.23283 -0.381,-0.91016 -0.613833,-1.88384 -0.211667,-0.97366 -0.105833,-0.52917 -0.08467,-0.508 0.232833,0.10583 0.254,0.10584 0.169334,-2.49767 z"
       id="path6908" />
    <path
       inkscape:connector-curvature="0"
       style="fill:#765237;fill-opacity:1;fill-rule:nonzero;stroke:#765237;stroke-width:0.08466666px;stroke-linecap:butt;stroke-linejoin:miter;stroke-miterlimit:4;stroke-dasharray:none;stroke-opacity:1"
       d="m 96.063413,180.51077 0.338667,-0.14817 0.677333,-0.0635 1.0795,0.0847 h 0.6985 l 0.592667,0.55034 0.59267,0.508 -0.508003,0.254 -0.486834,0.23283 0.529167,0.42333 0.52917,0.40217 -0.444503,0.254 -0.423334,0.254 0.402167,0.46567 0.381,0.46566 -0.338667,0.1905 -0.338666,0.21167 0.296333,0.4445 0.40217,0.35983 -0.444503,0.33867 -0.423334,0.33867 0.529167,0.29633 0.55033,0.3175 -0.42333,0.33867 -0.402167,0.33866 0.4445,0.40217 0.465667,0.40217 -0.465667,0.1905 -0.4445,0.21166 0.4445,0.508 0.444497,0.508 -0.380997,0.16934 -0.381,0.14816 0.275167,0.46567 0.29633,0.46567 -0.211663,0.27516 -0.211667,0.27517 0.4445,0.35983 0.42333,0.33867 -0.46566,0.23283 -0.486837,0.23284 1.015997,1.03716 -0.48683,0.0212 -0.486833,0.0212 -0.359834,-0.29634 -0.8255,-0.33866 -1.375833,-0.254 -0.867833,-0.1905 0.338666,-0.23284 h 0.762 l 1.524,-0.0423 0.762,-0.10583 -0.529166,-0.23284 -1.100667,-0.27516 -1.143,-0.16934 -1.121833,-0.254 -0.529167,-0.23283 -0.02117,-0.16933 v -0.16934 l 1.100667,0.23284 2.2225,0.16933 1.121833,-0.0635 -0.338666,-0.29633 -0.804334,-0.33867 -0.889,-0.16933 -0.889,-0.21167 -0.402166,-0.1905 1.672166,-0.0423 1.651,-0.14817 -0.402166,-0.254 -0.889,-0.3175 -0.931334,-0.1905 -0.910166,-0.254 -0.4445,-0.1905 0.867833,-0.0423 1.3335,-0.0212 0.867833,-0.14817 0.402167,-0.16933 -0.867833,-0.27517 -1.3335,-0.29633 -0.889,-0.254 -0.402167,-0.1905 1.778,-0.0635 1.778,-0.16933 -0.486833,-0.23284 -1.016,-0.29633 -1.545167,-0.3175 -0.994833,-0.35983 0.9525,0.0423 1.439333,0.0635 0.9525,-0.0635 0.465667,-0.127 -0.359834,-0.254 -0.8255,-0.254 -0.867833,-0.14817 -0.846667,-0.21166 -0.402166,-0.21167 1.651,-0.0423 1.651,-0.127 -0.423334,-0.27517 -0.931333,-0.33867 -0.994833,-0.1905 -0.994834,-0.21166 -0.465666,-0.1905 1.905,-0.0423 1.905,-0.14816 -0.402167,-0.254 -0.867833,-0.29634 -0.9525,-0.16933 -0.910167,-0.254 -0.423333,-0.21167 1.778,-0.0212 1.778,-0.127 -0.359834,-0.254 -0.804333,-0.27516 -1.27,-0.23284 z"
       id="path6910" />
    <path
       inkscape:connector-curvature="0"
       style="fill:#050000;fill-opacity:1;fill-rule:nonzero;stroke:#050000;stroke-width:0.08466666px;stroke-linecap:butt;stroke-linejoin:miter;stroke-miterlimit:4;stroke-dasharray:none;stroke-opacity:1"
       d="m 85.310746,190.03577 0.169334,-0.48683 0.169333,-0.46567 0.254,0.61384 0.592667,1.143 0.740833,1.05833 0.867833,0.97367 0.486834,0.4445 0.6985,0.61383 1.566333,0.99483 2.518834,1.143 1.756833,0.61384 0.275167,0.1905 0.5715,0.29633 0.931333,0.27517 1.9685,0.127 1.29117,0.0212 0.65616,-0.0212 0.635,-0.0847 0.1905,-0.127 0.21167,-0.127 0.0847,-0.1905 0.0635,-0.1905 0.40217,-0.10583 0.889,-0.14817 0.635,0.0423 0.381,0.127 0.3175,0.23284 0.23283,0.35983 0.0847,0.254 -0.40217,0.29633 -0.635,0.40217 -0.46566,0.16933 -0.254,0.0423 -0.78317,0.0847 -1.62983,0.0635 -1.60867,-0.0635 -1.608666,-0.1905 -1.5875,-0.29633 -1.545167,-0.4445 -1.502833,-0.59267 -1.4605,-0.71966 -0.698501,-0.42334 -0.740833,-0.46566 -1.418167,-1.0795 -1.248833,-1.24884 -1.0795,-1.41816 -0.465667,-0.762 -0.254,-0.46567 z"
       id="path6912" />
    <path
       inkscape:connector-curvature="0"
       style="fill:#604025;fill-opacity:1;fill-rule:nonzero;stroke:#604025;stroke-width:0.08466666px;stroke-linecap:butt;stroke-linejoin:miter;stroke-miterlimit:4;stroke-dasharray:none;stroke-opacity:1"
       d="m 83.44808,190.28977 0.1905,-0.23283 0.211666,-0.21167 0.275167,0.16934 0.275167,0.16933 v 0.29633 l 0.148166,0.508 0.465667,0.65617 0.423333,0.35983 0.1905,-0.52916 0.1905,-0.508 0.465667,0.762 1.0795,1.41816 1.248833,1.24884 1.418167,1.0795 0.740833,0.46566 0.698501,0.42334 1.4605,0.71966 1.502833,0.59267 1.545167,0.4445 1.5875,0.29633 1.608666,0.1905 1.608667,0.0635 1.62983,-0.0635 0.78317,-0.0847 0.254,-0.0423 0.46567,-0.16933 0.635,-0.40217 0.40216,-0.29633 -0.0423,0.40217 -0.21166,0.8255 -0.4445,0.69849 -0.46567,0.35983 -0.40217,0.127 -0.21166,0.0423 -1.54517,0.0423 -3.069167,-0.14817 -3.048,-0.46567 -2.2225,-0.61382 -1.439333,-0.508 -0.6985,-0.3175 -0.635001,-0.29633 -1.227666,-0.6985 -1.143,-0.78317 -1.0795,-0.91017 -0.973667,-0.97366 -0.889,-1.0795 -0.783167,-1.16417 -0.677333,-1.22767 z"
       id="path6914" />
    <path
       inkscape:connector-curvature="0"
       style="fill:#4b2a14;fill-opacity:1;fill-rule:nonzero;stroke:#4b2a14;stroke-width:0.08466666px;stroke-linecap:butt;stroke-linejoin:miter;stroke-miterlimit:4;stroke-dasharray:none;stroke-opacity:1"
       d="m 95.19558,191.00944 0.529167,0.23283 1.121833,0.254 1.143,0.16934 1.100667,0.27516 0.529166,0.23284 -0.762,0.10583 -1.524,0.0423 h -0.762 l -0.719666,-0.42333 -0.635,-0.48683 z"
       id="path6916" />
    <path
       inkscape:connector-curvature="0"
       style="fill:#4e3525;fill-opacity:1;fill-rule:nonzero;stroke:#4e3525;stroke-width:0.08466666px;stroke-linecap:butt;stroke-linejoin:miter;stroke-miterlimit:4;stroke-dasharray:none;stroke-opacity:1"
       d="m 95.216747,191.41161 0.635,0.48683 0.719666,0.42333 -0.338666,0.23284 -0.359834,0.0423 -0.338666,0.0635 0.04233,0.21167 0.211667,0.29633 0.465666,0.27517 0.359834,0.14816 0.465666,0.33867 0.486834,0.33867 -0.994834,-0.10584 -0.973666,-0.14816 v 0.33866 l 0.02117,0.33867 0.8255,0.127 0.846667,0.127 -0.1905,0.21167 -0.169333,0.21166 0.740833,0.0847 0.762,0.0847 -0.6985,0.16933 -1.439333,0.10583 h -0.6985 l 0.465666,0.14817 0.994834,0.10583 0.994833,0.0212 0.994833,0.0847 0.486834,0.127 -1.2065,0.0847 -1.227667,0.127 0.783167,0.254 1.545166,0.48684 0.740836,0.33866 -1.291169,-0.0212 -1.9685,-0.127 -0.931333,-0.27517 -0.5715,-0.29633 -0.275167,-0.1905 0.105833,-1.31234 -0.02117,-2.64583 z"
       id="path6918" />
    <path
       inkscape:connector-curvature="0"
       style="fill:#4c2a0f;fill-opacity:1;fill-rule:nonzero;stroke:#4c2a0f;stroke-width:0.08466666px;stroke-linecap:butt;stroke-linejoin:miter;stroke-miterlimit:4;stroke-dasharray:none;stroke-opacity:1"
       d="m 95.534247,192.66044 0.338666,-0.0635 0.359834,-0.0423 0.867833,0.1905 1.375833,0.254 0.8255,0.33866 0.359834,0.29634 -0.465667,0.0212 h -1.291167 l -1.291166,-0.0635 -0.359834,-0.14816 -0.465666,-0.27517 -0.211667,-0.29633 z"
       id="path6920" />
    <path
       inkscape:connector-curvature="0"
       style="fill:#6f4b31;fill-opacity:1;fill-rule:nonzero;stroke:#6f4b31;stroke-width:0.08466666px;stroke-linecap:butt;stroke-linejoin:miter;stroke-miterlimit:4;stroke-dasharray:none;stroke-opacity:1"
       d="m 96.613747,193.59177 1.291166,0.0635 h 1.291167 l 0.465667,0.55034 0.486833,0.55033 -0.254,0.33867 -0.254,0.3175 0.4445,0.33866 0.4445,0.3175 -0.4445,0.254 -0.4445,0.254 0.35983,0.40217 0.65617,0.42333 0.508,0.10584 0.29633,-0.0212 -0.635,0.0847 -0.65616,0.0212 -0.740837,-0.33866 -1.545166,-0.48684 -0.783167,-0.254 1.227667,-0.127 1.2065,-0.0847 -0.486834,-0.127 -0.994833,-0.0847 -0.994833,-0.0212 -0.994834,-0.10583 -0.465666,-0.14817 h 0.6985 l 1.439333,-0.10583 0.6985,-0.16933 -0.762,-0.0847 -0.740833,-0.0847 0.169333,-0.21166 0.1905,-0.21167 0.613833,0.0635 1.2065,-0.0212 0.592667,-0.1905 -0.529167,-0.1905 -1.058333,-0.27516 -0.550333,-0.0635 -0.486834,-0.33867 z"
       id="path6922" />
    <path
       inkscape:connector-curvature="0"
       style="fill:#4e2e16;fill-opacity:1;fill-rule:nonzero;stroke:#4e2e16;stroke-width:0.08466666px;stroke-linecap:butt;stroke-linejoin:miter;stroke-miterlimit:4;stroke-dasharray:none;stroke-opacity:1"
       d="m 95.597747,194.01511 0.973666,0.14816 0.994834,0.10584 0.550333,0.0635 1.058333,0.27516 0.529167,0.1905 -0.592667,0.1905 -1.2065,0.0212 -0.613833,-0.0635 -0.846667,-0.127 -0.8255,-0.127 -0.02117,-0.33867 z"
       id="path6924" />
  </g>
</svg>
