<?xml version="1.0" encoding="UTF-8" standalone="no"?>
<!-- Created with Inkscape (http://www.inkscape.org/) -->

<svg
   xmlns:dc="http://purl.org/dc/elements/1.1/"
   xmlns:cc="http://creativecommons.org/ns#"
   xmlns:rdf="http://www.w3.org/1999/02/22-rdf-syntax-ns#"
   xmlns:svg="http://www.w3.org/2000/svg"
   xmlns="http://www.w3.org/2000/svg"
   xmlns:sodipodi="http://sodipodi.sourceforge.net/DTD/sodipodi-0.dtd"
   xmlns:inkscape="http://www.inkscape.org/namespaces/inkscape"
   width="210mm"
   height="297mm"
   viewBox="0 0 210 297"
   version="1.1"
   id="svg9628"
   inkscape:version="0.92.2 5c3e80d, 2017-08-06"
   sodipodi:docname="cutlass1.svg">
  <defs
     id="defs9622" />
  <sodipodi:namedview
     id="base"
     pagecolor="#ffffff"
     bordercolor="#666666"
     borderopacity="1.0"
     inkscape:pageopacity="0.0"
     inkscape:pageshadow="2"
     inkscape:zoom="0.35"
     inkscape:cx="400"
     inkscape:cy="560"
     inkscape:document-units="mm"
     inkscape:current-layer="layer1"
     showgrid="false"
     inkscape:window-width="1920"
     inkscape:window-height="1080"
     inkscape:window-x="0"
     inkscape:window-y="23"
     inkscape:window-maximized="0" />
  <metadata
     id="metadata9625">
    <rdf:RDF>
      <cc:Work
         rdf:about="">
        <dc:format>image/svg+xml</dc:format>
        <dc:type
           rdf:resource="http://purl.org/dc/dcmitype/StillImage" />
        <dc:title></dc:title>
      </cc:Work>
    </rdf:RDF>
  </metadata>
  <g
     inkscape:label="Layer 1"
     inkscape:groupmode="layer"
     id="layer1">
    <path
       inkscape:connector-curvature="0"
       style="fill:#e5e5e5;fill-opacity:1;fill-rule:evenodd;stroke:#939090;stroke-width:0.08466666px;stroke-linecap:butt;stroke-linejoin:miter;stroke-miterlimit:4;stroke-dasharray:none;stroke-opacity:1"
       d="m 122.28589,160.65342 v -1.69334 l -0.29633,-3.3655 -0.254,-1.69333 0.10583,-0.0635 -0.33867,-2.30717 -0.635,-3.45016 -0.52916,-2.26484 -0.33867,-1.12183 v -0.40217 l -0.14817,-0.78316 -0.381,-1.16417 -0.23283,-0.762 -0.21167,-0.9525 -0.65616,-1.86267 -0.40217,-0.91016 0.14817,-0.1905 -1.016,-2.54 -2.07434,-5.08 -1.12183,-2.49767 -0.55033,-0.99483 -0.55034,-1.016 -0.381,-0.78317 -0.80433,-1.524 -0.508,-0.71967 -0.67733,-1.16416 -1.37584,-2.30717 -0.762,-1.10067 -1.7145,-2.54 -3.683,-4.86833 -2.984496,-3.47134 -2.0955,-2.2225 -2.159,-2.159 -2.26483,-2.07433 -1.143,-0.994832 -0.6985,-0.5715 -1.016,-0.910167 -0.74083,-0.508 -0.381,-0.232833 -0.5715,-0.550333 -1.24884,-0.994834 -1.9685,-1.354666 -1.3335,-0.867834 -1.2065,-0.804333 -2.4765,-1.481667 -2.56116,-1.3335 -2.64584,-1.2065 -1.3335,-0.550334 -0.91016,-0.381 -1.41817,-0.508 -0.9525,-0.105833 -0.508,0.105833 -0.21167,0.169334 -0.14816,0.4445 0.0847,0.486833 0.29634,0.4445 0.16933,0.169333 1.03717,0.889 0.97366,0.973667 -0.0212,0.127 0.67733,0.910167 1.16417,1.926167 0.97366,2.032 0.86784,2.074333 0.381,1.0795 0.55033,1.672169 0.97367,3.40783 0.762,3.45017 0.508,3.4925 0.127,1.778 1.4605,0.65616 2.75166,1.52401 2.64584,1.7145 2.54,1.88383 1.22766,0.99483 1.50284,1.27 2.83633,2.7305 2.64583,2.89984 2.51884,3.02683 1.206496,1.54517 1.18533,1.7145 2.2225,3.4925 2.032,3.6195 1.8415,3.72533 0.8255,1.905 0.86783,2.11667 0.80434,2.159 1.0795,3.302 0.99483,3.32316 -0.0423,0.0847 0.508,1.9685 0.78317,4.02167 0.381,2.01083 0.381,2.96334 0.29633,2.96333 -0.55033,0.16933 -0.55034,0.16934 0.55034,0.0635 0.52916,0.127 0.127,0.99483 0.21167,0.97367 0.14817,0.23283 0.381,0.42333 0.6985,0.48684 0.48683,0.29633 0.6985,-0.0847 1.41817,-0.0847 0.67733,-0.127 0.99483,-0.35983 0.99484,-0.35984 0.16933,-1.35466 0.21167,-1.35467 0.0423,-0.8255 0.0212,-0.84667 0.14816,-2.07433 0.0847,-3.15383 -0.0635,-2.0955 z m -2.794,8.382 v 0 l 0.0847,0.0635 0.0847,0.10583 -0.0847,-0.10583 z m 0.381,0.40216 0.29633,0.0423 h 0.27517 -0.27517 z"
       id="path6926" />
    <path
       inkscape:connector-curvature="0"
       style="fill:#7b5b36;fill-opacity:1;fill-rule:nonzero;stroke:#7b5b36;stroke-width:0.08466666px;stroke-linecap:butt;stroke-linejoin:miter;stroke-miterlimit:4;stroke-dasharray:none;stroke-opacity:1"
       d="m 121.75672,173.41692 0.16934,-1.35467 0.21166,-1.35467 1.12184,0.27517 2.2225,0.78317 2.11666,1.0795 1.94734,1.3335 1.73566,1.5875 1.50284,1.82033 1.2065,1.98967 0.84666,2.20133 0.27517,1.16417 h -0.23283 -0.23284 l -0.23283,-0.127 -0.23283,-0.10584 -0.0635,0.27517 -0.0635,0.254 -0.1905,0.0212 -0.16934,0.0212 -0.0635,0.8255 -0.16933,1.60866 0.0212,0.8255 v 0.33867 l -0.27517,0.59268 -0.14816,0.29633 -0.46567,-1.56634 -0.59267,-1.54517 0.0423,-0.29633 0.0212,-0.27517 -0.14816,-0.29633 -0.14817,-0.61384 -0.0847,-0.635 -0.127,-0.61383 -0.127,-0.27517 -0.29633,-0.71966 -0.71967,-1.35467 -0.86783,-1.27 -0.99484,-1.16417 -0.5715,-0.52916 -0.67733,-0.46567 -1.43933,-0.9525 -1.524,-0.762 -1.2065,-0.3175 -0.8255,-0.0847 -0.4445,0.0212 -0.0635,-0.3175 z"
       id="path6928" />
    <path
       inkscape:connector-curvature="0"
       style="fill:#7e5f39;fill-opacity:1;fill-rule:nonzero;stroke:#7e5f39;stroke-width:0.08466666px;stroke-linecap:butt;stroke-linejoin:miter;stroke-miterlimit:4;stroke-dasharray:none;stroke-opacity:1"
       d="m 108.67572,176.95175 0.0423,-0.52917 0.254,-1.03716 0.42334,-0.97367 0.5715,-0.889 0.6985,-0.80433 0.78316,-0.6985 0.91017,-0.5715 0.97367,-0.4445 0.508,-0.16934 0.55033,0.0635 0.52917,0.127 0.127,0.99484 0.21166,0.97366 0.14817,0.23284 0.381,0.42333 0.6985,0.48683 0.48683,0.29634 -0.48683,0.29633 -1.05833,0.3175 -1.10067,0.21167 -1.0795,0.3175 -0.48683,0.27516 -0.55034,0.381 -1.10066,0.8255 -0.61384,0.29634 -0.14816,0.0635 -0.27517,0.21166 -0.29633,0.42334 -0.14817,0.29633 0.127,0.1905 0.127,0.1905 -0.10583,0.10583 -0.10584,0.127 -0.27516,-0.10583 -0.42334,-0.42333 -0.23283,-0.5715 -0.0635,-0.61384 z"
       id="path6930" />
    <path
       inkscape:connector-curvature="0"
       style="fill:#8e7352;fill-opacity:1;fill-rule:nonzero;stroke:#8e7352;stroke-width:0.08466666px;stroke-linecap:butt;stroke-linejoin:miter;stroke-miterlimit:4;stroke-dasharray:none;stroke-opacity:1"
       d="m 119.76706,174.13658 0.99483,-0.35983 0.99483,-0.35983 0.0423,0.3175 0.0635,0.3175 0.4445,-0.0212 0.8255,0.0847 1.2065,0.3175 1.524,0.762 1.43934,0.9525 0.67733,0.46566 0.5715,0.52917 0.99483,1.16417 0.86784,1.27 0.71966,1.35466 0.29634,0.71967 0.127,0.27517 0.127,0.635 0.0847,0.61383 0.14816,0.61383 0.14817,0.29634 -0.0212,0.27516 -0.0423,0.29634 -0.4445,-0.67734 -1.03717,-1.2065 -1.2065,-1.05833 -1.35466,-0.86783 -0.71967,-0.33867 v -0.254 l -0.10583,-0.46567 -0.16934,-0.16933 -0.35983,-0.42333 -0.78317,-0.762 -0.889,-0.65617 -0.9525,-0.55033 -1.016,-0.4445 -1.05833,-0.3175 -1.0795,-0.1905 -1.10067,-0.0423 -0.55033,0.0212 -0.762,-0.0423 -1.48167,0.16933 -1.43933,0.40217 -1.37583,0.55033 -0.67734,0.33867 -0.65616,0.40216 -1.2065,0.93134 -0.65617,0.40216 -0.52917,-0.3175 -0.508,-0.35983 -0.127,-0.1905 -0.127,-0.1905 0.14817,-0.29633 0.29633,-0.42334 0.27517,-0.21166 0.14817,-0.0635 0.61383,-0.29634 1.10067,-0.8255 0.55033,-0.381 0.48683,-0.27516 1.0795,-0.3175 1.10067,-0.21167 1.05833,-0.3175 0.48684,-0.29633 0.6985,-0.0847 1.41816,-0.0847 z"
       id="path6932" />
    <path
       inkscape:connector-curvature="0"
       style="fill:#a1896e;fill-opacity:1;fill-rule:nonzero;stroke:#a1896e;stroke-width:0.08466666px;stroke-linecap:butt;stroke-linejoin:miter;stroke-miterlimit:4;stroke-dasharray:none;stroke-opacity:1"
       d="m 119.17439,176.25325 0.55033,-0.0212 1.10067,0.0423 1.0795,0.1905 1.05833,0.3175 1.016,0.4445 0.9525,0.55033 0.889,0.65617 0.78317,0.762 0.35983,0.42333 0.1905,0.16934 0.0847,0.46566 v 0.254 l -0.67733,-0.27516 -1.37583,-0.46567 -0.6985,-0.1905 0.16933,-0.1905 0.14817,-0.1905 -0.61384,-0.3175 -0.9525,-0.42333 -0.65616,-0.1905 -0.33867,-0.0423 -0.84667,-0.127 -1.22766,-0.33867 -0.8255,-0.10583 -0.4445,0.0635 h -0.46567 l -0.91017,0.127 -1.35466,0.29633 -0.93134,0.0847 -0.21166,0.23283 -0.508,0.381 -0.84667,0.4445 -0.55033,0.3175 -0.55034,0.0212 -1.10066,-0.0847 -0.55034,-0.127 0.65617,-0.40216 1.2065,-0.93134 0.65617,-0.40216 0.67733,-0.33867 1.37583,-0.55033 1.43934,-0.40217 1.48166,-0.16933 z"
       id="path6934" />
    <path
       inkscape:connector-curvature="0"
       style="fill:#ae9a82;fill-opacity:1;fill-rule:nonzero;stroke:#ae9a82;stroke-width:0.08466666px;stroke-linecap:butt;stroke-linejoin:miter;stroke-miterlimit:4;stroke-dasharray:none;stroke-opacity:1"
       d="m 118.89922,177.71375 0.4445,-0.0635 0.8255,0.10583 1.22767,0.33867 0.84667,0.127 0.33866,0.0423 0.65617,0.1905 0.9525,0.42333 0.61383,0.3175 -0.14816,0.1905 -0.16934,0.1905 -0.91016,-0.16933 -1.86267,-0.21167 -2.794,-0.0423 -1.86267,0.10583 -0.97366,0.0635 -1.9685,0.23284 -0.99484,0.0423 0.55034,-0.3175 0.84666,-0.4445 0.508,-0.381 0.21167,-0.23284 0.93133,-0.0847 1.35467,-0.29633 0.91017,-0.127 z"
       id="path6936" />
    <path
       inkscape:connector-curvature="0"
       style="fill:none;stroke:none;stroke-width:0.26458332"
       d="m 109.88222,178.72975 0.508,0.35983 0.52917,0.3175 0.55033,0.127 1.10067,0.0847 0.55033,-0.0212 0.99484,-0.0423 1.9685,-0.23283 0.97366,-0.0635 0.59267,0.14817 1.18533,0.10583 1.18534,0.0635 1.18533,0.1905 0.55033,0.21167 -1.8415,0.4445 -1.86266,0.35983 0.52916,0.0847 1.10067,0.0635 1.62983,-0.10583 1.0795,-0.16934 v 0.80434 0.8255 l -0.508,0.23283 -1.03716,0.27517 -1.0795,0.23283 -1.03717,0.3175 -0.48683,0.254 0.9525,0.0423 1.905,-0.0847 0.93133,0.0212 -0.42333,0.254 -0.9525,0.29633 -0.99484,0.1905 -0.9525,0.254 -0.46566,0.23284 0.52916,0.0847 1.016,0.0635 1.56634,-0.127 1.016,-0.21167 v 0.16933 l -0.0212,0.1905 -1.0795,0.29634 -1.67217,0.29633 -1.0795,0.29633 -0.52917,0.23284 0.508,0.10583 1.016,0.0847 1.50284,-0.10583 0.99483,-0.1905 0.16933,-0.33867 0.14817,-0.3175 -0.0212,1.143 0.0212,1.143 -2.159,0.52917 -2.18017,0.508 0.4445,0.21167 0.93134,0.127 0.97366,-0.0635 0.97367,-0.0635 0.46567,0.0423 -0.46567,0.254 -0.99483,0.29633 -1.03717,0.1905 -1.03717,0.23284 -0.48683,0.21166 0.99483,0.14817 1.98967,0.0423 0.99483,0.0423 -0.46566,0.1905 -0.99484,0.23283 -0.99483,0.16933 -0.9525,0.33867 -0.40217,0.29633 -0.52916,0.0423 -0.48684,0.0635 0.35984,-0.52917 0.381,-0.52917 -0.42334,-0.35983 -0.46566,-0.23283 0.61383,-0.381 0.61383,-0.35984 -0.52916,-0.254 -0.52917,-0.254 0.40217,-0.48683 0.40216,-0.46567 -0.52916,-0.254 -0.508,-0.254 0.48683,-0.381 0.48683,-0.35983 -0.35983,-0.23284 -0.35983,-0.23283 0.35983,-0.42333 0.35983,-0.42334 -0.35983,-0.254 -0.33867,-0.254 0.381,-0.46566 0.381,-0.4445 -0.40216,-0.127 -0.40217,-0.127 0.55033,-0.55034 0.5715,-0.508 -0.55033,-0.23283 -0.508,-0.23283 0.48683,-0.35984 0.48684,-0.35983 -0.40217,-0.27517 -0.42333,-0.27516 0.55033,-0.508 0.59267,-0.48684 -0.65617,-0.0212 h -0.65617 -0.67733 -0.67733 l -1.54517,0.0847 -2.30717,-0.0423 -1.12183,-0.254 -0.71967,-0.27516 -0.35983,-0.1905 0.10583,-0.127 0.10584,-0.127 0.10583,-0.10584"
       id="path6938" />
    <path
       inkscape:connector-curvature="0"
       style="fill:none;stroke:none;stroke-width:0.26458332"
       d="m 121.48156,181.29092 -0.8255,0.21166 -1.24884,0.254 -0.80433,0.254 -0.381,0.16934 0.46567,0.0847 0.9525,0.0423 1.43933,-0.127 0.93133,-0.16934 0.10584,-0.16933 v -0.29633 l -0.16934,-0.21167 -0.29633,-0.0847 -0.16933,0.0423"
       id="path6940" />
    <path
       inkscape:connector-curvature="0"
       style="fill:#745036;fill-opacity:1;fill-rule:nonzero;stroke:none;stroke-width:0.26458332"
       d="m 119.74589,186.90008 -0.46567,0.0635 -0.6985,0.16934 -0.40216,0.23283 -0.14817,0.1905 1.03717,0.0423 1.56633,-0.0847 1.016,-0.16933 0.508,-0.127 -0.0635,-0.46567 -0.0635,-0.46567 -0.55033,0.1905 -1.143,0.3175 z"
       id="path6942" />
    <path
       inkscape:connector-curvature="0"
       style="fill:none;stroke:#745036;stroke-width:0.08466666px;stroke-linecap:butt;stroke-linejoin:miter;stroke-miterlimit:4;stroke-dasharray:none;stroke-opacity:1"
       d="m 109.88222,178.72975 0.508,0.35983 0.52917,0.3175 0.55033,0.127 1.10067,0.0847 0.55033,-0.0212 0.99484,-0.0423 1.9685,-0.23283 0.97366,-0.0635 0.59267,0.14817 1.18533,0.10583 1.18534,0.0635 1.18533,0.1905 0.55033,0.21167 -1.8415,0.4445 -1.86266,0.35983 0.52916,0.0847 1.10067,0.0635 1.62983,-0.10583 1.0795,-0.16934 v 0.80434 0.8255 l -0.508,0.23283 -1.03716,0.27517 -1.0795,0.23283 -1.03717,0.3175 -0.48683,0.254 0.9525,0.0423 1.905,-0.0847 0.93133,0.0212 -0.42333,0.254 -0.9525,0.29633 -0.99484,0.1905 -0.9525,0.254 -0.46566,0.23284 0.52916,0.0847 1.016,0.0635 1.56634,-0.127 1.016,-0.21167 v 0.16933 l -0.0212,0.1905 -1.0795,0.29634 -1.67217,0.29633 -1.0795,0.29633 -0.52917,0.23284 0.508,0.10583 1.016,0.0847 1.50284,-0.10583 0.99483,-0.1905 0.16933,-0.33867 0.14817,-0.3175 -0.0212,1.143 0.0212,1.143 -2.159,0.52917 -2.18017,0.508 0.4445,0.21167 0.93134,0.127 0.97366,-0.0635 0.97367,-0.0635 0.46567,0.0423 -0.46567,0.254 -0.99483,0.29633 -1.03717,0.1905 -1.03717,0.23284 -0.48683,0.21166 0.99483,0.14817 1.98967,0.0423 0.99483,0.0423 -0.46566,0.1905 -0.99484,0.23283 -0.99483,0.16933 -0.9525,0.33867 -0.40217,0.29633 -0.52916,0.0423 -0.48684,0.0635 0.35984,-0.52917 0.381,-0.52917 -0.42334,-0.35983 -0.46566,-0.23283 0.61383,-0.381 0.61383,-0.35984 -0.52916,-0.254 -0.52917,-0.254 0.40217,-0.48683 0.40216,-0.46567 -0.52916,-0.254 -0.508,-0.254 0.48683,-0.381 0.48683,-0.35983 -0.35983,-0.23284 -0.35983,-0.23283 0.35983,-0.42333 0.35983,-0.42334 -0.35983,-0.254 -0.33867,-0.254 0.381,-0.46566 0.381,-0.4445 -0.40216,-0.127 -0.40217,-0.127 0.55033,-0.55034 0.5715,-0.508 -0.55033,-0.23283 -0.508,-0.23283 0.48683,-0.35984 0.48684,-0.35983 -0.40217,-0.27517 -0.42333,-0.27516 0.55033,-0.508 0.59267,-0.48684 -0.65617,-0.0212 h -0.65617 -0.67733 -0.67733 l -1.54517,0.0847 -2.30717,-0.0423 -1.12183,-0.254 -0.71967,-0.27516 -0.35983,-0.1905 0.10583,-0.127 0.10584,-0.127 0.10583,-0.10584"
       id="path6944" />
    <path
       inkscape:connector-curvature="0"
       style="fill:none;stroke:#745036;stroke-width:0.08466666px;stroke-linecap:butt;stroke-linejoin:miter;stroke-miterlimit:4;stroke-dasharray:none;stroke-opacity:1"
       d="m 121.48156,181.29092 -0.8255,0.21166 -1.24884,0.254 -0.80433,0.254 -0.381,0.16934 0.46567,0.0847 0.9525,0.0423 1.43933,-0.127 0.93133,-0.16934 0.10584,-0.16933 v -0.29633 l -0.16934,-0.21167 -0.29633,-0.0847 -0.16933,0.0423"
       id="path6946" />
    <path
       inkscape:connector-curvature="0"
       style="fill:none;stroke:#745036;stroke-width:0.08466666px;stroke-linecap:butt;stroke-linejoin:miter;stroke-miterlimit:4;stroke-dasharray:none;stroke-opacity:1"
       d="m 119.74589,186.90008 -0.46567,0.0635 -0.6985,0.16934 -0.40216,0.23283 -0.14817,0.1905 1.03717,0.0423 1.56633,-0.0847 1.016,-0.16933 0.508,-0.127 -0.0635,-0.46567 -0.0635,-0.46567 -0.55033,0.1905 -1.143,0.3175 z"
       id="path6948" />
    <path
       inkscape:connector-curvature="0"
       style="fill:#351c10;fill-opacity:1;fill-rule:nonzero;stroke:#351c10;stroke-width:0.08466666px;stroke-linecap:butt;stroke-linejoin:miter;stroke-miterlimit:4;stroke-dasharray:none;stroke-opacity:1"
       d="m 117.05772,179.25892 1.86267,-0.10584 2.794,0.0423 1.86267,0.21167 0.91016,0.16933 0.6985,0.1905 1.37584,0.46567 0.67733,0.27517 0.71967,0.33866 1.35466,0.86784 1.2065,1.05833 1.03717,1.2065 0.4445,0.67733 0.59267,1.54517 0.46566,1.56634 0.0635,0.67733 0.0423,1.37584 -0.127,1.37583 -0.23283,1.37583 -0.16933,0.65617 -0.381,0.93133 -0.635,1.3335 -0.52917,0.8255 -0.29633,0.40217 0.0847,-0.67733 -0.0212,-0.67734 0.381,-0.71966 0.5715,-1.524 0.3175,-1.60867 0.0847,-1.62983 -0.14817,-1.62984 -0.40217,-1.5875 -0.635,-1.48167 -0.86783,-1.37583 -0.52917,-0.635 -0.35983,-0.35984 -0.78317,-0.65616 -1.27,-0.8255 -1.86266,-0.78317 -1.9685,-0.52917 -0.99484,-0.16933 v 0.40217 0.40216 l -1.0795,0.16934 -1.62983,0.10583 -1.10067,-0.0635 -0.52916,-0.0847 1.86266,-0.35983 1.8415,-0.4445 -0.55033,-0.21167 -1.18533,-0.1905 -1.18534,-0.0635 -1.18533,-0.10583 z"
       id="path6950" />
    <path
       inkscape:connector-curvature="0"
       style="fill:#ad997c;fill-opacity:1;fill-rule:nonzero;stroke:#ad997c;stroke-width:0.08466666px;stroke-linecap:butt;stroke-linejoin:miter;stroke-miterlimit:4;stroke-dasharray:none;stroke-opacity:1"
       d="m 115.61839,179.76692 h 0.67733 0.67734 l -0.508,0.40216 -0.52917,0.40217 0.4445,0.33867 0.42333,0.33866 -0.40216,0.27517 -0.381,0.29633 0.40216,0.35984 0.40217,0.35983 -0.40217,0.29633 -0.40216,0.29634 0.254,0.40216 0.27516,0.381 -0.29633,0.33867 -0.29633,0.33867 0.48683,0.33866 0.48683,0.35984 -0.59266,0.23283 -0.59267,0.21167 -0.21167,0.0635 0.10584,-1.50284 0.0212,-3.02683 z"
       id="path6952" />
    <path
       inkscape:connector-curvature="0"
       style="fill:#a98e6c;fill-opacity:1;fill-rule:nonzero;stroke:#a98e6c;stroke-width:0.08466666px;stroke-linecap:butt;stroke-linejoin:miter;stroke-miterlimit:4;stroke-dasharray:none;stroke-opacity:1"
       d="m 116.97306,179.76692 h 0.65616 l 0.65617,0.0212 -0.59267,0.48683 -0.55033,0.508 0.42333,0.27517 0.40217,0.27516 -0.48683,0.35984 -0.48684,0.35983 0.508,0.23283 0.55034,0.23284 -0.5715,0.508 -0.55034,0.55033 0.40217,0.127 0.40217,0.127 -0.381,0.4445 -0.381,0.46567 0.33866,0.254 0.35984,0.254 -0.35984,0.42333 -0.35983,0.42333 0.35983,0.23284 0.35984,0.23283 -0.48684,0.35983 -0.48683,0.381 0.508,0.254 0.52917,0.254 -0.40217,0.46567 -0.40217,0.48683 0.52917,0.254 0.52917,0.254 -0.61384,0.35984 -0.61383,0.381 0.46567,0.23283 0.42333,0.35983 -0.381,0.52917 -0.35983,0.52917 -0.5715,-0.23284 -0.52917,-0.27516 0.35983,-0.254 0.35984,-0.27517 -0.3175,-0.4445 -0.3175,-0.42333 0.381,-0.27517 0.35983,-0.254 -0.42333,-0.29633 -0.42334,-0.29634 -0.127,-0.0847 -0.10583,-0.23284 0.0212,-0.40216 0.0212,-0.27517 0.0212,-0.46567 0.0212,-0.97366 0.10583,-0.46567 0.59267,-0.21167 0.59267,-0.23283 -0.48684,-0.35983 -0.48683,-0.33867 0.29633,-0.33867 0.29634,-0.33866 -0.27517,-0.381 -0.254,-0.40217 0.40217,-0.29633 0.40216,-0.29634 -0.40216,-0.35983 -0.40217,-0.35983 0.381,-0.29634 0.40217,-0.27516 -0.42334,-0.33867 -0.4445,-0.33867 0.52917,-0.40216 z"
       id="path6954" />
    <path
       inkscape:connector-curvature="0"
       style="fill:#4c2b13;fill-opacity:1;fill-rule:nonzero;stroke:#4c2b13;stroke-width:0.08466666px;stroke-linecap:butt;stroke-linejoin:miter;stroke-miterlimit:4;stroke-dasharray:none;stroke-opacity:1"
       d="m 121.48156,181.29092 0.16933,-0.0423 0.29633,0.0847 0.16934,0.21166 v 0.29634 l -0.10584,0.16933 -0.93133,0.16933 -1.43933,0.127 -0.9525,-0.0423 -0.46567,-0.0847 0.381,-0.16933 0.80433,-0.254 1.24884,-0.254 z"
       id="path6956" />
    <path
       inkscape:connector-curvature="0"
       style="fill:#432713;fill-opacity:1;fill-rule:nonzero;stroke:#432713;stroke-width:0.08466666px;stroke-linecap:butt;stroke-linejoin:miter;stroke-miterlimit:4;stroke-dasharray:none;stroke-opacity:1"
       d="m 118.24306,183.59808 0.48683,-0.254 1.03717,-0.3175 1.0795,-0.23283 1.03716,-0.27517 0.508,-0.23283 -0.0212,1.16417 v 1.16416 l -1.016,0.21167 -1.56633,0.127 -1.016,-0.0635 -0.52917,-0.0847 0.46567,-0.23284 0.9525,-0.254 0.99483,-0.1905 0.9525,-0.29633 0.42334,-0.254 -0.93134,-0.0212 -1.905,0.0847 z"
       id="path6958" />
    <path
       inkscape:connector-curvature="0"
       style="fill:#6d4b2c;fill-opacity:1;fill-rule:nonzero;stroke:#6d4b2c;stroke-width:0.08466666px;stroke-linecap:butt;stroke-linejoin:miter;stroke-miterlimit:4;stroke-dasharray:none;stroke-opacity:1"
       d="m 134.18156,182.70908 0.23283,0.10584 0.23283,0.127 h 0.23284 0.23283 0.0423 l 0.127,0.71966 0.16933,1.41817 0.0847,2.13784 -0.27516,2.8575 -0.635,2.794 -0.48684,1.35466 -0.1905,-0.3175 -0.21166,-0.29633 -0.40217,0.5715 -0.40217,0.5715 -0.16933,-0.74083 -0.127,-0.78317 0.16933,-0.65617 0.23284,-1.37583 0.127,-1.37583 -0.0423,-1.37584 -0.0635,-0.67733 0.14816,-0.29633 0.27517,-0.59267 v -0.33867 l -0.0212,-0.8255 0.16933,-1.60867 0.0635,-0.8255 0.16934,-0.0212 0.1905,-0.0212 0.0635,-0.254 z"
       id="path6960" />
    <path
       inkscape:connector-curvature="0"
       style="fill:#4e2d15;fill-opacity:1;fill-rule:nonzero;stroke:#4e2d15;stroke-width:0.08466666px;stroke-linecap:butt;stroke-linejoin:miter;stroke-miterlimit:4;stroke-dasharray:none;stroke-opacity:1"
       d="m 117.98906,186.09575 0.52916,-0.23283 1.0795,-0.29634 1.67217,-0.29633 1.0795,-0.29633 -0.0212,0.35983 -0.14817,0.3175 -0.16933,0.33867 -0.99483,0.1905 -1.50284,0.10583 -1.016,-0.0847 z"
       id="path6962" />
    <path
       inkscape:connector-curvature="0"
       style="fill:#492910;fill-opacity:1;fill-rule:nonzero;stroke:#492910;stroke-width:0.08466666px;stroke-linecap:butt;stroke-linejoin:miter;stroke-miterlimit:4;stroke-dasharray:none;stroke-opacity:1"
       d="m 119.74589,186.90008 0.59267,-0.10583 1.143,-0.3175 0.55033,-0.1905 0.0635,0.46567 0.0635,0.46567 -0.508,0.127 -1.016,0.16933 -1.56633,0.0847 -1.03717,-0.0423 0.14817,-0.1905 0.40216,-0.23283 0.6985,-0.16934 z"
       id="path6964" />
    <path
       inkscape:connector-curvature="0"
       style="fill:#4b2a15;fill-opacity:1;fill-rule:nonzero;stroke:#4b2a15;stroke-width:0.08466666px;stroke-linecap:butt;stroke-linejoin:miter;stroke-miterlimit:4;stroke-dasharray:none;stroke-opacity:1"
       d="m 117.98906,188.65692 2.18016,-0.508 2.159,-0.52917 v 1.43934 l -0.10583,1.43933 -0.127,1.397 0.0212,2.83633 -0.0423,1.41817 -0.1905,0.1905 -0.40217,0.29633 -0.71966,0.23284 -1.60867,0.0423 h -1.03717 l -0.16933,-0.1905 -0.14817,-0.16933 0.93134,-0.14817 1.41816,-0.254 0.93134,-0.29633 0.42333,-0.1905 -1.778,-0.0212 -1.778,-0.127 0.4445,-0.254 0.97367,-0.29633 1.016,-0.21167 0.97366,-0.29633 0.4445,-0.254 -0.635,0.0212 -1.29116,0.127 -0.635,0.14817 -0.80434,-0.0635 -0.78316,-0.10583 0.14816,-0.27517 0.42334,-0.33867 0.78316,-0.23283 1.16417,-0.0423 0.84667,-0.14817 0.508,-0.254 0.23283,-0.1905 -1.0795,0.127 -1.62983,0.127 -1.0795,-0.0635 -0.52917,-0.127 0.3175,-0.3175 0.762,-0.381 1.27,-0.254 0.86783,-0.16933 -1.37583,-0.10584 -1.35467,-0.127 0.40217,-0.29633 0.9525,-0.33867 0.99483,-0.16933 0.99484,-0.23283 0.46566,-0.1905 -0.99483,-0.0423 -1.98967,-0.0423 -0.99483,-0.14817 0.48683,-0.21166 1.03717,-0.23284 1.03717,-0.1905 0.99483,-0.29633 0.46567,-0.254 -0.46567,-0.0423 -0.97367,0.0635 -0.97366,0.0635 -0.93134,-0.127 z"
       id="path6966" />
    <path
       inkscape:connector-curvature="0"
       style="fill:#aa9172;fill-opacity:1;fill-rule:nonzero;stroke:#aa9172;stroke-width:0.08466666px;stroke-linecap:butt;stroke-linejoin:miter;stroke-miterlimit:4;stroke-dasharray:none;stroke-opacity:1"
       d="m 115.53372,191.06992 0.0423,-0.61383 -0.0212,-0.93134 0.10584,-0.61383 0.127,-0.27517 0.42333,0.29634 0.42333,0.29633 -0.35983,0.254 -0.381,0.27517 0.3175,0.42333 0.3175,0.4445 -0.35983,0.27517 -0.35984,0.254 0.52917,0.27516 0.5715,0.23284 -0.1905,0.29633 -0.508,0.48683 -0.27517,0.21167 0.508,0.29633 0.508,0.29634 -0.52916,0.35983 -0.508,0.35983 0.46566,0.35984 0.48684,0.35983 -0.52917,0.29633 -0.508,0.29634 0.42333,0.29633 0.4445,0.29633 -0.42333,0.381 -0.42333,0.381 0.381,0.127 0.381,0.14817 0.254,0.14817 0.254,0.14816 -0.14817,0.46567 -0.16933,0.48683 0.4445,0.21167 0.4445,0.21167 -0.65617,0.42333 -0.65617,0.4445 0.55034,0.23283 0.55033,0.23284 -0.5715,0.40216 -0.5715,0.40217 0.61383,0.23283 0.61384,0.254 -0.3175,0.33867 -0.74084,0.50799 -0.4445,0.14817 -0.46566,-0.31749 -0.42334,-0.35984 0.0847,-0.71966 0.0847,-1.48167 -0.0212,-2.2225 0.0423,-1.4605 0.0212,-1.143 -0.0212,-1.73567 0.0635,-1.12183 z"
       id="path6968" />
    <path
       inkscape:connector-curvature="0"
       style="fill:#8c6b4d;fill-opacity:1;fill-rule:nonzero;stroke:#8c6b4d;stroke-width:0.08466666px;stroke-linecap:butt;stroke-linejoin:miter;stroke-miterlimit:4;stroke-dasharray:none;stroke-opacity:1"
       d="m 116.90956,191.66259 0.48683,-0.0635 0.52917,-0.0423 1.35466,0.127 1.37584,0.10584 -0.86784,0.16933 -1.27,0.254 -0.762,0.381 -0.3175,0.3175 0.52917,0.127 1.0795,0.0635 1.62983,-0.127 1.0795,-0.127 -0.23283,0.1905 -0.508,0.254 -0.84667,0.14817 -1.16416,0.0423 -0.78317,0.23283 -0.42333,0.33867 -0.14817,0.27517 0.78317,0.10583 0.80433,0.0635 -0.889,0.33867 -0.84667,0.381 0.127,0.42333 0.14817,0.42333 -0.59267,0.42334 -0.5715,0.42333 -0.381,-0.14817 -0.381,-0.127 0.42334,-0.381 0.42333,-0.381 -0.4445,-0.29633 -0.42333,-0.29633 0.508,-0.29634 0.52916,-0.29633 -0.48683,-0.35983 -0.46567,-0.35984 0.508,-0.35983 0.52917,-0.35983 -0.508,-0.29634 -0.508,-0.29633 0.27517,-0.21167 0.508,-0.48683 z"
       id="path6970" />
    <path
       inkscape:connector-curvature="0"
       style="fill:#5f4125;fill-opacity:1;fill-rule:nonzero;stroke:#5f4125;stroke-width:0.08466666px;stroke-linecap:butt;stroke-linejoin:miter;stroke-miterlimit:4;stroke-dasharray:none;stroke-opacity:1"
       d="m 130.79489,196.72142 0.29633,-0.40217 0.52917,-0.8255 0.635,-1.3335 0.381,-0.93133 0.127,0.78317 0.16933,0.74083 0.40217,-0.5715 0.40217,-0.5715 0.21166,0.29633 0.1905,0.3175 -0.27516,0.67734 -0.65617,1.31233 -0.78317,1.27 -0.889,1.16417 -1.016,1.0795 -1.10066,0.97366 -1.18534,0.86784 -1.29116,0.74082 -0.65617,0.3175 -0.71967,0.3175 -1.4605,0.55033 -2.24366,0.635 -3.06917,0.46567 -3.13267,0.16933 -1.54516,-0.0423 -0.42334,-0.0847 -0.65616,-0.4445 -0.4445,-0.67733 -0.23284,-0.80433 -0.0423,-0.40217 0.59267,0.40217 0.65617,0.33866 1.16416,0.16934 2.413,0.0847 2.413,-0.21166 2.37067,-0.508 2.26483,-0.78316 2.13784,-1.10067 1.9685,-1.37583 1.73566,-1.651 z"
       id="path6972" />
    <path
       inkscape:connector-curvature="0"
       style="fill:none;stroke:none;stroke-width:0.26458332"
       d="m 119.23789,194.49892 0.635,-0.14817 1.29117,-0.127 0.635,-0.0212 -0.4445,0.254 -0.97367,0.29633 -1.016,0.21167 -0.97367,0.29633 -0.4445,0.254 1.778,0.127 1.778,0.0212 -0.42333,0.1905 -0.93133,0.29633 -1.41817,0.254 -0.93133,0.14817 0.14816,0.16933 0.16934,0.1905 h 1.03716 l 1.60867,-0.0423 0.71967,-0.23284 0.40216,-0.29633 0.1905,-0.1905 -0.0212,2.4765 0.0212,2.4765 0.21167,0.127 -0.40217,0.254 -0.61383,0.3175 -0.42333,0.127 -0.254,-0.0212 -1.12184,0.0847 -1.69333,0.23282 -1.143,0.0423 -0.5715,-0.0635 0.4445,-0.14817 0.74083,-0.50799 0.3175,-0.33867 -0.61383,-0.254 -0.61383,-0.23283 0.5715,-0.40217 0.5715,-0.40216 -0.55034,-0.23284 -0.55033,-0.23283 0.65617,-0.4445 0.65616,-0.42333 -0.4445,-0.21167 -0.4445,-0.21167 0.16934,-0.48683 0.14816,-0.46567 -0.254,-0.14816 -0.254,-0.14817 0.5715,-0.42333 0.59267,-0.42334 -0.14817,-0.42333 -0.127,-0.42333 0.84667,-0.381 0.889,-0.33867"
       id="path6974" />
    <path
       inkscape:connector-curvature="0"
       style="fill:none;stroke:none;stroke-width:0.26458332"
       d="m 117.77739,197.92792 0.14817,0.1905 0.42333,0.21167 0.27517,-0.0212 0.80433,-0.0212 1.2065,-0.0847 0.78317,-0.16934 0.381,-0.14816 -0.0212,-0.42334 -0.0212,-0.4445 -0.46567,0.21167 -0.99483,0.254 -1.524,0.21167 -0.99484,0.23283"
       id="path6976" />
    <path
       inkscape:connector-curvature="0"
       style="fill:none;stroke:none;stroke-width:0.26458332"
       d="m 117.96789,199.28259 0.1905,0.14816 0.1905,0.14817 0.86783,0.0847 1.778,-0.127 0.84667,-0.21167 -0.0423,-0.4445 -0.0423,-0.4445 -0.93133,0.254 -1.905,0.4445 -0.9525,0.14817"
       id="path6978" />
    <path
       inkscape:connector-curvature="0"
       style="fill:#6f4b32;fill-opacity:1;fill-rule:nonzero;stroke:none;stroke-width:0.26458332"
       d="m 117.73506,200.80659 0.508,0.0847 0.99483,0.0635 1.016,-0.0212 0.99483,-0.14817 0.48684,-0.14817 0.0423,-0.33866 0.0423,-0.33867 -1.03717,0.14817 -1.54517,0.23283 -1.016,0.254 z"
       id="path6980" />
    <path
       inkscape:connector-curvature="0"
       style="fill:none;stroke:#6f4b32;stroke-width:0.08466666px;stroke-linecap:butt;stroke-linejoin:miter;stroke-miterlimit:4;stroke-dasharray:none;stroke-opacity:1"
       d="m 119.23789,194.49892 0.635,-0.14817 1.29117,-0.127 0.635,-0.0212 -0.4445,0.254 -0.97367,0.29633 -1.016,0.21167 -0.97367,0.29633 -0.4445,0.254 1.778,0.127 1.778,0.0212 -0.42333,0.1905 -0.93133,0.29633 -1.41817,0.254 -0.93133,0.14817 0.14816,0.16933 0.16934,0.1905 h 1.03716 l 1.60867,-0.0423 0.71967,-0.23284 0.40216,-0.29633 0.1905,-0.1905 -0.0212,2.4765 0.0212,2.4765 0.21167,0.127 -0.40217,0.254 -0.61383,0.3175 -0.42333,0.127 -0.254,-0.0212 -1.12184,0.0847 -1.69333,0.23282 -1.143,0.0423 -0.5715,-0.0635 0.4445,-0.14817 0.74083,-0.50799 0.3175,-0.33867 -0.61383,-0.254 -0.61383,-0.23283 0.5715,-0.40217 0.5715,-0.40216 -0.55034,-0.23284 -0.55033,-0.23283 0.65617,-0.4445 0.65616,-0.42333 -0.4445,-0.21167 -0.4445,-0.21167 0.16934,-0.48683 0.14816,-0.46567 -0.254,-0.14816 -0.254,-0.14817 0.5715,-0.42333 0.59267,-0.42334 -0.14817,-0.42333 -0.127,-0.42333 0.84667,-0.381 0.889,-0.33867"
       id="path6982" />
    <path
       inkscape:connector-curvature="0"
       style="fill:none;stroke:#6f4b32;stroke-width:0.08466666px;stroke-linecap:butt;stroke-linejoin:miter;stroke-miterlimit:4;stroke-dasharray:none;stroke-opacity:1"
       d="m 117.77739,197.92792 0.14817,0.1905 0.42333,0.21167 0.27517,-0.0212 0.80433,-0.0212 1.2065,-0.0847 0.78317,-0.16934 0.381,-0.14816 -0.0212,-0.42334 -0.0212,-0.4445 -0.46567,0.21167 -0.99483,0.254 -1.524,0.21167 -0.99484,0.23283"
       id="path6984" />
    <path
       inkscape:connector-curvature="0"
       style="fill:none;stroke:#6f4b32;stroke-width:0.08466666px;stroke-linecap:butt;stroke-linejoin:miter;stroke-miterlimit:4;stroke-dasharray:none;stroke-opacity:1"
       d="m 117.96789,199.28259 0.1905,0.14816 0.1905,0.14817 0.86783,0.0847 1.778,-0.127 0.84667,-0.21167 -0.0423,-0.4445 -0.0423,-0.4445 -0.93133,0.254 -1.905,0.4445 -0.9525,0.14817"
       id="path6986" />
    <path
       inkscape:connector-curvature="0"
       style="fill:none;stroke:#6f4b32;stroke-width:0.08466666px;stroke-linecap:butt;stroke-linejoin:miter;stroke-miterlimit:4;stroke-dasharray:none;stroke-opacity:1"
       d="m 117.73506,200.80659 0.508,0.0847 0.99483,0.0635 1.016,-0.0212 0.99483,-0.14817 0.48684,-0.14817 0.0423,-0.33866 0.0423,-0.33867 -1.03717,0.14817 -1.54517,0.23283 -1.016,0.254 z"
       id="path6988" />
    <path
       inkscape:connector-curvature="0"
       style="fill:#050000;fill-opacity:1;fill-rule:nonzero;stroke:#050000;stroke-width:0.08466666px;stroke-linecap:butt;stroke-linejoin:miter;stroke-miterlimit:4;stroke-dasharray:none;stroke-opacity:1"
       d="m 130.85839,195.36675 0.0212,0.67734 -0.0847,0.67733 -0.762,0.9525 -1.73567,1.651 -1.9685,1.37583 -2.13783,1.10067 -2.26483,0.78316 -2.37067,0.508 -2.413,0.21166 -2.413,-0.0847 -1.16417,-0.16934 -0.65616,-0.33866 -0.59267,-0.40217 0.0635,-0.254 0.21167,-0.35982 0.29633,-0.254 0.35983,-0.14817 0.65617,-0.0635 0.86783,0.16933 0.40217,0.127 0.42333,0.35984 0.46567,0.31749 0.5715,0.0635 1.143,-0.0423 1.69333,-0.23282 1.12184,-0.0847 0.254,0.0212 0.42333,-0.127 0.61383,-0.3175 0.40217,-0.254 1.27,-0.381 1.8415,-0.762 1.18533,-0.635 1.12184,-0.71967 1.03716,-0.80433 0.93134,-0.93133 0.8255,-1.05834 z"
       id="path6990" />
    <path
       inkscape:connector-curvature="0"
       style="fill:#502e17;fill-opacity:1;fill-rule:nonzero;stroke:#502e17;stroke-width:0.08466666px;stroke-linecap:butt;stroke-linejoin:miter;stroke-miterlimit:4;stroke-dasharray:none;stroke-opacity:1"
       d="m 117.77739,197.92792 0.99483,-0.23283 1.524,-0.21167 0.99484,-0.254 0.46566,-0.21167 0.0212,0.4445 0.0212,0.42334 -0.381,0.14816 -0.78316,0.16934 -1.2065,0.0847 -0.80434,0.0212 -0.27516,0.0212 -0.42334,-0.21167 z"
       id="path6992" />
    <path
       inkscape:connector-curvature="0"
       style="fill:#4d2b16;fill-opacity:1;fill-rule:nonzero;stroke:#4d2b16;stroke-width:0.08466666px;stroke-linecap:butt;stroke-linejoin:miter;stroke-miterlimit:4;stroke-dasharray:none;stroke-opacity:1"
       d="m 117.96789,199.28259 0.9525,-0.14817 1.905,-0.4445 0.93133,-0.254 0.0423,0.4445 0.0423,0.4445 -0.84666,0.21167 -1.778,0.127 -0.86784,-0.0847 -0.1905,-0.14817 z"
       id="path6994" />
    <path
       inkscape:connector-curvature="0"
       style="fill:#4b2b15;fill-opacity:1;fill-rule:nonzero;stroke:#4b2b15;stroke-width:0.08466666px;stroke-linecap:butt;stroke-linejoin:miter;stroke-miterlimit:4;stroke-dasharray:none;stroke-opacity:1"
       d="m 117.73506,200.80659 0.48683,-0.21167 1.016,-0.254 1.54517,-0.23283 1.03716,-0.14817 -0.0423,0.33867 -0.0423,0.33866 -0.48683,0.14817 -0.99483,0.14817 -1.016,0.0212 -0.99484,-0.0635 z"
       id="path6996" />
  </g>
</svg>
