<?xml version="1.0" encoding="UTF-8" standalone="no"?>
<!-- Created with Inkscape (http://www.inkscape.org/) -->

<svg
   xmlns:dc="http://purl.org/dc/elements/1.1/"
   xmlns:cc="http://creativecommons.org/ns#"
   xmlns:rdf="http://www.w3.org/1999/02/22-rdf-syntax-ns#"
   xmlns:svg="http://www.w3.org/2000/svg"
   xmlns="http://www.w3.org/2000/svg"
   xmlns:sodipodi="http://sodipodi.sourceforge.net/DTD/sodipodi-0.dtd"
   xmlns:inkscape="http://www.inkscape.org/namespaces/inkscape"
   width="210mm"
   height="297mm"
   viewBox="0 0 210 297"
   version="1.1"
   id="svg7948"
   inkscape:version="0.92.2 5c3e80d, 2017-08-06"
   sodipodi:docname="pirateship1.svg">
  <defs
     id="defs7942" />
  <sodipodi:namedview
     id="base"
     pagecolor="#ffffff"
     bordercolor="#666666"
     borderopacity="1.0"
     inkscape:pageopacity="0.0"
     inkscape:pageshadow="2"
     inkscape:zoom="0.35"
     inkscape:cx="400"
     inkscape:cy="560"
     inkscape:document-units="mm"
     inkscape:current-layer="layer1"
     showgrid="false"
     inkscape:window-width="1920"
     inkscape:window-height="1080"
     inkscape:window-x="0"
     inkscape:window-y="23"
     inkscape:window-maximized="0" />
  <metadata
     id="metadata7945">
    <rdf:RDF>
      <cc:Work
         rdf:about="">
        <dc:format>image/svg+xml</dc:format>
        <dc:type
           rdf:resource="http://purl.org/dc/dcmitype/StillImage" />
        <dc:title></dc:title>
      </cc:Work>
    </rdf:RDF>
  </metadata>
  <g
     inkscape:label="Layer 1"
     inkscape:groupmode="layer"
     id="layer1">
    <path
       inkscape:connector-curvature="0"
       style="fill:#4e4a45;fill-opacity:1;fill-rule:nonzero;stroke:#4e4a45;stroke-width:0.08466666px;stroke-linecap:butt;stroke-linejoin:miter;stroke-miterlimit:4;stroke-dasharray:none;stroke-opacity:1"
       d="m 143.71216,44.408518 0.0423,-0.508 0.1905,-0.78317 0.254,-0.42333 0.21166,-0.1905 0.16934,0.35983 0.14816,0.762 0.0212,0.40217 -0.508,0.21166 z"
       id="path6998" />
    <path
       inkscape:connector-curvature="0"
       style="fill:none;stroke:none;stroke-width:0.26458332"
       d="m 134.77983,43.604178 0.635,0.0212 1.22767,-0.127 1.8415,-0.3175 1.24883,-0.10583 -0.0423,1.92616 -0.127,1.905 0.635,0.127 1.22766,0.4445 0.52917,0.381 -1.016,-0.21166 -1.016,-0.254 -0.127,0.4445 -0.127,0.889 0.0212,1.37583 0.127,0.91017 -0.3175,0.0423 -0.3175,0.0212 0.10583,-1.98967 0.0847,-1.98967 -1.22767,0.0423 h -2.43417 l -1.22766,-0.0635 -0.0423,-0.4445 v -0.86784 l 0.16934,-1.31233 0.16933,-0.84667"
       id="path7000" />
    <path
       inkscape:connector-curvature="0"
       style="fill:#d6a297;fill-opacity:1;fill-rule:nonzero;stroke:none;stroke-width:0.26458332"
       d="m 138.82266,43.498348 -0.91016,0.16933 -1.82034,0.21167 -0.91016,0.16933 -0.16934,0.254 -0.21166,0.635 -0.0635,0.67734 0.10583,0.65616 0.14817,0.27517 0.46566,0.10583 0.99484,0.10584 h 1.48166 l 0.97367,-0.10584 0.16933,-0.27516 0.16934,-0.59267 0.0635,-0.97367 v -0.61383 -0.23283 l -0.16934,-0.35984 -0.1905,-0.10583 z"
       id="path7002" />
    <path
       inkscape:connector-curvature="0"
       style="fill:none;stroke:#d6a297;stroke-width:0.08466666px;stroke-linecap:butt;stroke-linejoin:miter;stroke-miterlimit:4;stroke-dasharray:none;stroke-opacity:1"
       d="m 134.77983,43.604178 0.635,0.0212 1.22767,-0.127 1.8415,-0.3175 1.24883,-0.10583 -0.0423,1.92616 -0.127,1.905 0.635,0.127 1.22766,0.4445 0.52917,0.381 -1.016,-0.21166 -1.016,-0.254 -0.127,0.4445 -0.127,0.889 0.0212,1.37583 0.127,0.91017 -0.3175,0.0423 -0.3175,0.0212 0.10583,-1.98967 0.0847,-1.98967 -1.22767,0.0423 h -2.43417 l -1.22766,-0.0635 -0.0423,-0.4445 v -0.86784 l 0.16934,-1.31233 0.16933,-0.84667"
       id="path7004" />
    <path
       inkscape:connector-curvature="0"
       style="fill:none;stroke:#d6a297;stroke-width:0.08466666px;stroke-linecap:butt;stroke-linejoin:miter;stroke-miterlimit:4;stroke-dasharray:none;stroke-opacity:1"
       d="m 138.82266,43.498348 -0.91016,0.16933 -1.82034,0.21167 -0.91016,0.16933 -0.16934,0.254 -0.21166,0.635 -0.0635,0.67734 0.10583,0.65616 0.14817,0.27517 0.46566,0.10583 0.99484,0.10584 h 1.48166 l 0.97367,-0.10584 0.16933,-0.27516 0.16934,-0.59267 0.0635,-0.97367 v -0.61383 -0.23283 l -0.16934,-0.35984 -0.1905,-0.10583 z"
       id="path7006" />
    <path
       inkscape:connector-curvature="0"
       style="fill:#566e85;fill-opacity:1;fill-rule:nonzero;stroke:#566e85;stroke-width:0.08466666px;stroke-linecap:butt;stroke-linejoin:miter;stroke-miterlimit:4;stroke-dasharray:none;stroke-opacity:1"
       d="m 139.73283,43.075018 0.27517,-0.0212 0.52916,0.0212 0.762,0.254 0.93134,0.48683 0.97366,0.48683 0.508,0.10584 0.52917,-0.16934 0.508,-0.21166 -0.16933,1.29116 -0.23284,2.6035 -0.16933,1.29117 -1.12183,-0.635 -1.10067,-0.71967 -0.52917,-0.381 -1.22766,-0.4445 -0.635,-0.127 0.127,-1.905 z"
       id="path7008" />
    <path
       inkscape:connector-curvature="0"
       style="fill:#f49981;fill-opacity:1;fill-rule:nonzero;stroke:#f49981;stroke-width:0.08466666px;stroke-linecap:butt;stroke-linejoin:miter;stroke-miterlimit:4;stroke-dasharray:none;stroke-opacity:1"
       d="m 138.82266,43.498348 h 0.127 l 0.1905,0.10583 0.16934,0.35984 v 0.23283 0.61383 l -0.0635,0.97367 -0.16934,0.59267 -0.16933,0.27516 -0.97367,0.10584 H 136.452 l -0.99484,-0.10584 -0.46566,-0.10583 -0.14817,-0.27517 -0.10583,-0.65616 0.0635,-0.67734 0.21166,-0.635 0.16934,-0.254 0.91016,-0.16933 1.82034,-0.21167 z"
       id="path7010" />
    <path
       inkscape:connector-curvature="0"
       style="fill:#556f86;fill-opacity:1;fill-rule:nonzero;stroke:#556f86;stroke-width:0.08466666px;stroke-linecap:butt;stroke-linejoin:miter;stroke-miterlimit:4;stroke-dasharray:none;stroke-opacity:1"
       d="m 134.4835,47.075518 1.22766,0.0635 h 2.43417 l 1.22767,-0.0423 -0.0847,1.98967 -0.10583,1.98967 -0.889,0.21166 -1.73567,0.5715 -0.91017,0.16934 h -0.3175 l -0.5715,-0.16934 -0.48683,-0.381 -0.40217,-0.48683 -0.14816,-0.254 0.29633,-0.381 0.42333,-0.889 0.1905,-0.93133 -0.0423,-0.97367 z"
       id="path7012" />
    <path
       inkscape:connector-curvature="0"
       style="fill:#f39a80;fill-opacity:1;fill-rule:nonzero;stroke:#f39a80;stroke-width:0.08466666px;stroke-linecap:butt;stroke-linejoin:miter;stroke-miterlimit:4;stroke-dasharray:none;stroke-opacity:1"
       d="m 139.92333,47.393018 1.016,0.254 1.016,0.21166 1.10067,0.71967 1.12183,0.635 -0.0635,0.74083 -0.127,1.48167 -0.21167,0.71967 -0.10583,0.33866 -0.127,0.3175 -0.48683,0.0423 -0.48684,0.0212 -0.42333,-0.10583 -0.71967,-0.40217 -0.9525,-0.8255 -0.65616,-0.52916 -0.127,-0.91017 -0.0212,-1.37583 0.127,-0.889 z"
       id="path7014" />
    <path
       inkscape:connector-curvature="0"
       style="fill:#493724;fill-opacity:1;fill-rule:nonzero;stroke:#493724;stroke-width:0.08466666px;stroke-linecap:butt;stroke-linejoin:miter;stroke-miterlimit:4;stroke-dasharray:none;stroke-opacity:1"
       d="m 143.54283,52.811678 0.127,-0.3175 0.10583,-0.33866 -0.16933,1.651 -0.0423,1.67216 0.381,0.10584 0.71966,0.29633 0.33867,0.1905 -0.33867,0.23283 -0.80433,0.21167 -0.42333,0.0212 -0.635,6.94267 -0.59267,6.94266 -1.31233,-0.21166 -1.31234,-0.10584 0.508,-3.429 1.2065,-6.81566 0.55034,-3.429 -0.4445,-0.127 -0.67734,-0.21167 -0.29633,-0.29633 -0.0423,-0.254 0.86783,-0.14817 0.84667,-0.0847 0.21166,-1.22767 0.254,-1.2065 0.48684,-0.0212 z"
       id="path7016" />
    <path
       inkscape:connector-curvature="0"
       style="fill:#413121;fill-opacity:1;fill-rule:nonzero;stroke:#413121;stroke-width:0.08466666px;stroke-linecap:butt;stroke-linejoin:miter;stroke-miterlimit:4;stroke-dasharray:none;stroke-opacity:1"
       d="m 136.79066,70.253018 0.67734,-0.14817 1.41816,-0.0212 0.6985,0.0212 1.31234,0.10583 1.31233,0.21167 0.61383,0.10583 1.22767,0.381 0.52917,0.33867 v 0.3175 l -0.10584,0.635 -0.3175,0.86783 -0.762,0.9525 -0.762,0.508 -0.59266,0.23284 -0.29634,0.0847 -0.127,1.4605 -0.14816,1.43933 -1.3335,-0.35983 -1.3335,-0.33867 -0.33867,-0.0635 0.127,-1.18533 0.23283,-1.16417 -0.55033,-0.35983 -0.86783,-0.9525 -0.52917,-1.18534 -0.16933,-0.9525 0.0212,-0.635 z"
       id="path7018" />
    <path
       inkscape:connector-curvature="0"
       style="fill:#97897e;fill-opacity:1;fill-rule:nonzero;stroke:#97897e;stroke-width:0.08466666px;stroke-linecap:butt;stroke-linejoin:miter;stroke-miterlimit:4;stroke-dasharray:none;stroke-opacity:1"
       d="m 124.97966,74.782678 0.40217,-0.16933 0.61383,-0.21167 0.42334,-0.0212 0.23283,0.0635 4.5085,1.016 4.52967,1.016 0.762,0.16934 1.56633,0.33866 0.78317,0.0635 1.3335,0.33867 1.3335,0.35983 3.32316,0.80434 6.68867,1.524 3.32317,0.84666 -0.80434,0.97367 -1.10066,1.56633 -0.59267,1.12184 -0.23283,0.59266 -0.29634,0.84667 -0.48683,1.7145 -0.3175,1.75683 -0.16933,1.75684 -0.0635,2.68816 0.23283,3.57717 0.21167,1.75683 0.1905,1.185342 0.52916,2.3495 0.762,2.28599 0.9525,2.20133 0.55034,1.0795 0.48683,0.9525 0.99483,1.905 0.35984,0.99483 -1.73567,-1.16416 -3.59833,-2.18017 -3.683,-2.01083 -3.76767,-1.86267 -1.905,-0.86782 -0.0212,0.67732 -0.127,1.31233 v 0.67734 l -0.23283,-0.10584 -0.21167,-0.10583 0.33867,0.127 0.0847,-1.35467 0.0635,-1.37582 -1.524,-0.762 -1.56634,-0.67733 -0.10583,0.33866 -0.10583,0.33867 v -0.4445 -0.4445 l -1.22767,-0.61383 -1.22767,-0.55034 -0.59266,-0.14816 -0.59267,-0.127 -0.127,0.97366 -0.127,1.9685 v 0.97366 l -0.0847,-0.0212 -0.0635,-0.52916 v -1.03716 l 0.1905,-1.56634 0.0847,-1.05833 -4.699,-2.053172 -7.13317,-2.921 -4.80483,-1.8415 -2.413,-0.86783 -1.12183,-0.381 -1.69334,-0.48683 -1.16417,-0.1905 -0.59266,-0.0212 h -1.143 l -2.26484,0.381 -2.13783,0.74083 -2.01083,1.0795 -0.91017,0.6985 0.10583,-0.6985 0.35984,-1.35467 0.508,-1.27 0.65616,-1.22766 1.16417,-1.73567 1.86267,-2.0955 0.97366,-0.97367 0.9525,-0.84666 1.9685,-1.60867 2.07434,-1.50283 2.11667,-1.397 3.302,-1.92617 4.55083,-2.286 z"
       id="path7020" />
    <path
       inkscape:connector-curvature="0"
       style="fill:#f1eec9;fill-opacity:1;fill-rule:nonzero;stroke:#f1eec9;stroke-width:0.08466666px;stroke-linecap:butt;stroke-linejoin:miter;stroke-miterlimit:4;stroke-dasharray:none;stroke-opacity:1"
       d="m 159.312,82.233348 0.21166,-0.74083 0.40217,-1.16417 0.46567,-0.59267 0.35983,-0.1905 0.27517,0.16934 0.48683,0.42333 0.4445,0.48683 0.48683,0.4445 0.29634,0.14817 0.84666,0.0847 0.889,0.0423 -0.27516,0.0847 -0.27517,0.0847 -0.21167,0.71967 -0.381,1.4605 -0.3175,0.65616 -0.55033,-0.0847 -0.9525,-0.46566 -0.86783,-0.65617 -0.86784,-0.65617 z"
       id="path7022" />
    <path
       inkscape:connector-curvature="0"
       style="fill:#4a3723;fill-opacity:1;fill-rule:nonzero;stroke:#4a3723;stroke-width:0.08466666px;stroke-linecap:butt;stroke-linejoin:miter;stroke-miterlimit:4;stroke-dasharray:none;stroke-opacity:1"
       d="m 169.26033,81.513678 0.14817,-0.4445 0.21166,-0.42333 -0.0423,1.27 -0.254,2.51883 -0.61383,3.7465 -0.508,2.49767 -0.14817,0.55033 -0.127,1.143 v 1.73567 l -0.0847,1.16417 -0.254,2.667 -0.65616,5.312832 -1.16417,7.93749 -0.80433,5.31283 -0.74084,-0.3175 -1.16416,-0.381 -0.6985,-0.35983 -0.3175,-0.27517 0.97366,-5.0165 1.4605,-7.53532 1.10067,-4.995332 0.635,-2.4765 0.16933,-0.67734 0.48684,-1.35466 0.508,-1.3335 0.33866,-1.37584 0.0212,-0.71966 0.254,-1.778 0.27517,-1.778 0.14816,-0.86784 0.16934,-0.86783 0.29633,-1.4605 z"
       id="path7024" />
    <path
       inkscape:connector-curvature="0"
       style="fill:#ef9b81;fill-opacity:1;fill-rule:nonzero;stroke:#ef9b81;stroke-width:0.08466666px;stroke-linecap:butt;stroke-linejoin:miter;stroke-miterlimit:4;stroke-dasharray:none;stroke-opacity:1"
       d="m 164.47666,81.344348 0.40217,-0.0847 0.42333,-0.0847 -0.16933,0.84667 -0.4445,1.67216 -0.23283,0.80434 2.05316,-0.0212 2.07434,-0.0847 -0.16934,0.86783 -0.14816,0.86783 -2.18017,0.254 -2.18017,0.21167 -0.42333,1.524 -0.42333,1.50283 h -0.65617 -0.65617 l 0.21167,-0.78316 0.35983,-1.60867 0.10584,-0.8255 -0.55034,-0.14817 -1.03716,-0.40216 -0.91017,-0.59267 -0.80433,-0.78317 -0.3175,-0.46566 0.254,-0.889 0.254,-0.889 0.46566,0.254 0.86784,0.65616 0.86783,0.65617 0.9525,0.46567 0.55033,0.0847 0.3175,-0.65617 0.381,-1.4605 0.21167,-0.71967 0.27517,-0.0847 z"
       id="path7026" />
    <path
       inkscape:connector-curvature="0"
       style="fill:#f2edc9;fill-opacity:1;fill-rule:nonzero;stroke:#f2edc9;stroke-width:0.08466666px;stroke-linecap:butt;stroke-linejoin:miter;stroke-miterlimit:4;stroke-dasharray:none;stroke-opacity:1"
       d="m 165.30216,81.175018 0.42334,-0.0423 0.86783,0.0212 0.86783,0.10583 0.8255,0.254 0.40217,0.1905 0.27517,-0.10583 0.29633,-0.0847 -0.381,1.41816 -0.29633,1.4605 -2.07434,0.0847 -2.05316,0.0212 0.23283,-0.80433 0.4445,-1.67217 z"
       id="path7028" />
    <path
       inkscape:connector-curvature="0"
       style="fill:#f2eec9;fill-opacity:1;fill-rule:nonzero;stroke:#f2eec9;stroke-width:0.08466666px;stroke-linecap:butt;stroke-linejoin:miter;stroke-miterlimit:4;stroke-dasharray:none;stroke-opacity:1"
       d="m 48.75849,83.228178 0.48684,-0.0635 0.9525,0.0847 0.91016,0.3175 0.86784,0.4445 0.40216,0.254 0.4445,0.61384 1.016,1.10066 0.4445,0.59267 -0.4445,-0.254 -0.46566,-0.254 -0.1905,0.6985 -0.21167,0.71967 -0.99483,-0.65617 -1.5875,-0.84667 -1.12184,-0.33866 -0.61383,-0.0423 -0.0635,-0.61384 -0.127,-0.9525 0.127,-0.5715 z"
       id="path7030" />
    <path
       inkscape:connector-curvature="0"
       style="fill:#f2edc9;fill-opacity:1;fill-rule:nonzero;stroke:#f2edc9;stroke-width:0.08466666px;stroke-linecap:butt;stroke-linejoin:miter;stroke-miterlimit:4;stroke-dasharray:none;stroke-opacity:1"
       d="m 158.804,84.011348 0.3175,0.46567 0.80433,0.78316 0.91017,0.59267 1.03716,0.40217 0.55034,0.14816 -0.10584,0.8255 -0.35983,1.60867 -0.21167,0.78317 -0.46566,-0.10584 -0.86784,-0.381 -0.80433,-0.52916 -0.6985,-0.65617 -0.29633,-0.381 -0.14817,-0.42333 -0.0635,-0.889 0.21167,-1.35467 z"
       id="path7032" />
    <path
       inkscape:connector-curvature="0"
       style="fill:#ef9b82;fill-opacity:1;fill-rule:nonzero;stroke:#ef9b82;stroke-width:0.08466666px;stroke-linecap:butt;stroke-linejoin:miter;stroke-miterlimit:4;stroke-dasharray:none;stroke-opacity:1"
       d="m 48.65266,85.598848 0.61383,0.0423 1.12184,0.33867 1.5875,0.84666 0.99483,0.65617 0.21167,-0.71967 0.1905,-0.6985 0.46566,0.254 0.4445,0.254 0.23284,0.14817 0.254,0.127 -0.0847,0.71967 -0.1905,1.12183 0.127,0.48683 0.21166,0.27517 0.14817,0.127 0.40217,0.23283 0.84666,0.23284 1.3335,-0.10584 0.86784,-0.21166 0.0847,1.05833 0.10583,1.03717 -0.67733,0.14816 -1.05834,0.14817 h -0.6985 l -0.33866,-0.0635 -0.46567,-0.1905 -0.86783,-0.508 -0.4445,-0.254 -0.40217,1.5875 -0.35983,1.60867 -0.35984,-0.33867 -0.635,-0.71967 -0.1905,-0.4445 0.127,-0.8255 0.254,-1.22766 0.0635,-0.8255 -0.0635,-0.40217 -0.381,-0.33867 -0.889,-0.55033 -0.9525,-0.381 -1.016,-0.27517 -0.48683,-0.10583 -0.127,-1.143 z"
       id="path7034" />
    <path
       inkscape:connector-curvature="0"
       style="fill:#473828;fill-opacity:1;fill-rule:nonzero;stroke:#473828;stroke-width:0.08466666px;stroke-linecap:butt;stroke-linejoin:miter;stroke-miterlimit:4;stroke-dasharray:none;stroke-opacity:1"
       d="m 58.36816,85.874018 0.14817,0.0847 0.1905,0.27516 0.14816,0.48684 0.0847,0.33866 0.35984,1.9685 0.42333,4.02167 0.127,2.01083 0.4445,3.4925 0.3175,3.513672 -0.0212,0.33867 -0.0212,0.3175 -0.381,0.0212 h -0.381 l -0.4445,-4.275672 -0.40217,-4.27567 -0.1905,-1.18533 -0.14816,-1.18533 -0.10584,-1.03717 -0.0847,-1.05833 -0.10583,-1.56634 0.0212,-1.56633 0.0212,-0.35983 z"
       id="path7036" />
    <path
       inkscape:connector-curvature="0"
       style="fill:#f2eeca;fill-opacity:1;fill-rule:nonzero;stroke:#f2eeca;stroke-width:0.08466666px;stroke-linecap:butt;stroke-linejoin:miter;stroke-miterlimit:4;stroke-dasharray:none;stroke-opacity:1"
       d="m 163.90516,86.593678 2.18017,-0.21166 2.18017,-0.254 -0.27517,1.778 -0.254,1.778 -0.0635,-0.16934 -0.1905,-0.254 -0.27517,-0.16933 -0.33866,-0.0847 -0.16934,0.0212 -0.91016,0.0847 -1.79917,0.40217 -0.93133,0.10583 0.42333,-1.50283 z"
       id="path7038" />
    <path
       inkscape:connector-curvature="0"
       style="fill:#f2eec9;fill-opacity:1;fill-rule:nonzero;stroke:#f2eec9;stroke-width:0.08466666px;stroke-linecap:butt;stroke-linejoin:miter;stroke-miterlimit:4;stroke-dasharray:none;stroke-opacity:1"
       d="m 54.76983,86.847678 0.42333,0.14817 0.9525,0.23283 h 0.9525 l 0.65617,-0.1905 0.40216,-0.27516 0.1905,-0.16934 -0.0212,1.56634 0.10584,1.56633 -0.86784,0.21167 -1.3335,0.10583 -0.84666,-0.23283 -0.40217,-0.23284 -0.14817,-0.127 -0.21166,-0.27516 -0.127,-0.48684 0.1905,-1.12183 z"
       id="path7040" />
    <path
       inkscape:connector-curvature="0"
       style="fill:#f2edc9;fill-opacity:1;fill-rule:nonzero;stroke:#f2edc9;stroke-width:0.08466666px;stroke-linecap:butt;stroke-linejoin:miter;stroke-miterlimit:4;stroke-dasharray:none;stroke-opacity:1"
       d="m 48.77966,87.863678 0.48683,0.10584 1.016,0.27516 0.9525,0.381 0.889,0.55034 0.381,0.33866 0.0635,0.40217 -0.0635,0.8255 -0.254,1.22767 -0.127,0.8255 -0.61383,-0.8255 -0.65617,-0.80434 -0.1905,-0.127 -0.4445,-0.16933 -0.6985,-0.127 -0.46566,-0.0635 -0.16934,-0.6985 -0.127,-1.41817 z"
       id="path7042" />
    <path
       inkscape:connector-curvature="0"
       style="fill:#f2edc9;fill-opacity:1;fill-rule:nonzero;stroke:#f2edc9;stroke-width:0.08466666px;stroke-linecap:butt;stroke-linejoin:miter;stroke-miterlimit:4;stroke-dasharray:none;stroke-opacity:1"
       d="m 54.07133,91.102178 0.4445,0.254 0.86783,0.508 0.46567,0.1905 0.33866,0.0635 h 0.6985 l 1.05834,-0.14816 0.67733,-0.14817 0.14817,1.18533 0.1905,1.18534 -1.41817,0.127 -2.159,0.254 h -1.397 l -0.71967,-0.14817 0.0423,-0.127 0.35984,-1.60867 z"
       id="path7044" />
    <path
       inkscape:connector-curvature="0"
       style="fill:#f2edca;fill-opacity:1;fill-rule:nonzero;stroke:#f2edca;stroke-width:0.08466666px;stroke-linecap:butt;stroke-linejoin:miter;stroke-miterlimit:4;stroke-dasharray:none;stroke-opacity:1"
       d="m 188.62783,98.637518 0.10583,-0.86784 -0.0212,-1.35466 0.14816,-0.635 0.21167,-0.381 0.14817,-0.16934 0.381,-0.0212 0.6985,0.10584 1.016,0.40216 0.67733,0.29634 -0.0635,0.127 -0.40217,0.91016 -0.48683,0.86784 -0.52917,-0.21167 -1.05833,-0.35983 -0.55033,-0.14817 0.0423,0.5715 0.0847,0.5715 0.762,0.48683 0.8255,0.40217 -0.27517,0.952502 -0.27517,0.93133 -0.65616,-0.21166 -1.016,-0.27517 -0.635,-0.29633 -0.27517,-0.23284 0.5715,-0.719662 z"
       id="path7046" />
    <path
       inkscape:connector-curvature="0"
       style="fill:#ea9e85;fill-opacity:1;fill-rule:nonzero;stroke:#ea9e85;stroke-width:0.08466666px;stroke-linecap:butt;stroke-linejoin:miter;stroke-miterlimit:4;stroke-dasharray:none;stroke-opacity:1"
       d="m 191.04083,97.917848 0.48683,-0.86783 0.40217,-0.91017 0.381,0.1905 0.40217,0.16933 -0.29634,1.016 -0.27516,1.03717 0.61383,0.127 1.27,0.10583 0.635,-0.0212 -0.14817,0.635 -0.10583,0.613842 -0.6985,0.0423 -1.397,-0.0847 -0.6985,-0.127 -0.33867,0.994832 -0.35983,0.97367 -0.42333,-0.33867 -0.42334,-0.35983 0.27517,-0.93134 0.27517,-0.952502 -0.8255,-0.40216 -0.762,-0.48684 -0.0847,-0.5715 -0.0423,-0.5715 0.55033,0.14817 1.05833,0.35983 z"
       id="path7048" />
    <path
       inkscape:connector-curvature="0"
       style="fill:#f3edc8;fill-opacity:1;fill-rule:nonzero;stroke:#f3edc8;stroke-width:0.08466666px;stroke-linecap:butt;stroke-linejoin:miter;stroke-miterlimit:4;stroke-dasharray:none;stroke-opacity:1"
       d="m 192.713,96.499678 0.29633,0.14817 0.59267,0.1905 0.635,0.0847 0.65616,-0.0212 0.3175,-0.0847 -0.33866,0.9525 -0.21167,0.99483 -0.635,0.0423 -1.27,-0.127 -0.61383,-0.127 0.27516,-1.03716 z"
       id="path7050" />
    <path
       inkscape:connector-curvature="0"
       style="fill:#4a3724;fill-opacity:1;fill-rule:nonzero;stroke:#4a3724;stroke-width:0.08466666px;stroke-linecap:butt;stroke-linejoin:miter;stroke-miterlimit:4;stroke-dasharray:none;stroke-opacity:1"
       d="m 195.21066,96.817178 0.10584,-0.23283 0.127,-0.23283 0.0212,0.762 -0.127,1.524 -0.46566,2.243662 -0.33867,1.50284 -0.0212,1.22766 -0.16933,2.47649 -0.4445,3.70417 -0.33867,2.45533 -0.84666,5.79967 -0.9525,5.7785 0.127,0.29633 0.127,0.27517 -0.0635,0.127 -0.29634,-0.23283 -0.635,-0.35984 -0.67733,-0.254 -0.6985,-0.10583 -0.381,0.0212 0.86783,-4.699 1.37584,-7.0485 1.03716,-4.65667 0.59267,-2.30716 0.21167,-0.80433 0.59266,-1.524 0.1905,-0.78316 0.127,-0.86784 0.14817,-0.889 0.10583,-0.613832 0.14817,-0.635 0.21167,-0.99483 z"
       id="path7052" />
    <path
       inkscape:connector-curvature="0"
       style="fill:#f6ecc9;fill-opacity:1;fill-rule:nonzero;stroke:#f6ecc9;stroke-width:0.08466666px;stroke-linecap:butt;stroke-linejoin:miter;stroke-miterlimit:4;stroke-dasharray:none;stroke-opacity:1"
       d="m 191.61233,99.844018 0.6985,0.127 1.397,0.0847 0.6985,-0.0423 -0.14817,0.889 -0.127,0.86783 -0.80433,0.0635 -1.2065,0.10583 -0.80433,-0.0423 -0.40217,-0.0847 0.35983,-0.97366 z"
       id="path7054" />
    <path
       inkscape:connector-curvature="0"
       style="fill:#4b3721;fill-opacity:1;fill-rule:nonzero;stroke:#4b3721;stroke-width:0.08466666px;stroke-linecap:butt;stroke-linejoin:miter;stroke-miterlimit:4;stroke-dasharray:none;stroke-opacity:1"
       d="m 135.45716,101.17752 1.22767,0.55033 1.22767,0.61383 v 0.4445 0.4445 l -0.21167,1.16417 -0.23283,1.14299 -0.16934,0.5715 -0.21166,1.16417 -0.0423,1.79916 v 1.18534 l -0.0212,0.6985 -0.0423,1.05833 0.0635,0.71967 0.0847,0.33866 0.29633,1.10067 0.4445,1.67217 0.1905,1.12183 v 0.59267 l -3.1115,-0.889 -3.1115,-0.889 0.14817,-0.381 0.42333,-0.71967 0.74084,-0.97367 0.4445,-0.6985 -0.254,-0.1905 -0.23284,-0.1905 0.4445,-0.127 0.46567,-0.14816 0.33867,-1.7145 0.33866,-2.6035 0.3175,-1.73567 0.23284,-0.84667 -0.52917,-0.29633 -0.508,-0.29633 0.4445,0.0635 0.4445,0.0423 0.14817,-1.90499 z"
       id="path7056" />
    <path
       inkscape:connector-curvature="0"
       style="fill:#97897e;fill-opacity:1;fill-rule:nonzero;stroke:#97897e;stroke-width:0.08466666px;stroke-linecap:butt;stroke-linejoin:miter;stroke-miterlimit:4;stroke-dasharray:none;stroke-opacity:1"
       d="m 60.61183,102.06652 0.14816,0.35983 0.14817,0.381 6.9215,0.14817 6.9215,0.27516 -0.61383,0.35984 -0.84667,0.65616 -0.40217,0.57149 -0.127,0.33867 -0.14816,0.67733 v 1.37584 l 0.27516,1.3335 0.4445,1.31233 0.254,0.635 0.65617,1.54517 1.4605,3.02683 2.39183,4.42383 1.651,2.89984 0.9525,1.56633 0.91017,1.56633 0.8255,1.397 0.78317,1.43934 -5.0165,-2.56117 -7.59884,-3.66183 -5.18583,-2.20134 -2.64583,-0.97366 -0.0423,0.3175 -0.0423,0.33866 -0.21167,-0.8255 -0.5715,-0.1905 -0.5715,-0.16933 -0.0212,0.5715 -0.0212,0.5715 -0.0847,-0.59267 -0.0847,-0.59266 -1.37583,-0.508 -2.8575,-0.86784 -2.89984,-0.55033 -2.2225,-0.127 -1.48166,0.0423 -0.74084,0.0635 -0.67733,0.0847 -1.37583,0.254 -2.01084,0.5715 -2.56116,1.0795 -2.39184,1.43933 -1.12183,0.84667 -1.03716,0.889 -1.0795,0.84667 2.34949,-3.83117 3.53484,-5.715 1.5875,-2.96333 0.9525,-2.032 0.42333,-1.03717 0.40217,-1.03717 0.33866,-1.62982 v -1.10067 l -0.0847,-0.55033 3.25967,-0.0423 6.49817,0.16933 3.25966,0.0635 h 0.381 l 0.381,-0.0212 0.0212,-0.3175 z"
       id="path7058" />
    <path
       inkscape:connector-curvature="0"
       style="fill:#413122;fill-opacity:1;fill-rule:nonzero;stroke:#413122;stroke-width:0.08466666px;stroke-linecap:butt;stroke-linejoin:miter;stroke-miterlimit:4;stroke-dasharray:none;stroke-opacity:1"
       d="m 138.2935,105.66484 v -0.9525 -0.95249 l 0.0423,0.99482 v 0.97367 l 1.2065,0.42333 1.18533,0.4445 0.21167,0.10584 0.23283,0.10583 0.74084,0.35983 0.67733,0.4445 -0.42333,0.889 -1.10067,1.67217 -0.99483,1.12183 -0.74084,0.635 -0.8255,0.55034 -0.889,0.42333 -0.48683,0.16933 -0.0847,-0.33866 -0.0635,-0.71967 0.0423,-1.05833 0.0212,-0.6985 v -1.18534 l 0.0423,-1.79916 0.21166,-1.16417 0.16934,-0.5715 0.42333,0.0635 z"
       id="path7060" />
    <path
       inkscape:connector-curvature="0"
       style="fill:#413121;fill-opacity:1;fill-rule:nonzero;stroke:#413121;stroke-width:0.08466666px;stroke-linecap:butt;stroke-linejoin:miter;stroke-miterlimit:4;stroke-dasharray:none;stroke-opacity:1"
       d="m 129.93266,105.13567 0.46567,-0.1905 0.97367,-0.1905 1.56633,-0.0212 0.99483,0.0635 0.0847,0.0212 0.1905,0.0423 0.508,0.29634 0.52917,0.29633 -0.23284,0.84667 -0.3175,1.73566 -0.33866,2.6035 -0.33867,1.7145 -0.46567,0.14817 -0.4445,0.127 -0.508,-0.254 -0.84666,-0.65617 -0.65617,-0.8255 -0.508,-0.9525 -0.35983,-1.03716 -0.21167,-1.0795 -0.14817,-1.651 z"
       id="path7062" />
    <path
       inkscape:connector-curvature="0"
       style="fill:#cebd9f;fill-opacity:1;fill-rule:nonzero;stroke:#cebd9f;stroke-width:0.08466666px;stroke-linecap:butt;stroke-linejoin:miter;stroke-miterlimit:4;stroke-dasharray:none;stroke-opacity:1"
       d="m 97.99216,107.10417 0.74083,0.0847 0.762,0.14817 -0.508,0.10583 -0.48683,0.127 3.683,1.22767 7.493,2.2225 3.7465,1.10067 11.66284,3.3655 23.38916,6.49816 11.70517,3.19617 0.0212,0.3175 0.0212,0.29633 -0.10583,0.65617 -0.127,0.65617 -2.54,-0.61384 -2.56117,-0.508 -4.72016,-1.10066 -9.398,-2.32834 -4.65667,-1.27 -2.11667,-0.5715 -2.11666,-0.5715 0.10583,0.508 -0.254,-0.3175 -0.27517,-0.33866 -0.29633,-0.0423 -0.3175,-0.0635 -0.23283,0.127 -0.254,0.127 -0.23284,0.127 0.0212,-0.3175 v -0.3175 l -0.78317,-0.21167 -0.80433,-0.23283 -0.29633,0.23283 -0.27517,0.254 -0.0423,-0.3175 -0.0423,-0.29633 -6.6675,-2.05317 -9.99067,-3.21733 -4.91066,-1.82034 -3.2385,-1.3335 -1.5875,-0.71966 -1.016,-0.52917 -1.524,-0.91017 -0.59267,-0.61383 -0.29633,-0.48683 z"
       id="path7064" />
    <path
       inkscape:connector-curvature="0"
       style="fill:#90745a;fill-opacity:1;fill-rule:nonzero;stroke:#90745a;stroke-width:0.08466666px;stroke-linecap:butt;stroke-linejoin:miter;stroke-miterlimit:4;stroke-dasharray:none;stroke-opacity:1"
       d="m 98.50016,107.56984 0.48683,-0.127 0.508,-0.10583 4.08517,0.93133 8.10683,2.032 12.08617,3.25967 8.0645,2.2225 3.1115,0.889 3.1115,0.889 5.56684,1.5875 5.54566,1.60866 0.48684,0.0847 0.91016,0.23284 1.35467,0.508 0.93133,0.27516 3.81,1.143 3.85234,1.0795 -0.14817,0.86784 -0.14817,0.84666 -0.0212,-0.29633 -0.0212,-0.3175 -11.70517,-3.19617 -23.38916,-6.49816 -11.66284,-3.3655 -3.7465,-1.10067 -7.493,-2.2225 z"
       id="path7066" />
    <path
       inkscape:connector-curvature="0"
       style="fill:#97836d;fill-opacity:1;fill-rule:nonzero;stroke:#97836d;stroke-width:0.08466666px;stroke-linecap:butt;stroke-linejoin:miter;stroke-miterlimit:4;stroke-dasharray:none;stroke-opacity:1"
       d="m 179.54733,114.66067 0.91017,-0.80433 1.37583,-1.22767 0.99483,-0.6985 0.52917,-0.3175 -0.0847,0.29634 -0.254,0.508 -0.52916,0.6985 -0.381,0.4445 -1.4605,1.75683 -3.048,3.40783 -4.65667,5.03767 -3.09033,3.3655 -0.42334,-0.4445 -0.35983,-0.46567 -0.33867,0.1905 -0.33866,0.16934 -0.33867,-0.10584 -0.33867,-0.127 2.8575,-3.00566 5.94784,-5.82084 z"
       id="path7068" />
    <path
       inkscape:connector-curvature="0"
       style="fill:#413121;fill-opacity:1;fill-rule:nonzero;stroke:#413121;stroke-width:0.08466666px;stroke-linecap:butt;stroke-linejoin:miter;stroke-miterlimit:4;stroke-dasharray:none;stroke-opacity:1"
       d="m 162.00016,115.78251 0.0212,-0.29634 0.0212,-0.3175 0.3175,0.27517 0.6985,0.35983 1.16416,0.381 0.74084,0.3175 0.8255,0.254 1.62983,0.67734 0.74083,0.4445 -0.1905,0.4445 -0.46566,0.86783 -0.5715,0.80433 -0.65617,0.71967 -0.35983,0.3175 -0.46567,0.35983 -1.016,0.55034 -0.46567,0.3175 -1.54516,-0.0212 -1.54517,-0.10584 v -0.254 l -0.21167,-0.35983 -0.5715,-0.40217 -0.29633,-0.3175 -0.381,-0.52916 -0.48683,-1.18534 -0.254,-1.27 -0.0635,-1.31233 0.0423,-0.635 0.8255,-0.0847 1.67217,-0.0423 z"
       id="path7070" />
    <path
       inkscape:connector-curvature="0"
       style="fill:#423221;fill-opacity:1;fill-rule:nonzero;stroke:#423221;stroke-width:0.08466666px;stroke-linecap:butt;stroke-linejoin:miter;stroke-miterlimit:4;stroke-dasharray:none;stroke-opacity:1"
       d="m 61.33149,118.42834 0.5715,0.16933 0.5715,0.1905 0.21167,0.8255 0.127,0.635 0.127,0.65617 1.12183,-0.0212 2.26484,0.14817 1.10066,0.1905 -0.0423,0.6985 -0.35983,1.3335 -0.61383,1.27 -0.84667,1.10066 -0.508,0.48684 0.33867,0.46566 0.35983,1.016 0.10583,1.10067 -0.10583,1.10067 -0.10583,0.55033 -2.7305,-0.5715 -2.7305,-0.59267 -0.0635,-0.67733 0.14816,-1.37583 0.1905,-0.65617 -0.508,-0.381 -0.84666,-0.91017 -0.635,-1.0795 -0.4445,-1.16416 -0.14817,-0.61384 0.33867,-0.29633 0.8255,-0.42333 1.37583,-0.35984 0.91017,-0.16933 -0.0212,-0.74083 -0.0212,-0.762 0.0212,-0.5715 z"
       id="path7072" />
    <path
       inkscape:connector-curvature="0"
       style="fill:#3e3b36;fill-opacity:1;fill-rule:nonzero;stroke:#3e3b36;stroke-width:0.08466666px;stroke-linecap:butt;stroke-linejoin:miter;stroke-miterlimit:4;stroke-dasharray:none;stroke-opacity:1"
       d="m 130.12316,120.26984 0.23284,-0.127 -0.61384,0.8255 -0.9525,1.22767 -0.71966,0.74083 -0.381,0.33867 1.18533,-1.524 z"
       id="path7074" />
    <path
       inkscape:connector-curvature="0"
       style="fill:#4b3722;fill-opacity:1;fill-rule:nonzero;stroke:#4b3722;stroke-width:0.08466666px;stroke-linecap:butt;stroke-linejoin:miter;stroke-miterlimit:4;stroke-dasharray:none;stroke-opacity:1"
       d="m 131.88,120.14284 2.11666,0.5715 2.11667,0.5715 -0.29633,0.46567 -0.381,1.016 -0.29634,1.60866 -0.1905,1.0795 -0.61383,4.21217 -1.05833,8.42433 -1.41817,12.65767 -0.9525,8.4455 0.55033,-0.0423 0.55034,-0.0423 -0.55034,0.16934 -0.55033,0.16933 -0.21167,1.10067 -0.23283,2.20133 -0.21167,1.10067 -0.0635,0.29633 0.10584,0.61383 0.0847,0.3175 -0.23283,0.52917 -0.16933,0.59267 -0.16934,1.4605 -0.254,1.43933 -0.0847,-0.0212 -0.65617,-0.40216 -1.37583,-0.6985 -0.74084,-0.254 -0.16933,-0.0635 0.29633,-0.0847 0.27517,-0.10583 0.33867,-1.778 0.1905,-1.82034 0.14816,-1.0795 0.3175,-2.159 0.0635,-1.10066 0.80434,-6.096 1.48166,-12.23434 0.6985,-6.11716 0.381,-3.175 0.635,-6.32884 0.23284,-3.19616 0.0212,-0.4445 -0.23283,-0.86784 -0.1905,-0.42333 z"
       id="path7076" />
    <path
       inkscape:connector-curvature="0"
       style="fill:#9a9a9a;fill-opacity:1;fill-rule:nonzero;stroke:#9a9a9a;stroke-width:0.08466666px;stroke-linecap:butt;stroke-linejoin:miter;stroke-miterlimit:4;stroke-dasharray:none;stroke-opacity:1"
       d="m 124.4505,123.97401 0.35983,-0.635 0.9525,-1.16417 0.5715,-0.46567 -0.16933,0.33867 -0.42334,0.61383 -0.74083,0.8255 z"
       id="path7078" />
    <path
       inkscape:connector-curvature="0"
       style="fill:#4b3722;fill-opacity:1;fill-rule:nonzero;stroke:#4b3722;stroke-width:0.08466666px;stroke-linecap:butt;stroke-linejoin:miter;stroke-miterlimit:4;stroke-dasharray:none;stroke-opacity:1"
       d="m 160.87833,122.13251 1.54517,0.10583 1.54516,0.0212 -0.16933,1.43933 -0.23283,1.41817 -0.10584,0.52917 -0.10583,0.508 -0.14817,0.86783 -0.14816,0.86783 -0.27517,1.82034 -0.3175,1.82033 -0.3175,1.94733 -0.3175,1.94734 -1.88383,10.68916 -1.905,10.68917 -0.0212,0.3175 v 0.3175 l -0.27517,0.97366 -0.40216,2.01084 -0.48684,3.02683 -0.42333,1.98967 -0.6985,0.14816 -1.10067,0.27517 -0.46566,-0.10583 -0.254,-0.254 -0.0847,-0.1905 0.635,-3.8735 0.59267,-3.91584 1.397,-8.97466 1.4605,-8.97467 0.3175,-1.88383 0.254,-1.905 0.42333,-2.159 0.6985,-4.36033 0.381,-2.159 0.127,-0.65617 0.10583,-0.65617 0.14817,-0.84666 0.14817,-0.86784 0.14816,-0.99483 z"
       id="path7080" />
    <path
       inkscape:connector-curvature="0"
       style="fill:#3e3b36;fill-opacity:1;fill-rule:nonzero;stroke:#3e3b36;stroke-width:0.08466666px;stroke-linecap:butt;stroke-linejoin:miter;stroke-miterlimit:4;stroke-dasharray:none;stroke-opacity:1"
       d="m 124.34466,126.68334 0.74084,-0.84667 1.5875,-1.5875 0.86783,-0.74083 -0.74083,0.86783 -1.5875,1.60867 z"
       id="path7082" />
    <path
       inkscape:connector-curvature="0"
       style="fill:#413121;fill-opacity:1;fill-rule:nonzero;stroke:#413121;stroke-width:0.08466666px;stroke-linecap:butt;stroke-linejoin:miter;stroke-miterlimit:4;stroke-dasharray:none;stroke-opacity:1"
       d="m 186.40533,123.78351 0.71967,-0.127 1.41816,-0.0847 0.71967,0.0212 0.381,-0.0212 0.6985,0.10583 0.67733,0.254 0.635,0.35983 0.29634,0.23284 0.0635,-0.127 h 0.27516 l 0.48684,0.127 0.71966,0.35983 0.46567,0.254 -0.21167,0.61383 -0.61383,1.143 -0.8255,0.97367 -0.9525,0.86783 -0.52917,0.35984 -0.381,0.254 -0.381,0.254 -0.40216,-0.3175 -0.84667,-0.52917 -0.46567,-0.21167 -0.3175,-0.16933 -0.508,-0.4445 -0.381,-0.52917 -0.29633,-0.59266 -0.27517,-0.99484 -0.14816,-1.397 z"
       id="path7084" />
    <path
       inkscape:connector-curvature="0"
       style="fill:#97897e;fill-opacity:1;fill-rule:nonzero;stroke:#97897e;stroke-width:0.08466666px;stroke-linecap:butt;stroke-linejoin:miter;stroke-miterlimit:4;stroke-dasharray:none;stroke-opacity:1"
       d="m 199.444,127.21251 1.16416,-0.9525 2.37067,-1.86267 1.24883,-0.84667 -0.14816,0.33867 -0.40217,0.5715 -0.74083,0.74083 -0.48684,0.508 -1.43933,1.4605 -1.98967,2.3495 -1.24883,1.651 -1.143,1.69334 -1.05833,1.778 -0.91017,1.82033 -0.80433,1.905 -0.33867,0.97367 -0.27517,0.86783 -0.46566,1.75683 -0.33867,1.79917 -0.23283,1.82033 -0.0847,1.82034 0.0423,1.82033 0.16934,1.82033 0.33866,1.79917 0.23284,0.86783 -1.56634,-0.16933 -2.37066,-0.1905 -1.56634,0.0635 -0.78316,0.127 h -0.0212 l -0.5715,-0.10583 -1.18533,0.0212 -0.5715,0.0635 -0.1905,0.8255 -0.16934,0.8255 0.0847,-0.8255 0.0847,-0.8255 -1.9685,0.1905 -3.89467,0.61384 -3.8735,0.8255 -3.81,1.016 -1.88383,0.5715 0.16933,0.10583 0.1905,0.0847 -0.48683,0.0423 -0.97367,0.16933 -1.397,0.42334 -0.91017,0.35983 0.23284,-0.42333 0.254,-0.42334 2.51883,-2.45533 5.16467,-4.80483 7.89516,-7.0485 5.31284,-4.6355 0.127,-0.55034 0.16933,-0.52916 0.0212,0.35983 v 0.33867 l 0.6985,-0.52917 1.37583,-1.12183 0.635,-0.61384 0.254,-0.762 0.16933,-0.80433 -0.0635,0.5715 -0.0635,0.5715 0.4445,-0.21167 0.74084,-0.61383 0.35983,-0.3175 3.95817,-3.38667 z"
       id="path7086" />
    <path
       inkscape:connector-curvature="0"
       style="fill:#97897e;fill-opacity:1;fill-rule:nonzero;stroke:#97897e;stroke-width:0.08466666px;stroke-linecap:butt;stroke-linejoin:miter;stroke-miterlimit:4;stroke-dasharray:none;stroke-opacity:1"
       d="m 34.76733,141.28834 -0.16934,-1.0795 -0.1905,-2.159 v -2.159 l 0.14817,-2.159 0.4445,-3.21733 0.93133,-4.2545 0.55034,-2.07434 11.85333,2.4765 11.85333,2.51884 2.7305,0.59266 2.7305,0.5715 9.779,2.11667 9.779,2.2225 1.24884,0.3175 1.905,0.42333 1.22766,0.381 0.59267,0.254 h -0.42333 l -0.84667,0.0847 -0.80433,0.23284 -0.78317,0.35983 -1.05833,0.65617 -1.27,1.143 -0.55034,0.635 -0.762,0.97366 -1.35466,2.05317 -1.16417,2.159 -1.03717,2.24366 -0.46566,1.143 -0.381,1.05834 -0.52917,2.18016 -0.21167,2.24367 v 2.24367 l 0.0635,1.12183 1.0795,0.0423 2.18017,-0.0212 1.05833,0.0635 -2.13783,0.0423 -2.13783,0.0635 0.127,1.0795 0.33866,2.13783 0.23284,1.0795 0.16933,0.86784 0.21167,0.889 0.508,1.9685 0.46566,1.9685 -0.6985,-0.55034 -1.48166,-1.03716 -1.54517,-0.91017 -1.62983,-0.8255 -0.8255,-0.35983 -2.286,-1.03717 -2.3495,-0.889 -1.98967,-0.6985 -2.96333,-1.05833 -2.01084,-0.59267 -1.03716,-0.23283 -0.78317,-0.35984 -0.80433,-0.254 -4.33917,-1.22766 -4.36033,-1.12184 -1.18534,-0.23283 -2.413,-0.35983 -2.413,-0.21167 -2.413,-0.0847 -2.43416,0.0635 -2.413,0.16934 -3.6195,0.46566 -2.37067,0.42334 0.23283,0.35983 -0.40216,-0.23283 -0.40217,-0.23284 0.42333,-0.33866 0.65617,-0.84667 0.6985,-1.43933 0.3175,-1.03717 0.33867,-1.31233 0.4445,-2.68817 0.21166,-2.70933 -0.0212,-2.7305 z"
       id="path7088" />
    <path
       inkscape:connector-curvature="0"
       style="fill:#a6a6a6;fill-opacity:1;fill-rule:nonzero;stroke:#a6a6a6;stroke-width:0.08466666px;stroke-linecap:butt;stroke-linejoin:miter;stroke-miterlimit:4;stroke-dasharray:none;stroke-opacity:1"
       d="m 121.72,126.83151 0.61383,-0.65617 0.86783,-1.016 0.635,-0.59267 0.35984,-0.254 -0.508,0.71967 -1.12184,1.37583 -1.8415,1.9685 -1.31233,1.2065 0.21167,-0.40216 0.55033,-0.6985 0.9525,-0.97367 z"
       id="path7090" />
    <path
       inkscape:connector-curvature="0"
       style="fill:#8d7762;fill-opacity:1;fill-rule:nonzero;stroke:#8d7762;stroke-width:0.08466666px;stroke-linecap:butt;stroke-linejoin:miter;stroke-miterlimit:4;stroke-dasharray:none;stroke-opacity:1"
       d="m 163.5665,125.11701 1.03716,0.27516 2.05317,0.65617 1.05833,0.29633 0.33867,0.127 0.33867,0.10584 0.33866,-0.16934 0.33867,-0.1905 0.35983,0.46567 0.42334,0.4445 0.48683,0.21167 0.84667,0.254 0.40216,0.29633 0.127,0.254 -2.64583,-0.6985 -2.64583,-0.635 -0.762,-0.21167 -1.524,-0.381 -0.78317,-0.0635 0.10583,-0.508 z"
       id="path7092" />
    <path
       inkscape:connector-curvature="0"
       style="fill:#cfbca0;fill-opacity:1;fill-rule:nonzero;stroke:#cfbca0;stroke-width:0.08466666px;stroke-linecap:butt;stroke-linejoin:miter;stroke-miterlimit:4;stroke-dasharray:none;stroke-opacity:1"
       d="m 163.35483,126.15417 0.78317,0.0635 1.524,0.381 0.762,0.21167 2.64583,0.635 2.64583,0.6985 0.0423,0.0212 -0.78317,0.21167 -1.62983,0.10583 -0.80434,-0.0423 -1.3335,-0.1905 -1.31233,-0.16933 -0.6985,-0.127 -1.41817,-0.14817 -0.71966,0.0847 0.14816,-0.86783 z"
       id="path7094" />
    <path
       inkscape:connector-curvature="0"
       style="fill:#888888;fill-opacity:1;fill-rule:nonzero;stroke:#888888;stroke-width:0.08466666px;stroke-linecap:butt;stroke-linejoin:miter;stroke-miterlimit:4;stroke-dasharray:none;stroke-opacity:1"
       d="m 120.53466,129.85834 0.889,-0.74083 1.69334,-1.56634 0.93133,-0.65616 -0.29633,0.48683 -0.80434,0.762 -0.42333,0.35983 -2.13783,1.88384 -4.40267,3.64066 -2.2225,1.778 -0.8255,0.6985 -1.524,1.48167 -2.2225,2.3495 -1.50284,1.524 -1.92616,1.92617 -3.78884,3.85233 -1.9685,1.8415 1.54517,-1.7145 3.28083,-3.2385 1.60867,-1.651 1.03717,-1.0795 1.60866,-1.5875 0.99484,-1.12183 0.46566,-0.59267 -0.40216,0.1905 -0.71967,0.46567 -1.016,0.84666 -0.67733,0.508 -2.667,1.9685 -5.334,3.937 -2.70934,1.88384 0.0423,-0.16934 0.1905,-0.27516 0.42334,-0.33867 0.27516,-0.1905 5.12234,-3.70417 5.05883,-3.78883 1.524,-1.18533 3.02684,-2.3495 1.41817,-1.31234 1.16416,-1.18533 2.286,-2.413 1.22767,-1.10067 -0.1905,0.3175 -0.55033,0.5715 -0.55034,0.5715 -0.4445,0.61384 -0.10583,0.381 -0.0847,0.0423 -0.0847,0.0423 -0.10584,0.0635 -0.10583,0.0635 0.10583,-0.0635 0.10584,-0.0635 0.0847,-0.0423 0.0847,-0.0423 0.97367,-0.635 1.73566,-1.50284 z"
       id="path7096" />
    <path
       inkscape:connector-curvature="0"
       style="fill:#98816b;fill-opacity:1;fill-rule:nonzero;stroke:#98816b;stroke-width:0.08466666px;stroke-linecap:butt;stroke-linejoin:miter;stroke-miterlimit:4;stroke-dasharray:none;stroke-opacity:1"
       d="m 165.89483,128.08034 1.31233,0.16933 1.3335,0.1905 -1.67216,1.75684 -3.32317,3.53483 -1.7145,1.69333 0.3175,-1.94733 0.3175,-1.94733 1.75683,-1.69334 z"
       id="path7098" />
    <path
       inkscape:connector-curvature="0"
       style="fill:#4a3723;fill-opacity:1;fill-rule:nonzero;stroke:#4a3723;stroke-width:0.08466666px;stroke-linecap:butt;stroke-linejoin:miter;stroke-miterlimit:4;stroke-dasharray:none;stroke-opacity:1"
       d="m 188.35266,128.54601 0.46567,0.21166 0.84667,0.52917 0.40216,0.3175 0.381,-0.254 0.381,-0.254 -0.127,1.22767 -0.42333,2.39183 -0.21167,1.2065 -0.16933,0.80433 -0.254,0.762 -0.635,0.61384 -1.37583,1.12183 -0.6985,0.52917 v -0.33867 l -0.0212,-0.35983 0.71967,-4.2545 z"
       id="path7100" />
    <path
       inkscape:connector-curvature="0"
       style="fill:#fdfcf7;fill-opacity:1;fill-rule:nonzero;stroke:#fdfcf7;stroke-width:0.08466666px;stroke-linecap:butt;stroke-linejoin:miter;stroke-miterlimit:4;stroke-dasharray:none;stroke-opacity:1"
       d="m 116.767,132.82167 0.0847,-0.0423 0.0847,-0.0423 -0.0847,0.0423 z"
       id="path7102" />
    <path
       inkscape:connector-curvature="0"
       style="fill:#fdfcf7;fill-opacity:1;fill-rule:nonzero;stroke:#fdfcf7;stroke-width:0.08466666px;stroke-linecap:butt;stroke-linejoin:miter;stroke-miterlimit:4;stroke-dasharray:none;stroke-opacity:1"
       d="m 116.55533,132.94867 0.10583,-0.0635 0.10584,-0.0635 -0.10584,0.0635 z"
       id="path7104" />
    <path
       inkscape:connector-curvature="0"
       style="fill:#99826a;fill-opacity:1;fill-rule:nonzero;stroke:#99826a;stroke-width:0.08466666px;stroke-linecap:butt;stroke-linejoin:miter;stroke-miterlimit:4;stroke-dasharray:none;stroke-opacity:1"
       d="m 151.77666,142.62184 1.67217,-1.7145 3.302,-3.45017 1.73567,-1.67216 -0.254,1.905 -0.3175,1.88383 -4.65667,4.7625 -9.35567,9.48267 -4.74133,4.65666 -1.60867,1.524 -3.2385,3.048 -1.67216,1.43934 -0.635,0.46566 -1.3335,0.86784 -0.6985,0.381 0.16933,-0.59267 0.23283,-0.52917 2.9845,-3.1115 2.921,-3.15383 H 135.944 l 0.23283,-0.0847 0.254,-0.10583 -0.127,-0.93133 -0.16933,-0.91017 0.0847,-0.254 0.0635,-0.254 0.0423,1.12183 0.10583,1.12184 0.61383,-0.46567 1.05834,-1.10067 0.508,-0.55033 6.56166,-6.90033 z"
       id="path7106" />
    <path
       inkscape:connector-curvature="0"
       style="fill:#2a1811;fill-opacity:1;fill-rule:nonzero;stroke:#2a1811;stroke-width:0.08466666px;stroke-linecap:butt;stroke-linejoin:miter;stroke-miterlimit:4;stroke-dasharray:none;stroke-opacity:1"
       d="m 45.03316,164.21184 0.21167,-0.42333 0.21166,-0.40217 -6.43466,-3.59833 -6.45584,-3.57717 -0.40216,-0.23283 -0.40217,-0.23284 -4.59317,-2.58233 -9.2075,-5.18583 -4.55083,-2.667 -0.23283,-0.127 -0.381,-0.16934 -0.23284,0.0635 -0.0635,0.127 0.0847,0.61384 0.1905,0.61383 0.65617,0.40217 1.37583,0.78316 0.635,0.46567 v 0 0.0212 l 0.0635,0.0423 0.0635,0.0212 v -0.0423 -0.0423 l 5.461,3.13267 5.461,3.15383 v 0.0423 l 0.0212,0.0423 0.1905,0.10583 0.16934,0.14817 0.29633,0.0635 0.27517,0.14816 9.2075,5.29167 9.27099,5.16467 0.0423,-0.33867 0.0635,-0.33867 -0.508,-0.254 z"
       id="path7108" />
    <path
       inkscape:connector-curvature="0"
       style="fill:#8d8d8d;fill-opacity:1;fill-rule:nonzero;stroke:#8d8d8d;stroke-width:0.08466666px;stroke-linecap:butt;stroke-linejoin:miter;stroke-miterlimit:4;stroke-dasharray:none;stroke-opacity:1"
       d="m 90.30866,152.71834 3.32317,-2.32833 3.32316,-2.286 -0.0635,0.16933 -0.1905,0.29633 -0.42333,0.33867 -0.29633,0.1905 -1.651,1.16417 -3.28084,2.3495 -1.7145,1.10066 0.0635,-0.16933 0.21167,-0.29633 0.40217,-0.3175 z"
       id="path7110" />
    <path
       inkscape:connector-curvature="0"
       style="fill:#4b3623;fill-opacity:1;fill-rule:nonzero;stroke:#4b3623;stroke-width:0.08466666px;stroke-linecap:butt;stroke-linejoin:miter;stroke-miterlimit:4;stroke-dasharray:none;stroke-opacity:1"
       d="m 184.2675,153.52267 0.5715,-0.0635 1.18533,-0.0212 0.5715,0.10583 -0.254,1.48167 -0.27517,1.48166 1.651,0.0212 1.62984,0.0847 -1.67217,0.127 -1.69333,0.10583 -0.21167,1.18533 -0.27517,1.18534 -0.5715,0.16933 -0.889,0.1905 -0.59266,-0.0212 -0.29634,-0.0847 0.23284,-0.71967 0.16933,-1.0795 -0.0212,-0.74083 -0.0423,-0.381 0.10583,-0.0635 0.10584,-0.0847 0.10583,-0.61383 0.10583,-0.61384 0.16934,-0.8255 z"
       id="path7112" />
    <path
       inkscape:connector-curvature="0"
       style="fill:#502326;fill-opacity:1;fill-rule:nonzero;stroke:#502326;stroke-width:0.08466666px;stroke-linecap:butt;stroke-linejoin:miter;stroke-miterlimit:4;stroke-dasharray:none;stroke-opacity:1"
       d="m 83.00616,157.81951 3.048,-2.05317 3.048,-2.07433 -0.40217,0.4445 -1.016,0.6985 -0.48683,0.33866 -2.05317,1.43934 -2.0955,1.3335 0.127,1.12183 0.0847,1.12183 -1.905,0.0635 -1.905,-0.0212 -0.0635,0.42333 -0.0423,0.42333 -0.23283,-1.0795 -0.33867,-2.13783 -0.127,-1.0795 2.13784,-0.0635 2.13783,-0.0423 0.0423,0.5715 z"
       id="path7114" />
    <path
       inkscape:connector-curvature="0"
       style="fill:#512326;fill-opacity:1;fill-rule:nonzero;stroke:#512326;stroke-width:0.08466666px;stroke-linecap:butt;stroke-linejoin:miter;stroke-miterlimit:4;stroke-dasharray:none;stroke-opacity:1"
       d="m 91.64216,157.71367 0.6985,-0.65616 1.3335,-1.35467 0.74083,-0.61383 -4.65666,4.67783 -4.67784,4.6355 0.29634,0.48683 0.508,1.016 0.127,0.55034 0.127,0.59266 0.14816,1.18534 0.0212,0.61383 -0.0635,0.46567 -0.0423,0.48683 -0.14816,1.10067 -0.127,1.12183 -4.91067,-0.508 -7.366,-0.762 -4.93183,-0.35983 -2.4765,-0.10584 -0.4445,-0.0847 -0.84667,-0.27517 -0.78317,-0.40217 -0.6985,-0.52916 -0.9525,-0.93134 -1.03716,-1.48166 -0.40217,-0.78317 -0.10583,-0.3175 -0.14817,-0.6985 -0.0423,-1.05833 0.0212,-0.6985 0.0847,-1.143 0.3175,-1.7145 0.40217,-1.0795 0.27516,-0.508 1.03717,0.23283 2.01083,0.5715 2.96334,1.0795 1.98966,0.6985 -0.4445,0.21167 -0.65616,0.35983 -0.381,0.3175 -0.16934,0.1905 0.0212,0.254 0.21167,0.40217 0.40217,0.23283 0.46566,0.10583 0.23284,0.0212 1.24883,0.0635 2.4765,-0.0635 1.22767,-0.16933 0.8255,0.35983 1.62983,0.8255 1.54517,0.91017 1.48166,1.03716 0.6985,0.55034 -0.46566,-1.9685 -0.508,-1.9685 0.97366,0.127 1.9685,0.21166 0.9525,0.21167 0.71967,0.46567 0.71967,0.48683 3.25966,-3.34433 z"
       id="path7116" />
    <path
       inkscape:connector-curvature="0"
       style="fill:#afaeaa;fill-opacity:1;fill-rule:nonzero;stroke:#afaeaa;stroke-width:0.08466666px;stroke-linecap:butt;stroke-linejoin:miter;stroke-miterlimit:4;stroke-dasharray:none;stroke-opacity:1"
       d="m 196.09966,156.06267 0.0423,0.0423 0.0635,0.0635 -0.0423,-0.0423 z"
       id="path7118" />
    <path
       inkscape:connector-curvature="0"
       style="fill:#3e2015;fill-opacity:1;fill-rule:nonzero;stroke:#3e2015;stroke-width:0.08466666px;stroke-linecap:butt;stroke-linejoin:miter;stroke-miterlimit:4;stroke-dasharray:none;stroke-opacity:1"
       d="m 169.00633,156.93051 7.239,-0.254 7.239,-0.127 0.0423,0.381 0.0212,0.74083 -0.16933,1.0795 -0.23284,0.71967 -0.127,0.254 -0.14816,0.254 -1.7145,0.29633 -3.38667,0.78317 -1.69333,0.381 -4.1275,0.86783 -8.23384,1.79917 -4.16983,0.78316 -0.762,0.1905 -1.56633,0.3175 -0.78317,0.0423 0.42333,-1.98967 0.48684,-3.02683 0.40216,-2.01084 0.27517,-0.97366 3.85233,-0.23284 3.85234,-0.127 -0.254,0.42334 -0.23284,0.42333 0.91017,-0.35983 1.397,-0.42334 0.97367,-0.16933 z"
       id="path7120" />
    <path
       inkscape:connector-curvature="0"
       style="fill:#3d2016;fill-opacity:1;fill-rule:nonzero;stroke:#3d2016;stroke-width:0.08466666px;stroke-linecap:butt;stroke-linejoin:miter;stroke-miterlimit:4;stroke-dasharray:none;stroke-opacity:1"
       d="m 189.3475,156.61301 h 1.27 l 1.92616,0.0847 1.27,0.16934 0.61384,0.16933 0.0212,0.27517 0.0212,0.254 -0.5715,-0.0635 -1.0795,0.0847 -1.60867,0.46567 -1.0795,0.23283 -1.16416,0.23284 -1.7145,0.4445 -1.16417,0.21166 -0.59267,0.0423 0.27517,-1.18534 0.21167,-1.18533 1.69333,-0.10583 z"
       id="path7122" />
    <path
       inkscape:connector-curvature="0"
       style="fill:#3e2015;fill-opacity:1;fill-rule:nonzero;stroke:#3e2015;stroke-width:0.08466666px;stroke-linecap:butt;stroke-linejoin:miter;stroke-miterlimit:4;stroke-dasharray:none;stroke-opacity:1"
       d="m 139.16133,158.47567 7.95867,-0.46566 7.9375,-0.48684 -0.59267,3.91584 -0.635,3.8735 -0.127,0.3175 -0.23283,0.4445 -0.23284,0.1905 -0.1905,0.0212 -2.413,0.35984 -4.78366,0.86783 -2.413,0.40217 -0.40217,-0.10584 -0.84667,-0.0847 h -1.27 l -0.8255,-0.0423 -0.42333,-0.0635 -0.8255,-0.21166 -1.16417,-0.48684 -0.74083,-0.381 -0.61383,-0.381 -1.05834,-0.9525 -0.61383,-0.35983 -0.48683,-0.1905 -1.016,-0.127 -0.508,-0.0423 1.67216,-1.43934 3.2385,-3.048 z"
       id="path7124" />
    <path
       inkscape:connector-curvature="0"
       style="fill:#512326;fill-opacity:1;fill-rule:nonzero;stroke:#512326;stroke-width:0.08466666px;stroke-linecap:butt;stroke-linejoin:miter;stroke-miterlimit:4;stroke-dasharray:none;stroke-opacity:1"
       d="m 190.13066,158.28517 1.0795,-0.23283 1.60867,-0.46567 1.0795,-0.0847 0.5715,0.0635 -0.61383,1.778 -0.59267,1.778 -0.23283,0.52916 -0.4445,1.0795 -0.16934,0.55034 0.254,0.10583 0.254,0.0847 -0.35983,0.10583 -0.35983,0.10583 -0.127,0.33867 -0.10584,0.33867 -0.0847,0.0212 -2.18017,0.67734 -4.36033,1.397 -2.20134,0.65616 -2.62466,0.71967 -5.31284,1.3335 -5.35516,1.2065 -5.37634,1.03717 -5.3975,0.91016 -5.41866,0.80434 -5.41867,0.65616 -5.461,0.5715 -2.7305,0.21167 -0.0847,-0.42333 -0.0423,-0.889 0.0847,-0.4445 0.381,-2.286 0.381,-2.30717 h 0.67733 l 1.3335,-0.127 0.65617,-0.16933 2.413,-0.40217 4.78366,-0.86783 2.413,-0.35984 0.1905,-0.0212 0.23284,-0.1905 0.23283,-0.4445 0.127,-0.3175 0.0847,0.1905 0.254,0.254 0.46566,0.10583 1.10067,-0.27517 0.6985,-0.14816 0.78317,-0.0423 1.56633,-0.3175 0.762,-0.1905 4.16983,-0.78316 8.23384,-1.79917 4.1275,-0.86783 1.69333,-0.381 3.38667,-0.78317 1.7145,-0.29633 0.14816,-0.254 0.127,-0.254 0.29634,0.0847 0.59266,0.0212 0.889,-0.1905 0.5715,-0.16933 0.59267,-0.0423 1.16417,-0.21166 1.7145,-0.4445 z"
       id="path7126" />
    <path
       inkscape:connector-curvature="0"
       style="fill:#3d2015;fill-opacity:1;fill-rule:nonzero;stroke:#3d2015;stroke-width:0.08466666px;stroke-linecap:butt;stroke-linejoin:miter;stroke-miterlimit:4;stroke-dasharray:none;stroke-opacity:1"
       d="m 132.007,159.11067 1.9685,-0.1905 1.9685,-0.10583 h 0.33866 l -2.921,3.15383 -2.9845,3.1115 -0.0847,-0.3175 -0.10584,-0.61383 0.0635,-0.29633 0.21167,-1.10067 0.23283,-2.20133 0.21167,-1.10067 0.55033,-0.16933 z"
       id="path7128" />
    <path
       inkscape:connector-curvature="0"
       style="fill:#421c1e;fill-opacity:1;fill-rule:nonzero;stroke:#421c1e;stroke-width:0.08466666px;stroke-linecap:butt;stroke-linejoin:miter;stroke-miterlimit:4;stroke-dasharray:none;stroke-opacity:1"
       d="m 123.90016,160.08434 1.05834,-0.1905 2.11666,-0.27517 1.0795,-0.0847 -0.0635,1.10066 -0.3175,2.159 -0.14816,1.0795 -0.1905,1.82034 -0.33867,1.778 -0.27517,0.10583 -0.29633,0.0847 -2.24367,-1.143 -2.18016,-1.22767 -0.14817,-0.59267 -0.127,-0.61383 -0.0423,-0.59267 0.16933,-1.22766 0.33867,-0.86784 0.33866,-0.508 0.42334,-0.40216 0.52916,-0.3175 z"
       id="path7130" />
    <path
       inkscape:connector-curvature="0"
       style="fill:#2b1710;fill-opacity:1;fill-rule:nonzero;stroke:#2b1710;stroke-width:0.08466666px;stroke-linecap:butt;stroke-linejoin:miter;stroke-miterlimit:4;stroke-dasharray:none;stroke-opacity:1"
       d="m 193.26333,161.12151 2.30717,-0.42334 4.6355,-0.59266 2.32833,-0.27517 0.46567,0.0847 0.93133,0.1905 0.4445,0.1905 0.0635,0.21166 -0.16933,0.3175 -0.55034,0.3175 -0.35983,0.14817 -1.27,0.42333 -2.58233,0.635 -3.937,0.74084 -2.64584,0.381 -0.254,-0.0847 -0.254,-0.10583 0.16934,-0.55034 0.4445,-1.0795 z"
       id="path7132" />
    <path
       inkscape:connector-curvature="0"
       style="fill:#2e160f;fill-opacity:1;fill-rule:nonzero;stroke:#2e160f;stroke-width:0.08466666px;stroke-linecap:butt;stroke-linejoin:miter;stroke-miterlimit:4;stroke-dasharray:none;stroke-opacity:1"
       d="m 79.45016,160.23251 1.905,0.0212 1.905,-0.0635 0.1905,1.5875 0.16933,1.60867 -0.9525,-0.21167 -1.9685,-0.21166 -0.97366,-0.127 -0.21167,-0.889 -0.16933,-0.86784 0.0423,-0.42333 z"
       id="path7134" />
    <path
       inkscape:connector-curvature="0"
       style="fill:#2f160f;fill-opacity:1;fill-rule:nonzero;stroke:#2f160f;stroke-width:0.08466666px;stroke-linecap:butt;stroke-linejoin:miter;stroke-miterlimit:4;stroke-dasharray:none;stroke-opacity:1"
       d="m 68.23183,162.24334 0.16933,-0.1905 0.381,-0.3175 0.65617,-0.35983 0.4445,-0.21167 2.3495,0.889 2.286,1.03717 -1.22767,0.16933 -2.4765,0.0635 -1.24883,-0.0635 -0.23284,-0.0212 -0.46566,-0.10583 -0.40217,-0.23283 -0.21167,-0.40217 z"
       id="path7136" />
    <path
       inkscape:connector-curvature="0"
       style="fill:#2e170f;fill-opacity:1;fill-rule:nonzero;stroke:#2e170f;stroke-width:0.08466666px;stroke-linecap:butt;stroke-linejoin:miter;stroke-miterlimit:4;stroke-dasharray:none;stroke-opacity:1"
       d="m 45.45649,163.38634 2.2225,1.22767 2.2225,1.22766 0.21167,0.127 0.46567,0.127 h 0.74083 0.48683 l 4.6355,-0.14816 4.6355,-0.14817 0.40217,0.78317 1.03717,1.48166 0.9525,0.93134 0.6985,0.52916 0.78316,0.40217 0.84667,0.27517 0.4445,0.0847 2.4765,0.10584 4.93183,0.35983 7.366,0.762 4.91067,0.508 7.366,0.61383 7.366,0.635 7.89517,0.55034 11.83217,0.6985 7.89516,0.254 3.95817,0.0212 h 1.79917 l 3.59833,-0.0423 1.79917,-0.127 0.29633,-0.0212 0.3175,-0.0423 2.7305,-0.21167 5.461,-0.5715 5.41867,-0.65616 5.41866,-0.80434 5.3975,-0.91016 5.37634,-1.03717 5.35516,-1.2065 5.31284,-1.3335 2.62466,-0.71967 2.20134,-0.65616 4.36033,-1.397 2.18017,-0.67734 -2.20134,6.49817 -3.47133,9.69433 -2.43417,6.4135 -1.27,3.19617 -0.14816,0.381 -0.40217,0.67733 -0.78317,0.889 -1.3335,0.91017 -1.43933,0.74083 -0.71967,0.3175 -1.9685,0.762 -4.0005,1.2065 -4.08516,0.9525 -4.10634,0.762 -2.07433,0.33867 -3.45017,0.508 -6.9215,0.80433 -6.96383,0.5715 -6.96383,0.381 -3.4925,0.10584 -2.96334,0.0847 -5.92666,0.0212 -5.92667,-0.127 -5.9055,-0.254 -2.96334,-0.16933 -3.4925,-0.29634 -7.00616,-0.74083 -5.207,-0.78317 -3.45017,-0.635 -3.45017,-0.74083 -3.38666,-0.889 -1.69334,-0.508 -1.62983,-0.52917 -3.21733,-1.2065 -3.1115,-1.4605 -2.20134,-1.3335 -1.397,-0.99483 -0.67733,-0.55033 -0.635,-0.55034 -1.12183,-1.2065 -0.99484,-1.35466 -0.86783,-1.41817 -0.40217,-0.71967 -0.5715,-1.10066 -0.99483,-2.24367 -0.889,-2.30717 -0.74083,-2.3495 -0.3175,-1.18533 -1.67217,-0.23283 -2.51883,-0.55034 -1.651,-0.48683 -1.5875,-0.61383 -1.50284,-0.762 -1.41816,-0.91017 -1.31234,-1.0795 -0.59266,-0.635 -0.3175,-0.33867 -0.55034,-0.71966 -0.71966,-1.18534 -0.46567,-0.78316 -1.12183,-0.65617 -1.16417,-0.61383 0.0423,-0.33867 0.0635,-0.33867 -0.508,-0.254 -0.48683,-0.23283 0.21166,-0.42333 z"
       id="path7138" />
    <path
       inkscape:connector-curvature="0"
       style="fill:#6a4444;fill-opacity:1;fill-rule:nonzero;stroke:#6a4444;stroke-width:0.08466666px;stroke-linecap:butt;stroke-linejoin:miter;stroke-miterlimit:4;stroke-dasharray:none;stroke-opacity:1"
       d="m 121.82583,164.08484 0.127,0.61383 0.14817,0.59267 2.18016,1.22767 2.24367,1.143 0.16933,0.0635 -2.43416,0.16933 -4.86834,0.0635 -2.43416,0.0635 -3.89467,0.14817 -7.8105,0.127 -3.91584,0.16933 -7.51416,0.14817 -7.51417,0.23283 -0.0212,-0.61383 -0.14817,-1.18534 -0.127,-0.59266 0.0635,0.16933 0.21167,0.16933 0.46567,0.0423 h 0.3175 l 17.399,-0.762 17.399,-0.74084 -0.0212,-0.635 z"
       id="path7140" />
    <path
       inkscape:connector-curvature="0"
       style="fill:#431c1f;fill-opacity:1;fill-rule:nonzero;stroke:#431c1f;stroke-width:0.08466666px;stroke-linecap:butt;stroke-linejoin:miter;stroke-miterlimit:4;stroke-dasharray:none;stroke-opacity:1"
       d="m 129.975,166.20151 0.6985,-0.381 1.3335,-0.86784 0.635,-0.46566 0.508,0.0423 1.016,0.127 0.48683,0.1905 0.61383,0.35983 1.05834,0.9525 0.61383,0.381 0.74083,0.381 1.16417,0.48684 0.8255,0.21166 0.42333,0.0635 0.8255,0.0423 h 1.27 l 0.84667,0.0847 0.40217,0.10584 -0.65617,0.16933 -1.3335,0.127 H 140.77 l -0.381,2.30717 -0.381,2.286 -0.0847,0.4445 0.0423,0.889 0.0847,0.42333 -0.3175,0.0423 -0.29633,0.0212 -0.65617,-0.46567 -1.37583,-0.80433 -2.11667,-1.05833 -1.397,-0.762 -1.0795,-0.59267 -1.67217,-0.8255 -1.0795,-0.635 -0.508,-0.381 0.254,-1.43933 z"
       id="path7142" />
    <path
       inkscape:connector-curvature="0"
       style="fill:#c29162;fill-opacity:1;fill-rule:nonzero;stroke:#c29162;stroke-width:0.08466666px;stroke-linecap:butt;stroke-linejoin:miter;stroke-miterlimit:4;stroke-dasharray:none;stroke-opacity:1"
       d="m 116.9575,168.02184 2.43416,-0.0635 4.86834,-0.0635 2.43416,-0.16933 0.74084,0.254 1.37583,0.6985 0.65617,0.40216 -3.32317,0.1905 -6.64633,0.14817 -3.34434,0.16933 -14.94367,0.42334 -14.94366,0.381 -0.0423,-0.29634 -0.0212,-0.29633 0.0423,-0.48683 0.0635,-0.46567 7.51416,-0.23283 7.51417,-0.14817 3.91583,-0.16933 7.81051,-0.127 z"
       id="path7144" />
    <path
       inkscape:connector-curvature="0"
       style="fill:#6b4445;fill-opacity:1;fill-rule:nonzero;stroke:#6b4445;stroke-width:0.08466666px;stroke-linecap:butt;stroke-linejoin:miter;stroke-miterlimit:4;stroke-dasharray:none;stroke-opacity:1"
       d="m 129.467,169.08017 0.0847,0.0212 0.508,0.381 1.0795,0.635 1.67217,0.8255 1.0795,0.59267 1.397,0.762 2.11667,1.05833 1.37583,0.80433 0.65617,0.46567 -1.79917,0.127 -3.59833,0.0423 h -1.79917 l -3.95817,-0.0212 -7.89516,-0.254 -11.83217,-0.6985 -7.89517,-0.55034 -7.366,-0.635 -7.366,-0.61383 0.127,-1.12183 0.14817,-1.10067 0.0212,0.29633 0.0423,0.29634 14.94366,-0.381 14.94367,-0.42334 3.34434,-0.16933 6.64633,-0.14817 z"
       id="path7146" />
  </g>
</svg>
