<?xml version="1.0" encoding="UTF-8" standalone="no"?>
<svg
   xmlns:dc="http://purl.org/dc/elements/1.1/"
   xmlns:cc="http://creativecommons.org/ns#"
   xmlns:rdf="http://www.w3.org/1999/02/22-rdf-syntax-ns#"
   xmlns:svg="http://www.w3.org/2000/svg"
   xmlns="http://www.w3.org/2000/svg"
   xmlns:sodipodi="http://sodipodi.sourceforge.net/DTD/sodipodi-0.dtd"
   xmlns:inkscape="http://www.inkscape.org/namespaces/inkscape"
   width="510"
   height="490"
   version="1"
   id="svg26"
   sodipodi:docname="player1_sb.svg"
   inkscape:version="0.92.2 (5c3e80d, 2017-08-06)">
  <metadata
     id="metadata32">
    <rdf:RDF>
      <cc:Work
         rdf:about="">
        <dc:format>image/svg+xml</dc:format>
        <dc:type
           rdf:resource="http://purl.org/dc/dcmitype/StillImage" />
        <dc:title></dc:title>
      </cc:Work>
    </rdf:RDF>
  </metadata>
  <defs
     id="defs30" />
  <sodipodi:namedview
     pagecolor="#ffffff"
     bordercolor="#666666"
     borderopacity="1"
     objecttolerance="10"
     gridtolerance="10"
     guidetolerance="10"
     inkscape:pageopacity="0"
     inkscape:pageshadow="2"
     inkscape:window-width="1440"
     inkscape:window-height="900"
     id="namedview28"
     showgrid="false"
     inkscape:zoom="0.48163265"
     inkscape:cx="255"
     inkscape:cy="245"
     inkscape:window-x="0"
     inkscape:window-y="0"
     inkscape:window-maximized="0"
     inkscape:current-layer="svg26" />
  <path
     fill="#FFF"
     stroke="#000"
     stroke-width="12.5"
     d="M335.4 412.27l63.28 32.9c14.98 13.03 11.24 21.9 21.65 29.96 10.26 9.43 16.8 10.96 22.9 2.08 4.85-10.1 3.88-20.2 5.4-31.2 7.08-6.8 12.9-10.2 18.74-17 6.38-7.1 6.1-14.1-3.75-19.1-8.2-3.3-15.96-5-25.8-2.1-6.26 2-12.92 3.1-21.24-.4l-68.28-31.7-194-67.3c-26.1-12.7-47.78-22.2-73.6-36.5-14.02-11.1-9.5-23.8-26.48-34.1-7.47-3.7-12.87-5.4-18.85 4.8-3.82 9-3.52 18.6-4.1 27.9-6.68 7.2-14.24 11.4-19.73 20.3-7.95 12.8 4.1 17 10.6 18.6 18.44 4.6 25.1-3.7 42.1-.3 33.05 15.4 66.4 31.4 98.3 47.1z"
     stroke-linejoin="round"
     id="path2" />
  <path
     fill="#FFF"
     stroke="#000"
     stroke-width="12.5"
     d="M349.56 354.82l94.5-44.54c17.9-7.08 20.4 2.9 36.2 0 12.08-.14 22.07-4.86 21.24-16.23-6.1-9.03-11.8-14.7-22.48-24.57.56-10.54-1.4-20.67-5.4-30.8-4.17-5.97-11.67-8.6-22.9 2.08-11.38 8.6-7.78 20.12-22.07 32.05-23.3 11.6-44.54 21.8-70.35 34.6l-196.5 67.9c-22.75 12.1-43.42 23.3-69.5 33.3-21.24 5.3-20.4-7.7-46.2.9-7.37 5.8-7.23 14.2-1.26 20.4 6.93 6.8 11.8 11.1 17.9 17.1 1.94 8.6 2.22 16 3.33 26.3 4.16 12.6 13.33 11.9 21.23 5.8 3.47-4.3 7.77-8.2 10.4-12.9 3.6-6.2 7.64-13.3 12.5-19.1l62.85-33.3z"
     stroke-linejoin="round"
     id="path4" />
  <path
     fill="#FFF"
     stroke="#000"
     stroke-width="12.5"
     d="M128.5 221.56c-19.14-18.6-32.5-50.9-34.37-85.75-2-38.4 18.22-76.5 48.54-98.3C176.64 13.6 233.43 7 268.75 8.8c23.92.02 77.2 12.42 96.02 26.43 33 24 50.68 58.04 51.9 96.85 1.82 38.98-14.6 68.68-34.7 87.2"
     id="path6" />
  <path
     fill="#FFF"
     d="M130.4 215s-23.13 70.03 21.44 81.97l16.25 93.66c17.1 73.72 154.4 73.77 174.6 0l16.2-93.66c45.7-12.2 22.5-82 22.5-82z"
     id="path8" />
  <path
     fill="none"
     stroke="#000"
     stroke-width="12.5"
     d="M129.66 112.27c-7.75 6.78-6.77 16.97-5.38 32.2 1.1 11.55 8.48 22.93 8.87 33.5 2.7 22.27-3.88 44.56-6.98 62.78-2.13 20.92 3.88 38.95 11.63 45.92 7.75 6.88 17.76 9.73 28.27 12.94 9.55 2.5 14.5 6.9 21.73 12.3 8.6 9.2 10.66 16.7 10.46 26m183.8-226.1c7.75 6.8 6.77 17 5.38 32.2-1.1 11.6-8.48 23-8.87 33.5-2.7 22.3 3.88 44.6 6.98 62.8 2.13 21-3.88 39-11.63 46-7.75 6.9-21.94 10.6-28.27 12.9-7.37 2.6-14.92 7.3-21.72 12.7-8.2 7.9-10.66 16.3-10.47 25.6"
     id="path10" />
  <path
     fill="none"
     stroke="#000"
     stroke-width="12.5"
     d="M151.82 296.96c6.94 16.8 14.3 33.16 15 50.37-3.2 13.88-2.23 30.25 1.24 43.3 4.44 17.9 21.78 39.12 39.13 46.2 17.7 6.45 28.8 8.12 48.7 8.12"
     id="path12" />
  <path
     fill="none"
     stroke="#000"
     stroke-width="12.5"
     d="M358.92 296.96c-6.94 16.8-14.3 33.16-14.98 50.37 3.2 13.87 2.22 30.25-1.25 43.3-4.5 17.9-22 38.5-39.4 45.58-17.4 7.1-28.5 8.8-48.3 8.8"
     id="path14" />
  <path
     stroke="#000"
     stroke-width="1pt"
     d="M251.9 245.7c-9.7 7.38-11.86 9.86-17.22 18.02-1.94 3.15-5.56 10.5-6.55 15.44-1 4.94-1.73 12.1-1.72 15.9.1 12.85 4.1 20.9 8.6 20.63 4-.5 9.1-4.7 16.8-14.1m7.1-55.7c9.7 7.3 11.9 9.8 17.2 18 2 3.1 5.6 10.5 6.6 15.4s1.8 12.1 1.7 15.9c0 12.8-4.1 20.9-8.5 20.6-4-.5-9.1-4.7-16.8-14.1m-89.5-112.3c13.5-2.4 26.5-3.9 40-5.4 17.6-4.5 26.5 15.6 21.7 30.8-6.1 13.4-14.7 25.2-24.5 36.6-7.6 8.6-16.7 9.9-25.4 7-7-2-13.4-6.3-20.4-16.3-3-8.6-5.6-13.1-9.5-23.7-3.02-9.9 1.7-24.6 18.3-29.2zm172.1 0c-13.4-2.4-26.5-3.9-39.9-5.4-17.6-4.5-26.5 15.6-21.6 30.8 6.1 13.4 14.7 25.2 24.6 36.6 7.7 8.6 16.8 9.9 25.4 7 7-2 13.5-6.3 20.4-16.3 3.1-8.6 5.7-13.1 9.6-23.7 3.1-9.9-1.7-24.6-18.3-29.2z"
     id="path16" />
  <path
     fill="none"
     stroke="#000"
     stroke-width="6.25"
     d="M169.23 304.53c5.7 13.34 7.45 18.4 11.55 31.72 3.5 12.3 4.8 19.8 6.95 37.26m153.37-69.7c-5.7 13.4-7.46 18.4-11.57 31.7-3.5 12.3-4.78 19.8-6.94 37.3"
     id="path18" />
  <path
     fill="none"
     stroke="#000"
     stroke-width="5"
     d="M193.52 335.73c14.7 9.03 40.16 10.42 62.95 10 25.4-.12 47.13-1.95 61.4-10.6m-119.2 24.15c16.23 10.2 35.33 13.7 57.32 12.88 22.8-.56 40.3-2.48 56-13.17"
     id="path20" />
  <path
     fill="none"
     stroke="#000"
     stroke-width="6.25"
     d="M186.9 371.64c17.36 20.95 41.6 24.6 69.17 25.32 29.5 1.08 59.16-10.65 66.8-25.3"
     id="path22" />
  <path
     stroke="#000"
     stroke-width="5"
     d="M198.44 340.26l-.4 41.2m13.93-36.83l-.2 44.12m15.2-42.25l-.43 46.2m13.96-45.16l-.22 46.83m15.4-46.4v46.82m14.57-47.1l.2 46.8m12.92-48.1l.4 46m14.8-48.5l.2 44.1m13.53-49.6l.4 41.6"
     id="path24" />
  <path
     style="fill:#ffcc00;stroke-width:2.0762713"
     d="m 219.49576,340.50671 c -2.2839,-0.54473 -6.17214,-1.41826 -8.64055,-1.94119 -3.35767,-0.71131 -4.83837,-3.02455 -5.87911,-9.18468 -2.73926,-16.21351 -18.16013,-30.87018 -39.46339,-37.50769 -14.69257,-4.5778 -23.70775,-10.20948 -27.22196,-17.0052 -5.29516,-10.23973 -5.96064,-29.29266 -1.7249,-49.3849 5.10244,-24.20347 4.72491,-51.4404 -0.93265,-67.28479 -4.70883,-13.1874 -6.01395,-37.34949 -2.14655,-39.73968 1.42834,-0.88276 0.55013,-3.17042 -2.43819,-6.35135 -6.01176,-6.39923 -7.32464,-6.26347 -11.1604,1.15407 -4.48784,8.67853 -4.0184,30.26874 1.00268,46.11516 5.23381,16.51774 7.20604,34.42493 4.53668,41.19134 -1.9313,4.89553 -2.47001,4.30525 -9.47436,-10.38136 -11.20225,-23.48867 -14.37363,-38.57567 -13.28523,-63.20092 1.36609,-30.908232 10.71047,-51.756846 33.05612,-73.752798 18.28357,-17.997445 49.37417,-30.427198 87.92436,-35.1514 39.41121,-4.829718 71.62843,-1.680708 108.75421,10.629972 24.72843,8.199793 40.80678,19.889715 55.4104,40.286661 15.28175,21.344099 20.63504,39.094175 20.58181,68.243575 -0.0461,25.25071 -1.84938,32.6117 -12.91617,52.72518 -6.22867,11.32034 -7.61006,12.73043 -9.37744,9.57228 -2.73482,-4.88684 -0.54797,-23.69745 4.66916,-40.16253 5.02109,-15.84642 5.49051,-37.43663 1.00267,-46.11516 -3.83576,-7.41754 -5.14863,-7.5533 -11.16039,-1.15407 -2.98834,3.18093 -3.86654,5.46859 -2.43821,6.35135 3.59855,2.22402 2.58261,26.45635 -1.62254,38.70155 -6.05495,17.63174 -6.9415,31.86821 -3.34959,53.78902 7.10066,43.33402 6.0209,59.88699 -4.5452,69.67933 -2.88008,2.66917 -11.24183,6.85149 -18.58168,9.29401 -25.01423,8.32421 -40.49686,22.33144 -43.34998,39.21906 -0.97101,5.74731 -2.65587,8.47526 -5.88408,9.52693 -5.27719,1.7192 -75.2181,3.2997 -81.34552,1.83823 z m 27.19916,-30.72705 7.05932,-7.05932 v -29.27542 c 0,-16.10149 -0.791,-29.27543 -1.75777,-29.27543 -3.82173,0 -17.72165,15.79868 -21.58601,24.53472 -5.73061,12.95499 -7.02521,30.62008 -2.95748,40.35552 4.16839,9.97634 9.77572,10.18615 19.24194,0.71993 z m 36.30143,2.58108 c 1.31817,-2.46304 2.33538,-10.99384 2.26044,-18.95732 -0.16433,-17.46592 -6.79522,-32.88043 -18.60909,-43.25971 l -7.70278,-6.76742 -0.57827,29.82354 -0.57827,29.82354 6.69531,6.90782 c 7.73122,7.97657 15.03125,8.93463 18.51266,2.42955 z m -81.77838,-54.26395 c 5.03342,-2.79826 22.08874,-23.93625 27.05433,-33.53058 8.31834,-16.07236 7.15147,-30.52834 -3.11684,-38.6135 -5.03223,-3.96232 -7.27101,-4.30423 -20.1936,-3.08399 -30.18676,2.85044 -42.9236,6.30131 -49.205,13.33142 -4.31856,4.83331 -5.81618,8.65013 -5.81618,14.82303 0,9.86307 8.50854,31.88324 15.0725,39.00776 9.05889,9.83251 26.16994,13.64459 36.20479,8.06586 z m 141.3786,-5.0209 c 9.34572,-7.54686 18.96103,-28.64437 19.05758,-41.8153 0.0548,-7.47595 -1.09621,-10.18767 -6.68169,-15.74188 -5.68047,-5.64867 -9.21115,-7.08618 -22.31992,-9.08753 -34.57765,-5.27904 -40.00051,-5.33629 -46.14698,-0.48717 -8.44503,6.66251 -11.1598,19.0634 -6.71892,30.69167 4.18511,10.95854 23.7323,37.5713 30.46676,41.47932 7.89473,4.58133 23.42623,2.1615 32.34317,-5.03911 z"
     id="path3724"
     inkscape:connector-curvature="0" />
  <path
     style="fill:#ffcc00;stroke-width:2.0762713"
     d="m 223.08802,434.04367 c -15.94029,-4.29152 -21.51386,-7.72175 -33.04243,-20.33585 -13.81726,-15.11828 -17.40895,-26.77492 -17.05264,-55.34341 0.14955,-11.99047 -0.833,-25.86603 -2.18343,-30.83459 -1.35043,-4.96855 -1.99665,-9.49241 -1.43604,-10.05301 1.61917,-1.61918 9.46619,25.92143 12.14515,42.62572 2.22923,13.90008 3.16626,15.85285 10.70217,22.30331 11.04902,9.45754 26.90299,15.08092 48.94762,17.36163 30.57697,3.16346 54.85255,-1.66825 74.21638,-14.7717 9.72935,-6.58383 9.36077,-5.76998 14.88219,-32.86018 4.07,-19.96897 12.29892,-44.76177 14.21936,-42.84133 0.5758,0.57579 -0.68336,6.01262 -2.79812,12.08183 -2.92761,8.40206 -3.731,15.98878 -3.36716,31.79764 1.02782,44.65825 -13.94545,69.1954 -48.7931,79.95874 -16.1207,4.97918 -49.6233,5.43865 -66.43995,0.9112 z"
     id="path3726"
     inkscape:connector-curvature="0" />
  <path
     style="fill:#ffcc00;stroke-width:2.0762713"
     d="m 351.46583,342.2053 c 0.0698,-1.96101 1.70483,-8.70424 3.63347,-14.98496 l 3.50663,-11.41949 38.28288,-19.04748 c 21.05559,-10.47611 39.95613,-21.22081 42.00121,-23.87711 2.04509,-2.65631 5.54979,-8.66978 7.78823,-13.36327 4.31496,-9.04748 15.8956,-20.28732 18.95457,-18.39677 2.57426,1.59098 6.10457,15.22464 6.11831,23.62826 0.009,5.75928 2.19531,9.36865 11.72352,19.35798 10.41086,10.91469 11.36595,12.62474 8.59739,15.39329 -3.02929,3.0293 -6.15704,3.21371 -36.9195,2.17679 -7.55056,-0.25451 -14.72119,2.22624 -37.37288,12.92951 -66.71349,31.52316 -66.44938,31.41322 -66.31383,27.60325 z"
     id="path3728"
     inkscape:connector-curvature="0" />
  <path
     style="fill:#ffcc00;stroke-width:2.0762713"
     d="m 426.98747,470.98639 c -2.35837,-1.98976 -7.33747,-8.75652 -11.06466,-15.03724 -8.30395,-13.99307 -9.0117,-14.52178 -44.24422,-33.05164 l -28.45276,-14.96419 2.8085,-6.61708 c 1.54468,-3.6394 3.60372,-8.65912 4.57565,-11.15494 1.72523,-4.43022 2.55503,-4.17016 34.98748,10.96507 l 33.22034,15.50292 17.92748,-1.30421 c 17.26319,-1.25589 26.71235,0.5781 26.71235,5.18461 0,0.98303 -5.13877,6.73661 -11.41949,12.78575 -10.43071,10.04611 -11.43742,11.81765 -11.62646,20.45955 -0.41493,18.96809 -4.7581,24.54301 -13.42421,17.2314 z"
     id="path3730"
     inkscape:connector-curvature="0" />
  <path
     style="fill:#ffcc00;stroke-width:2.0762713"
     d="M 74.490619,475.15466 C 73.968466,474.2982 72.87657,467.0572 72.064179,459.06356 70.62285,444.88137 70.316276,444.27021 59.395249,433.80789 41.763707,416.91692 44.439591,413.34552 73.078043,415.546 c 20.360206,1.56441 24.696118,0.25511 63.036367,-19.03481 12.43296,-6.25533 22.74446,-11.09068 22.91444,-10.74522 1.70654,3.46811 7.66891,22.9496 7.15663,23.38359 -0.37002,0.31347 -14.38303,7.74265 -31.14001,16.50927 -28.46232,14.89042 -30.91109,16.65061 -37.212198,26.7483 -7.060657,11.31489 -18.202408,24.30473 -20.846846,24.30473 -0.850543,0 -1.973656,-0.70074 -2.495807,-1.5572 z"
     id="path3734"
     inkscape:connector-curvature="0" />
  <path
     style="fill:#ffcc00;stroke-width:2.0762713"
     d="M 114.64407,325.02501 C 63.861269,300.51311 61.279962,299.66994 45.088983,302.30508 31.817968,304.465 17.059322,301.99746 17.059322,297.61874 c 0,-1.34752 4.663762,-7.17245 10.363915,-12.9443 9.613082,-9.734 10.461882,-11.43159 11.716203,-23.43228 0.74376,-7.11591 2.547348,-14.56905 4.007974,-16.56254 2.505798,-3.41997 2.987077,-3.38059 8.527439,0.69774 3.229467,2.37725 8.24698,8.65061 11.150033,13.9408 2.903051,5.29019 7.288555,11.75407 9.745562,14.36417 2.45701,2.6101 21.334959,13.13247 41.951002,23.38305 33.08464,16.45012 37.71983,19.37417 39.49561,24.91525 3.39474,10.59283 5.93721,23.93544 4.52707,23.75758 -0.73508,-0.0927 -20.4901,-9.41366 -43.90006,-20.7132 z"
     id="path3736"
     inkscape:connector-curvature="0" />
</svg>
