<?xml version="1.0" encoding="UTF-8" standalone="no"?>
<svg
   xmlns:dc="http://purl.org/dc/elements/1.1/"
   xmlns:cc="http://creativecommons.org/ns#"
   xmlns:rdf="http://www.w3.org/1999/02/22-rdf-syntax-ns#"
   xmlns:svg="http://www.w3.org/2000/svg"
   xmlns="http://www.w3.org/2000/svg"
   xmlns:sodipodi="http://sodipodi.sourceforge.net/DTD/sodipodi-0.dtd"
   xmlns:inkscape="http://www.inkscape.org/namespaces/inkscape"
   width="510"
   height="490"
   version="1"
   id="svg26"
   sodipodi:docname="player3_sb.svg"
   inkscape:version="0.92.2 (5c3e80d, 2017-08-06)">
  <metadata
     id="metadata32">
    <rdf:RDF>
      <cc:Work
         rdf:about="">
        <dc:format>image/svg+xml</dc:format>
        <dc:type
           rdf:resource="http://purl.org/dc/dcmitype/StillImage" />
        <dc:title></dc:title>
      </cc:Work>
    </rdf:RDF>
  </metadata>
  <defs
     id="defs30" />
  <sodipodi:namedview
     pagecolor="#ffffff"
     bordercolor="#666666"
     borderopacity="1"
     objecttolerance="10"
     gridtolerance="10"
     guidetolerance="10"
     inkscape:pageopacity="0"
     inkscape:pageshadow="2"
     inkscape:window-width="1440"
     inkscape:window-height="900"
     id="namedview28"
     showgrid="false"
     inkscape:zoom="0.48163265"
     inkscape:cx="255"
     inkscape:cy="245"
     inkscape:window-x="0"
     inkscape:window-y="0"
     inkscape:window-maximized="0"
     inkscape:current-layer="svg26" />
  <path
     fill="#FFF"
     stroke="#000"
     stroke-width="12.5"
     d="M335.4 412.27l63.28 32.9c14.98 13.03 11.24 21.9 21.65 29.96 10.26 9.43 16.8 10.96 22.9 2.08 4.85-10.1 3.88-20.2 5.4-31.2 7.08-6.8 12.9-10.2 18.74-17 6.38-7.1 6.1-14.1-3.75-19.1-8.2-3.3-15.96-5-25.8-2.1-6.26 2-12.92 3.1-21.24-.4l-68.28-31.7-194-67.3c-26.1-12.7-47.78-22.2-73.6-36.5-14.02-11.1-9.5-23.8-26.48-34.1-7.47-3.7-12.87-5.4-18.85 4.8-3.82 9-3.52 18.6-4.1 27.9-6.68 7.2-14.24 11.4-19.73 20.3-7.95 12.8 4.1 17 10.6 18.6 18.44 4.6 25.1-3.7 42.1-.3 33.05 15.4 66.4 31.4 98.3 47.1z"
     stroke-linejoin="round"
     id="path2" />
  <path
     fill="#FFF"
     stroke="#000"
     stroke-width="12.5"
     d="M349.56 354.82l94.5-44.54c17.9-7.08 20.4 2.9 36.2 0 12.08-.14 22.07-4.86 21.24-16.23-6.1-9.03-11.8-14.7-22.48-24.57.56-10.54-1.4-20.67-5.4-30.8-4.17-5.97-11.67-8.6-22.9 2.08-11.38 8.6-7.78 20.12-22.07 32.05-23.3 11.6-44.54 21.8-70.35 34.6l-196.5 67.9c-22.75 12.1-43.42 23.3-69.5 33.3-21.24 5.3-20.4-7.7-46.2.9-7.37 5.8-7.23 14.2-1.26 20.4 6.93 6.8 11.8 11.1 17.9 17.1 1.94 8.6 2.22 16 3.33 26.3 4.16 12.6 13.33 11.9 21.23 5.8 3.47-4.3 7.77-8.2 10.4-12.9 3.6-6.2 7.64-13.3 12.5-19.1l62.85-33.3z"
     stroke-linejoin="round"
     id="path4" />
  <path
     fill="#FFF"
     stroke="#000"
     stroke-width="12.5"
     d="M128.5 221.56c-19.14-18.6-32.5-50.9-34.37-85.75-2-38.4 18.22-76.5 48.54-98.3C176.64 13.6 233.43 7 268.75 8.8c23.92.02 77.2 12.42 96.02 26.43 33 24 50.68 58.04 51.9 96.85 1.82 38.98-14.6 68.68-34.7 87.2"
     id="path6" />
  <path
     fill="#FFF"
     d="M130.4 215s-23.13 70.03 21.44 81.97l16.25 93.66c17.1 73.72 154.4 73.77 174.6 0l16.2-93.66c45.7-12.2 22.5-82 22.5-82z"
     id="path8" />
  <path
     fill="none"
     stroke="#000"
     stroke-width="12.5"
     d="M129.66 112.27c-7.75 6.78-6.77 16.97-5.38 32.2 1.1 11.55 8.48 22.93 8.87 33.5 2.7 22.27-3.88 44.56-6.98 62.78-2.13 20.92 3.88 38.95 11.63 45.92 7.75 6.88 17.76 9.73 28.27 12.94 9.55 2.5 14.5 6.9 21.73 12.3 8.6 9.2 10.66 16.7 10.46 26m183.8-226.1c7.75 6.8 6.77 17 5.38 32.2-1.1 11.6-8.48 23-8.87 33.5-2.7 22.3 3.88 44.6 6.98 62.8 2.13 21-3.88 39-11.63 46-7.75 6.9-21.94 10.6-28.27 12.9-7.37 2.6-14.92 7.3-21.72 12.7-8.2 7.9-10.66 16.3-10.47 25.6"
     id="path10" />
  <path
     fill="none"
     stroke="#000"
     stroke-width="12.5"
     d="M151.82 296.96c6.94 16.8 14.3 33.16 15 50.37-3.2 13.88-2.23 30.25 1.24 43.3 4.44 17.9 21.78 39.12 39.13 46.2 17.7 6.45 28.8 8.12 48.7 8.12"
     id="path12" />
  <path
     fill="none"
     stroke="#000"
     stroke-width="12.5"
     d="M358.92 296.96c-6.94 16.8-14.3 33.16-14.98 50.37 3.2 13.87 2.22 30.25-1.25 43.3-4.5 17.9-22 38.5-39.4 45.58-17.4 7.1-28.5 8.8-48.3 8.8"
     id="path14" />
  <path
     stroke="#000"
     stroke-width="1pt"
     d="M251.9 245.7c-9.7 7.38-11.86 9.86-17.22 18.02-1.94 3.15-5.56 10.5-6.55 15.44-1 4.94-1.73 12.1-1.72 15.9.1 12.85 4.1 20.9 8.6 20.63 4-.5 9.1-4.7 16.8-14.1m7.1-55.7c9.7 7.3 11.9 9.8 17.2 18 2 3.1 5.6 10.5 6.6 15.4s1.8 12.1 1.7 15.9c0 12.8-4.1 20.9-8.5 20.6-4-.5-9.1-4.7-16.8-14.1m-89.5-112.3c13.5-2.4 26.5-3.9 40-5.4 17.6-4.5 26.5 15.6 21.7 30.8-6.1 13.4-14.7 25.2-24.5 36.6-7.6 8.6-16.7 9.9-25.4 7-7-2-13.4-6.3-20.4-16.3-3-8.6-5.6-13.1-9.5-23.7-3.02-9.9 1.7-24.6 18.3-29.2zm172.1 0c-13.4-2.4-26.5-3.9-39.9-5.4-17.6-4.5-26.5 15.6-21.6 30.8 6.1 13.4 14.7 25.2 24.6 36.6 7.7 8.6 16.8 9.9 25.4 7 7-2 13.5-6.3 20.4-16.3 3.1-8.6 5.7-13.1 9.6-23.7 3.1-9.9-1.7-24.6-18.3-29.2z"
     id="path16" />
  <path
     fill="none"
     stroke="#000"
     stroke-width="6.25"
     d="M169.23 304.53c5.7 13.34 7.45 18.4 11.55 31.72 3.5 12.3 4.8 19.8 6.95 37.26m153.37-69.7c-5.7 13.4-7.46 18.4-11.57 31.7-3.5 12.3-4.78 19.8-6.94 37.3"
     id="path18" />
  <path
     fill="none"
     stroke="#000"
     stroke-width="5"
     d="M193.52 335.73c14.7 9.03 40.16 10.42 62.95 10 25.4-.12 47.13-1.95 61.4-10.6m-119.2 24.15c16.23 10.2 35.33 13.7 57.32 12.88 22.8-.56 40.3-2.48 56-13.17"
     id="path20" />
  <path
     fill="none"
     stroke="#000"
     stroke-width="6.25"
     d="M186.9 371.64c17.36 20.95 41.6 24.6 69.17 25.32 29.5 1.08 59.16-10.65 66.8-25.3"
     id="path22" />
  <path
     stroke="#000"
     stroke-width="5"
     d="M198.44 340.26l-.4 41.2m13.93-36.83l-.2 44.12m15.2-42.25l-.43 46.2m13.96-45.16l-.22 46.83m15.4-46.4v46.82m14.57-47.1l.2 46.8m12.92-48.1l.4 46m14.8-48.5l.2 44.1m13.53-49.6l.4 41.6"
     id="path24" />
  <path
     style="fill:#ffcc00;stroke-width:2.0762713"
     d="m 219.49576,340.50671 c -2.2839,-0.54473 -6.17214,-1.41826 -8.64055,-1.94119 -3.35767,-0.71131 -4.83837,-3.02455 -5.87911,-9.18468 -2.73926,-16.21351 -18.16013,-30.87018 -39.46339,-37.50769 -14.69257,-4.5778 -23.70775,-10.20948 -27.22196,-17.0052 -5.29516,-10.23973 -5.96064,-29.29266 -1.7249,-49.3849 5.10244,-24.20347 4.72491,-51.4404 -0.93265,-67.28479 -4.70883,-13.1874 -6.01395,-37.34949 -2.14655,-39.73968 1.42834,-0.88276 0.55013,-3.17042 -2.43819,-6.35135 -6.01176,-6.39923 -7.32464,-6.26347 -11.1604,1.15407 -4.48784,8.67853 -4.0184,30.26874 1.00268,46.11516 5.23381,16.51774 7.20604,34.42493 4.53668,41.19134 -1.9313,4.89553 -2.47001,4.30525 -9.47436,-10.38136 -11.20225,-23.48867 -14.37363,-38.57567 -13.28523,-63.20092 1.36609,-30.908232 10.71047,-51.756846 33.05612,-73.752798 18.28357,-17.997445 49.37417,-30.427198 87.92436,-35.1514 39.41121,-4.829718 71.62843,-1.680708 108.75421,10.629972 24.72843,8.199793 40.80678,19.889715 55.4104,40.286661 15.28175,21.344099 20.63504,39.094175 20.58181,68.243575 -0.0461,25.25071 -1.84938,32.6117 -12.91617,52.72518 -6.22867,11.32034 -7.61006,12.73043 -9.37744,9.57228 -2.73482,-4.88684 -0.54797,-23.69745 4.66916,-40.16253 5.02109,-15.84642 5.49051,-37.43663 1.00267,-46.11516 -3.83576,-7.41754 -5.14863,-7.5533 -11.16039,-1.15407 -2.98834,3.18093 -3.86654,5.46859 -2.43821,6.35135 3.59855,2.22402 2.58261,26.45635 -1.62254,38.70155 -6.05495,17.63174 -6.9415,31.86821 -3.34959,53.78902 7.10066,43.33402 6.0209,59.88699 -4.5452,69.67933 -2.88008,2.66917 -11.24183,6.85149 -18.58168,9.29401 -25.01423,8.32421 -40.49686,22.33144 -43.34998,39.21906 -0.97101,5.74731 -2.65587,8.47526 -5.88408,9.52693 -5.27719,1.7192 -75.2181,3.2997 -81.34552,1.83823 z m 27.19916,-30.72705 7.05932,-7.05932 v -29.27542 c 0,-16.10149 -0.791,-29.27543 -1.75777,-29.27543 -3.82173,0 -17.72165,15.79868 -21.58601,24.53472 -5.73061,12.95499 -7.02521,30.62008 -2.95748,40.35552 4.16839,9.97634 9.77572,10.18615 19.24194,0.71993 z m 36.30143,2.58108 c 1.31817,-2.46304 2.33538,-10.99384 2.26044,-18.95732 -0.16433,-17.46592 -6.79522,-32.88043 -18.60909,-43.25971 l -7.70278,-6.76742 -0.57827,29.82354 -0.57827,29.82354 6.69531,6.90782 c 7.73122,7.97657 15.03125,8.93463 18.51266,2.42955 z m -81.77838,-54.26395 c 5.03342,-2.79826 22.08874,-23.93625 27.05433,-33.53058 8.31834,-16.07236 7.15147,-30.52834 -3.11684,-38.6135 -5.03223,-3.96232 -7.27101,-4.30423 -20.1936,-3.08399 -30.18676,2.85044 -42.9236,6.30131 -49.205,13.33142 -4.31856,4.83331 -5.81618,8.65013 -5.81618,14.82303 0,9.86307 8.50854,31.88324 15.0725,39.00776 9.05889,9.83251 26.16994,13.64459 36.20479,8.06586 z m 141.3786,-5.0209 c 9.34572,-7.54686 18.96103,-28.64437 19.05758,-41.8153 0.0548,-7.47595 -1.09621,-10.18767 -6.68169,-15.74188 -5.68047,-5.64867 -9.21115,-7.08618 -22.31992,-9.08753 -34.57765,-5.27904 -40.00051,-5.33629 -46.14698,-0.48717 -8.44503,6.66251 -11.1598,19.0634 -6.71892,30.69167 4.18511,10.95854 23.7323,37.5713 30.46676,41.47932 7.89473,4.58133 23.42623,2.1615 32.34317,-5.03911 z"
     id="path3724"
     inkscape:connector-curvature="0" />
  <path
     style="fill:#ffcc00;stroke-width:2.0762713"
     d="m 223.08802,434.04367 c -15.94029,-4.29152 -21.51386,-7.72175 -33.04243,-20.33585 -13.81726,-15.11828 -17.40895,-26.77492 -17.05264,-55.34341 0.14955,-11.99047 -0.833,-25.86603 -2.18343,-30.83459 -1.35043,-4.96855 -1.99665,-9.49241 -1.43604,-10.05301 1.61917,-1.61918 9.46619,25.92143 12.14515,42.62572 2.22923,13.90008 3.16626,15.85285 10.70217,22.30331 11.04902,9.45754 26.90299,15.08092 48.94762,17.36163 30.57697,3.16346 54.85255,-1.66825 74.21638,-14.7717 9.72935,-6.58383 9.36077,-5.76998 14.88219,-32.86018 4.07,-19.96897 12.29892,-44.76177 14.21936,-42.84133 0.5758,0.57579 -0.68336,6.01262 -2.79812,12.08183 -2.92761,8.40206 -3.731,15.98878 -3.36716,31.79764 1.02782,44.65825 -13.94545,69.1954 -48.7931,79.95874 -16.1207,4.97918 -49.6233,5.43865 -66.43995,0.9112 z"
     id="path3726"
     inkscape:connector-curvature="0" />
  <path
     style="fill:#ffcc00;stroke-width:2.0762713"
     d="m 351.46583,342.2053 c 0.0698,-1.96101 1.70483,-8.70424 3.63347,-14.98496 l 3.50663,-11.41949 38.28288,-19.04748 c 21.05559,-10.47611 39.95613,-21.22081 42.00121,-23.87711 2.04509,-2.65631 5.54979,-8.66978 7.78823,-13.36327 4.31496,-9.04748 15.8956,-20.28732 18.95457,-18.39677 2.57426,1.59098 6.10457,15.22464 6.11831,23.62826 0.009,5.75928 2.19531,9.36865 11.72352,19.35798 10.41086,10.91469 11.36595,12.62474 8.59739,15.39329 -3.02929,3.0293 -6.15704,3.21371 -36.9195,2.17679 -7.55056,-0.25451 -14.72119,2.22624 -37.37288,12.92951 -66.71349,31.52316 -66.44938,31.41322 -66.31383,27.60325 z"
     id="path3728"
     inkscape:connector-curvature="0" />
  <path
     style="fill:#ffcc00;stroke-width:2.0762713"
     d="m 426.98747,470.98639 c -2.35837,-1.98976 -7.33747,-8.75652 -11.06466,-15.03724 -8.30395,-13.99307 -9.0117,-14.52178 -44.24422,-33.05164 l -28.45276,-14.96419 2.8085,-6.61708 c 1.54468,-3.6394 3.60372,-8.65912 4.57565,-11.15494 1.72523,-4.43022 2.55503,-4.17016 34.98748,10.96507 l 33.22034,15.50292 17.92748,-1.30421 c 17.26319,-1.25589 26.71235,0.5781 26.71235,5.18461 0,0.98303 -5.13877,6.73661 -11.41949,12.78575 -10.43071,10.04611 -11.43742,11.81765 -11.62646,20.45955 -0.41493,18.96809 -4.7581,24.54301 -13.42421,17.2314 z"
     id="path3730"
     inkscape:connector-curvature="0" />
  <path
     style="fill:#ffcc00;stroke-width:2.0762713"
     d="M 74.490619,475.15466 C 73.968466,474.2982 72.87657,467.0572 72.064179,459.06356 70.62285,444.88137 70.316276,444.27021 59.395249,433.80789 41.763707,416.91692 44.439591,413.34552 73.078043,415.546 c 20.360206,1.56441 24.696118,0.25511 63.036367,-19.03481 12.43296,-6.25533 22.74446,-11.09068 22.91444,-10.74522 1.70654,3.46811 7.66891,22.9496 7.15663,23.38359 -0.37002,0.31347 -14.38303,7.74265 -31.14001,16.50927 -28.46232,14.89042 -30.91109,16.65061 -37.212198,26.7483 -7.060657,11.31489 -18.202408,24.30473 -20.846846,24.30473 -0.850543,0 -1.973656,-0.70074 -2.495807,-1.5572 z"
     id="path3734"
     inkscape:connector-curvature="0" />
  <path
     style="fill:#00ff00;stroke-width:2.0762713"
     d="M 114.64407,325.02501 C 63.861269,300.51311 61.279962,299.66994 45.088983,302.30508 31.817968,304.465 17.059322,301.99746 17.059322,297.61874 c 0,-1.34752 4.663762,-7.17245 10.363915,-12.9443 9.613082,-9.734 10.461882,-11.43159 11.716203,-23.43228 0.74376,-7.11591 2.547348,-14.56905 4.007974,-16.56254 2.505798,-3.41997 2.987077,-3.38059 8.527439,0.69774 3.229467,2.37725 8.24698,8.65061 11.150033,13.9408 2.903051,5.29019 7.288555,11.75407 9.745562,14.36417 2.45701,2.6101 21.334959,13.13247 41.951002,23.38305 33.08464,16.45012 37.71983,19.37417 39.49561,24.91525 3.39474,10.59283 5.93721,23.93544 4.52707,23.75758 -0.73508,-0.0927 -20.4901,-9.41366 -43.90006,-20.7132 z"
     id="path3736"
     inkscape:connector-curvature="0" />
  <path
     style="fill:#00ff00;stroke-width:2.0762713"
     d="m 211.71116,338.24702 c -1.99763,-0.5221 -4.23244,-3.45026 -4.96623,-6.50703 -4.57865,-19.07332 -14.70537,-29.01218 -41.2834,-40.5175 -13.02638,-5.63897 -21.92844,-10.87215 -24.61462,-14.46999 -5.60509,-7.5074 -6.80184,-27.57905 -3.10488,-52.07448 3.74356,-24.80415 3.31257,-51.27853 -1.07344,-65.93867 -3.86542,-12.92009 -5.27564,-34.08021 -2.63279,-39.50466 1.93469,-3.97097 -5.53879,-12.90416 -9.65921,-11.54583 -8.36457,2.75744 -10.09031,30.41337 -3.45484,55.36564 4.19438,15.77271 5.53367,37.5133 2.31095,37.5133 -2.37298,0 -12.59046,-22.94521 -16.12083,-36.20221 -3.77832,-14.18811 -3.60149,-47.24036 0.33358,-62.34808 6.19811,-23.796157 23.1847,-46.791958 44.49923,-60.241379 13.03082,-8.222419 38.52974,-17.12742 59.82378,-20.892286 23.23082,-4.107296 65.19042,-4.104071 86.60386,0.0067 51.40352,9.867913 79.53531,28.303667 97.5059,63.899056 9.50552,18.828169 12.19977,33.329199 11.10942,59.793199 -0.83821,20.34385 -1.48466,23.12688 -8.82098,37.97444 -4.35406,8.81196 -8.72978,16.52437 -9.72378,17.1387 -3.27056,2.02132 -1.81541,-20.62648 2.34526,-36.50098 6.59564,-25.16498 4.85436,-52.75076 -3.50371,-55.50606 -1.35608,-0.44704 -4.4404,1.16203 -6.85408,3.57571 -3.24945,3.24945 -3.95943,5.5735 -2.73539,8.95392 2.51424,6.94343 0.97624,25.2838 -3.57856,42.67351 -4.82998,18.44034 -4.95776,25.59373 -0.95109,53.24783 3.87206,26.7251 3.88499,47.02048 0.0359,56.23277 -2.58257,6.18096 -5.54226,8.42472 -19.20551,14.55977 -22.21478,9.97485 -27.68255,13.03276 -34.50996,19.30006 -6.27513,5.76031 -12.39505,16.44532 -14.53835,25.38302 -1.03658,4.32259 -2.90061,5.69729 -9.11878,6.72502 -8.79086,1.45294 -78.49687,1.37549 -84.11741,-0.0934 z m 35.19635,-28.04415 6.84673,-6.6361 v -29.69865 c 0,-34.92755 -1.07644,-36.18592 -15.37282,-17.97085 -13.25083,16.88293 -17.8254,40.70295 -10.52725,54.81601 4.17707,8.07756 10.36379,7.91184 19.05334,-0.51041 z m 36.00634,3.41108 c 4.55258,-5.48553 3.39898,-31.43686 -1.93329,-43.49107 -4.29084,-9.69994 -17.70453,-25.95339 -21.41888,-25.95339 -0.9102,0 -1.6549,13.63998 -1.6549,30.31105 v 30.31105 l 6.44839,6.02369 c 7.11704,6.64831 14.44645,7.75359 18.55868,2.79867 z m -74.30429,-61.65844 c 26.1466,-28.13505 32.58396,-51.05788 18.20667,-64.8322 -6.02186,-5.76931 -6.41691,-5.84422 -23.78002,-4.50959 -28.18881,2.16676 -38.56208,5.08165 -46.56523,13.08479 -6.607,6.60701 -6.98009,7.7224 -6.10654,18.2563 0.56373,6.79776 3.48867,16.41595 7.42174,24.40515 7.89455,16.0361 16.97719,22.29957 32.44165,22.37201 9.33333,0.0438 10.86417,-0.68718 18.38173,-8.77646 z m 125.46502,6.60958 c 9.04708,-3.42786 15.19882,-10.16121 21.68829,-23.73882 4.16824,-8.72098 5.95469,-15.66267 5.95583,-23.14296 10e-4,-9.56913 -0.74138,-11.33771 -7.11108,-16.9304 -7.34922,-6.45269 -9.60355,-7.2014 -32.33643,-10.73965 -23.96597,-3.73016 -31.67235,-2.93674 -38.25982,3.93909 -8.52474,8.89791 -9.3484,21.06519 -2.31257,34.16191 6.60993,12.30396 22.7804,33.61419 27.6694,36.46408 4.72046,2.75164 17.42699,2.74483 24.70638,-0.0125 z"
     id="path3776"
     inkscape:connector-curvature="0" />
  <path
     style="fill:#00ff00;stroke-width:2.0762713"
     d="m 237.14407,435.26434 c -21.10626,-2.56513 -29.06073,-6.00593 -41.65407,-18.01794 -16.8649,-16.08639 -19.91177,-24.44571 -21.46178,-58.88199 -1.37541,-30.557 0.39642,-31.06184 5.96627,-1.69998 2.47896,13.06803 4.59432,18.54867 8.91792,23.10523 21.72578,22.89635 80.16083,28.78136 115.9905,11.68144 7.15018,-3.41247 14.82936,-8.52972 17.06484,-11.37167 2.24124,-2.84928 6.56786,-15.93216 9.6451,-29.16501 3.06932,-13.1988 5.83358,-23.6959 6.14278,-23.32688 0.30921,0.36901 -0.11014,13.75144 -0.93189,29.73873 -1.77091,34.45357 -5.67172,45.98139 -20.04133,59.22683 -12.38264,11.41392 -24.67589,16.26789 -47.21608,18.64318 -10.40958,1.09696 -19.39366,1.8733 -19.96464,1.7252 -0.57097,-0.14811 -6.1769,-0.89382 -12.45762,-1.65714 z"
     id="path3778"
     inkscape:connector-curvature="0" />
  <path
     style="fill:#00ff00;stroke-width:2.0762713"
     d="m 74.309693,469.96398 c -0.530386,-2.56938 -1.55237,-9.19375 -2.271075,-14.7208 -1.09711,-8.43708 -3.147077,-12.05103 -12.778525,-22.52763 -6.309481,-6.86314 -10.677649,-13.23156 -9.70704,-14.15204 0.970609,-0.92049 12.509447,-2.0029 25.641862,-2.40536 l 23.877119,-0.73174 29.013406,-14.10958 c 25.75835,-12.52661 29.28705,-13.73536 31.45246,-10.77397 2.37051,3.24185 5.86262,17.52816 4.55149,18.62025 -0.35912,0.29913 -9.99617,5.4754 -21.41566,11.50283 -31.14472,16.43879 -39.89854,22.41986 -45.064199,30.79022 -5.686358,9.21409 -18.061705,23.17943 -20.540387,23.17943 -0.987312,0 -2.229066,-2.10222 -2.759451,-4.67161 z"
     id="path3780"
     inkscape:connector-curvature="0" />
  <path
     style="fill:#00ff00;stroke-width:2.0762713"
     d="m 353.41525,339.01668 c 0,-1.50566 1.3842,-7.34517 3.07599,-12.9767 l 3.07598,-10.23913 38.73805,-19.54076 c 36.24558,-18.28346 39.08685,-20.13868 44.15919,-28.83391 8.1959,-14.04981 20.29227,-26.81291 22.93458,-24.1987 1.20766,1.19481 3.20519,7.73506 4.43896,14.53389 2.45747,13.54209 4.7749,17.95303 15.90445,30.27211 10.3997,11.51123 7.87535,13.21077 -19.79334,13.32597 l -22.21606,0.0925 -43.08906,20.15115 c -23.69898,11.08313 -44.02049,20.15115 -45.1589,20.15115 -1.13841,0 -2.06984,-1.2319 -2.06984,-2.73756 z"
     id="path3784"
     inkscape:connector-curvature="0" />
  <path
     style="fill:#800080;stroke-width:2.0762713"
     d="m 418.61798,458.15815 c -10.69015,-16.0765 -14.35556,-18.86331 -49.11162,-37.33959 -13.41791,-7.13294 -24.39619,-13.33953 -24.39619,-13.79243 0,-4.69205 7.38738,-17.51654 10.08773,-17.51229 1.87442,0.003 15.55422,5.80083 30.39956,12.88418 l 26.99152,12.87881 23.71116,1.13065 c 13.51354,0.64439 24.01668,2.05635 24.42156,3.28306 0.39073,1.18382 -3.88867,7.31246 -9.50977,13.6192 -8.31453,9.32868 -10.48109,13.37949 -11.6194,21.72471 -2.0877,15.30533 -3.02521,17.52487 -7.40234,17.52487 -2.63942,0 -7.24715,-4.88916 -13.57221,-14.40117 z"
     id="path3786"
     inkscape:connector-curvature="0" />
  <path
     style="fill:#800080;stroke-width:2.0762713"
     d="m 207.96928,331.89195 c -5.11348,-14.0336 -6.82406,-16.99528 -13.6208,-23.58295 -3.97156,-3.84937 -17.2231,-12.14735 -29.44788,-18.43995 -14.43071,-7.42809 -23.18412,-13.26172 -24.95598,-16.63176 -2.11453,-4.02178 -2.37452,-11.97035 -1.15451,-35.29661 2.42786,-46.41992 1.98388,-63.82002 -2.14241,-83.9645 -2.31334,-11.29367 -3.34341,-22.43517 -2.63064,-28.45346 1.97787,-16.70001 -9.84559,-25.25714 -15.25161,-11.03822 -2.95282,7.76651 -2.51239,31.81179 0.86133,47.02437 4.25849,19.20215 5.77633,34.42789 3.56812,35.79264 -3.45513,2.13539 -14.9114,-29.33072 -16.79546,-46.13091 -2.03726,-18.16621 0.23819,-45.03632 4.92099,-58.11057 4.39884,-12.281472 16.23983,-29.582388 27.09446,-39.587835 41.85773,-38.583106 145.88069,-46.7791687 208.18093,-16.402763 26.01778,12.685776 46.43946,36.588211 54.81267,64.155148 3.5464,11.67575 4.13475,18.37778 3.56176,40.5735 -0.66007,25.56947 -0.96003,27.12414 -7.8336,40.60234 -3.93101,7.70816 -7.93406,14.01483 -8.89568,14.01483 -2.06093,0 -0.21228,-16.67924 3.79708,-34.25847 3.32648,-14.58519 3.78324,-39.97707 0.85752,-47.67228 -2.62127,-6.89443 -7.73764,-8.83735 -12.0131,-4.5619 -2.50794,2.50795 -3.4523,7.95198 -3.74088,21.5657 -0.21234,10.01597 -1.88652,24.28395 -3.72042,31.70662 -3.79593,15.36389 -4.22011,32.32848 -1.2979,51.90677 3.03125,20.30893 2.81469,50.79384 -0.40859,57.51903 -2.03402,4.24381 -8.46448,8.57899 -24.54263,16.54566 -23.91538,11.85003 -37.1768,23.80904 -41.66285,37.57112 -1.38941,4.26238 -3.55872,8.43622 -4.82067,9.2752 -1.26195,0.83898 -22.17193,1.53972 -46.46661,1.55721 l -44.17216,0.0318 z m 38.84109,-20.34931 6.94387,-5.29634 v -29.87773 c 0,-19.17579 -0.80414,-30.37472 -2.24499,-31.26521 -3.54559,-2.1913 -13.91647,9.19813 -20.6555,22.68411 -4.9743,9.95448 -6.16731,14.99981 -6.16731,26.08218 0,22.23253 7.88651,28.53241 22.12393,17.67299 z m 37.62824,-0.93247 c 3.07481,-5.80181 2.02855,-28.82085 -1.76361,-38.80165 -3.28655,-8.65005 -18.20968,-27.63903 -21.72107,-27.63903 -2.54245,0 -3.04715,5.12785 -3.04715,30.95951 v 30.95949 l 6.51876,5.48517 c 8.04707,6.77116 16.11987,6.38252 20.01307,-0.96349 z M 212.15839,248.8411 c 19.73801,-22.14054 27.50164,-44.83897 19.37121,-56.63547 -6.95611,-10.09269 -8.61856,-10.60437 -30.72028,-9.45523 -25.47939,1.32474 -34.35338,3.74697 -43.65845,11.91693 -6.15964,5.40824 -7.21019,7.65007 -7.21019,15.38621 0,18.2216 11.53933,41.47517 23.51153,47.37944 3.62692,1.78867 11.42486,3.27341 17.32875,3.2994 10.47031,0.0461 10.99615,-0.24639 21.37743,-11.89128 z m 131.57982,3.95704 c 10.14626,-9.83415 16.63614,-24.15457 17.55419,-38.73458 0.74866,-11.89002 0.46317,-12.76619 -6.26579,-19.22998 -5.71654,-5.49123 -10.10519,-7.35686 -23.19986,-9.86228 -19.38631,-3.70922 -40.52851,-3.91081 -44.94746,-0.42857 -6.44963,5.08246 -10.28607,12.9917 -10.28607,21.2059 0,9.98217 10.63923,29.37505 24.78387,45.17532 l 9.21183,10.29009 13.09332,-0.83371 c 11.39028,-0.72528 13.99895,-1.71149 20.05597,-7.58219 z"
     id="path3807"
     inkscape:connector-curvature="0" />
  <path
     style="fill:#800080;stroke-width:2.0762713"
     d="m 227.47642,433.02418 c -13.57542,-2.6858 -24.12865,-9.1097 -35.6186,-21.68153 -12.68859,-13.88334 -14.76399,-20.22422 -15.98088,-48.8257 l -0.92755,-21.80085 4.26052,17.12423 c 6.19139,24.88498 14.51809,32.3209 44.89152,40.08912 28.44191,7.27421 62.72197,4.03767 84.50426,-7.97845 13.47082,-7.43113 16.75724,-12.43 22.81358,-34.701 4.32246,-15.89505 5.10173,-17.44582 5.21665,-10.38136 0.23389,14.37834 -3.93431,44.65483 -7.24025,52.59088 -4.2417,10.18239 -16.36316,22.43567 -28.17393,28.48033 -16.14302,8.26187 -50.91128,11.60188 -73.74532,7.08433 z"
     id="path3809"
     inkscape:connector-curvature="0" />
  <path
     style="fill:#800080;stroke-width:2.0762713"
     d="m 354.41604,337.08263 c 0.47876,-1.42744 1.88263,-6.55023 3.11971,-11.38397 2.22572,-8.69672 2.54706,-8.94059 30.72751,-23.31886 44.97725,-22.94839 49.37745,-25.86941 57.20584,-37.97543 7.43424,-11.4965 17.22627,-21.68922 19.06762,-19.84788 0.60251,0.60251 2.80829,7.27243 4.90173,14.82204 3.85352,13.89699 4.78129,15.63507 15.67399,29.36342 8.02722,10.11692 5.75759,11.41444 -20.03737,11.45507 l -20.18341,0.0318 -42.63023,19.72458 c -42.23377,19.54114 -49.53048,22.15345 -47.84539,17.12924 z"
     id="path3811"
     inkscape:connector-curvature="0" />
  <path
     style="fill:#800080;stroke-width:2.0762713"
     d="m 74.001009,462.69703 c -2.086557,-14.2081 -3.915886,-18.11304 -14.657553,-31.28836 l -9.615699,-11.79426 9.100105,-1.40331 c 5.005057,-0.77181 16.014027,-1.47256 24.464378,-1.5572 14.515602,-0.1454 16.95993,-0.91505 44.25193,-13.93375 16.50188,-7.87164 29.63891,-12.99038 30.63981,-11.93856 0.96369,1.01271 2.68987,5.31561 3.83598,9.56199 l 2.08382,7.7207 -26.11642,14.08015 c -26.4847,14.27869 -33.8852,20.14577 -49.930943,39.58499 -4.91664,5.95645 -9.764581,10.8299 -10.773205,10.8299 -1.008621,0 -2.485614,-4.43803 -3.282203,-9.86229 z"
     id="path3813"
     inkscape:connector-curvature="0" />
  <path
     style="fill:#800080;stroke-width:2.0762713"
     d="M 121.28243,327.19416 C 68.201625,301.49715 62.696967,299.6029 45.980885,301.28163 c -15.051772,1.5116 -26.845292,-0.0296 -26.845292,-3.50806 0,-1.16892 4.135584,-6.72507 9.190186,-12.347 9.005466,-10.01625 9.952632,-12.28987 12.706446,-30.50122 2.418626,-15.99468 9.171926,-13.63876 22.964581,8.01132 8.212425,12.89088 10.656668,14.49854 65.181164,42.87166 15.77833,8.21063 20.41431,11.69086 23.17208,17.39529 4.22375,8.73677 6.8454,20.67182 4.50348,20.50203 -0.9472,-0.0687 -16.95419,-7.49884 -35.5711,-16.51149 z"
     id="path3815"
     inkscape:connector-curvature="0" />
</svg>
