<?xml version="1.0" encoding="UTF-8" standalone="no"?>
<svg
   xmlns:dc="http://purl.org/dc/elements/1.1/"
   xmlns:cc="http://creativecommons.org/ns#"
   xmlns:rdf="http://www.w3.org/1999/02/22-rdf-syntax-ns#"
   xmlns:svg="http://www.w3.org/2000/svg"
   xmlns="http://www.w3.org/2000/svg"
   xmlns:sodipodi="http://sodipodi.sourceforge.net/DTD/sodipodi-0.dtd"
   xmlns:inkscape="http://www.inkscape.org/namespaces/inkscape"
   version="1.0"
   width="125.4125mm"
   height="130.85233mm"
   id="svg10275"
   sodipodi:docname="scroll.svg"
   inkscape:version="0.92.2 5c3e80d, 2017-08-06">
  <metadata
     id="metadata10279">
    <rdf:RDF>
      <cc:Work
         rdf:about="">
        <dc:format>image/svg+xml</dc:format>
        <dc:type
           rdf:resource="http://purl.org/dc/dcmitype/StillImage" />
        <dc:title></dc:title>
      </cc:Work>
    </rdf:RDF>
  </metadata>
  <sodipodi:namedview
     pagecolor="#ffffff"
     bordercolor="#666666"
     borderopacity="1"
     objecttolerance="10"
     gridtolerance="10"
     guidetolerance="10"
     inkscape:pageopacity="0"
     inkscape:pageshadow="2"
     inkscape:window-width="1455"
     inkscape:window-height="1084"
     id="namedview10277"
     showgrid="false"
     inkscape:zoom="0.47719188"
     inkscape:cx="237"
     inkscape:cy="247.27999"
     inkscape:window-x="0"
     inkscape:window-y="23"
     inkscape:window-maximized="0"
     inkscape:current-layer="svg10275" />
  <defs
     id="defs10223">
    <pattern
       id="WMFhbasepattern"
       patternUnits="userSpaceOnUse"
       width="6"
       height="6"
       x="0"
       y="0" />
  </defs>
  <path
     style="fill:#7a542e;fill-rule:evenodd;fill-opacity:1;stroke:none;"
     d="  M 173.36,0   L 169.2,1.28   L 161.04,4.16   L 153.04,7.68   L 145.2,11.68   L 137.68,16.24   L 130.4,21.36   L 123.52,27.04   L 117.04,33.36   L 113.92,36.8   L 122,56.48   L 103.2,51.28   L 100.4,55.92   L 95.52,65.84   L 91.36,76.72   L 88.08,88.4   L 86.8,94.56   L 85.92,99.76   L 84.64,110.8   L 84,122.72   L 83.92,135.2   L 84.48,154.72   L 86.48,181.44   L 90.88,220.48   L 95.12,253.12   L 97.04,269.68   L 97.36,275.6   L 97.44,277.36   L 97.52,279.2   L 112.56,288.24   L 97.92,294.4   L 97.92,303.44   L 97.2,322.08   L 95.6,336   L 94,345.2   L 91.84,354.24   L 89.12,363.12   L 87.52,367.36   L 84.32,365.44   L 77.6,362.88   L 70.72,361.76   L 64,362   L 57.44,363.36   L 51.36,365.76   L 46,369.04   L 41.52,373.04   L 39.76,375.28   L 52.72,392.08   L 36.56,393.68   L 45.2,401.2   L 31.84,402.48   L 31.6,406.56   L 32.16,414.72   L 33.52,420.56   L 34.96,424.32   L 36.8,427.92   L 39.2,431.2   L 40.56,432.8   L 171.12,463.36   L 300.72,493.76   L 300.72,493.76   L 300.8,493.76   L 302.16,494.16   L 304.16,494.56   L 302.48,494.16   L 301.68,493.92   L 303.6,494.24   L 307.28,494.48   L 310.88,494.24   L 314.4,493.44   L 319.52,491.6   L 325.92,487.76   L 331.84,482.8   L 337.2,477.12   L 342.08,470.96   L 346.32,464.72   L 348.16,461.6   L 351.36,456.24   L 357.2,445.36   L 362.16,434.32   L 366.4,423.04   L 369.92,411.6   L 372.8,400.08   L 375.04,388.32   L 376.72,376.56   L 377.84,364.64   L 378.48,352.72   L 378.64,334.72   L 377.52,310.64   L 375.2,286.56   L 373.76,274.64   L 372.56,264.4   L 371.2,253.76   L 348.4,249.28   L 366.72,235.84   L 344.08,230.96   L 366.4,216   L 364.8,201.28   L 363.2,179.2   L 362.72,164.56   L 362.96,150   L 364,135.76   L 366,121.76   L 369.04,108.24   L 371.04,101.6   L 375.92,100.96   L 385.2,100.32   L 394,100.24   L 402.56,100.64   L 423.84,102.72   L 443.36,104.88   L 446.4,105.04   L 452.08,104.56   L 457.04,103.12   L 461.44,100.8   L 465.28,97.68   L 468.4,94   L 470.96,89.68   L 472.88,84.96   L 473.6,82.48   L 456.8,72.08   L 474,61.68   L 473.2,58   L 472,54.48   L 471.12,52.4   L 469.2,48.48   L 465.84,43.36   L 460.48,37.68   L 454.4,33.12   L 447.68,29.52   L 440.72,26.64   L 430.08,23.36   L 423.2,21.52   L 419.6,20.64   L 409.84,18.72   L 397.2,16.96   L 381.76,15.36   L 363.84,14.16   L 343.44,13.44   L 320.88,13.44   L 296.32,14.32   L 283.2,15.12   L 270.32,16   L 247.84,16.4   L 228.96,15.68   L 213.28,14   L 200.56,11.52   L 190.24,8.48   L 182.16,5.12   L 175.92,1.68   L 173.36,0  z "
     id="path10225" />
  <path
     style="fill:#9c6c3b;fill-rule:evenodd;fill-opacity:1;stroke:none;"
     d="  M 371.12,34.88   L 349.04,73.12   L 432,60.16   L 430.64,61.76   L 428.56,65.6   L 427.36,69.84   L 426.88,74.4   L 427.12,78.96   L 428.08,83.52   L 429.52,87.76   L 431.6,91.52   L 432.88,93.12   L 434.56,95.04   L 438.24,97.84   L 442.16,99.36   L 446.24,99.84   L 450.32,99.12   L 454.32,97.44   L 458,94.8   L 461.2,91.12   L 462.64,88.96   L 463.6,87.2   L 465.28,83.44   L 465.92,81.52   L 450.32,71.92   L 467.12,61.92   L 466.56,59.2   L 465.04,53.92   L 462.8,49.04   L 459.92,44.72   L 458.32,42.8   L 456.24,40.8   L 451.84,37.76   L 449.44,36.8   L 371.12,34.88  z "
     id="path10227" />
  <path
     style="fill:#c69956;fill-rule:evenodd;fill-opacity:1;stroke:none;"
     d="  M 346.56,60.64   L 352.56,61.04   L 360.48,62.08   L 366.08,63.12   L 372.32,64   L 376.72,64.24   L 381.84,64.4   L 393.84,63.92   L 415.28,62   L 432,60.16   L 430.96,61.84   L 429.28,65.2   L 428.08,68.64   L 427.44,72   L 427.12,76.88   L 428,83.12   L 430.08,88.64   L 433.12,93.36   L 436.72,96.96   L 440.72,99.12   L 442.72,99.6   L 432.8,98.24   L 414.32,95.12   L 400.24,93.12   L 390.24,92.24   L 379.36,91.84   L 367.36,92.08   L 360.72,92.56   L 352.8,93.2   L 341.76,93.12   L 332.48,92.16   L 326.64,91.28   L 328.4,88.08   L 333.6,80.48   L 339.6,72.4   L 343.68,66.32   L 345.84,62.48   L 346.56,60.64  z "
     id="path10229" />
  <path
     style="fill:#9c6c3b;fill-rule:evenodd;fill-opacity:1;stroke:none;"
     d="  M 374.8,91.84   L 377.36,87.36   L 383.04,79.04   L 388.8,71.68   L 394.24,65.84   L 396.64,63.68   L 378.08,64.32   L 357.2,92.8   L 374.8,91.84  z "
     id="path10231" />
  <path
     style="fill:#f2cb8a;fill-rule:evenodd;fill-opacity:1;stroke:none;"
     d="  M 174.96,7.2   L 170.24,8.72   L 161.44,12.08   L 153.2,15.76   L 145.6,19.76   L 138.56,23.92   L 132.08,28.48   L 126.16,33.2   L 120.8,38.16   L 118.32,40.8   L 126.48,60.8   L 107.04,55.44   L 103.84,60.72   L 98.56,72   L 94.64,83.84   L 91.76,96.24   L 89.92,109.2   L 89.04,122.64   L 88.88,136.48   L 89.36,150.72   L 90.96,172.64   L 94.4,202.72   L 98.24,233.52   L 101.44,264.48   L 102.48,279.92   L 117.92,289.12   L 103.12,295.36   L 103.2,303.12   L 102.8,318.4   L 101.6,333.52   L 99.36,348.4   L 96.08,362.88   L 91.6,376.96   L 85.76,390.72   L 80.4,400.64   L 76.4,407.12   L 74.24,410.32   L 72.48,412.72   L 67.28,418.48   L 62,422.56   L 58,424.96   L 53.6,426.72   L 48.8,427.68   L 46.24,427.84   L 303.04,487.92   L 306,488.08   L 311.6,487.28   L 316.88,485.44   L 321.68,482.88   L 326,479.76   L 329.76,476.48   L 334.4,471.6   L 336.56,468.88   L 340.72,463.28   L 348.08,451.68   L 354.32,439.6   L 359.52,427.2   L 363.68,414.4   L 366.96,401.36   L 369.36,388   L 371.04,374.48   L 372,360.72   L 372.4,346.8   L 372.16,332.72   L 371.6,318.56   L 369.92,297.28   L 366.88,268.88   L 365.04,254.8   L 342.56,250.4   L 360.88,236.88   L 338.24,232.08   L 360.4,217.12   L 358.56,200.96   L 356.64,177.52   L 356.08,162.48   L 356.16,147.84   L 357.04,133.84   L 358.96,120.48   L 361.92,107.76   L 366.08,95.84   L 370.16,87.44   L 373.28,82.16   L 376.8,77.04   L 380.64,72.16   L 384.96,67.52   L 389.68,63.12   L 394.88,58.96   L 400.48,55.04   L 406.64,51.44   L 413.2,48.08   L 420.32,45.04   L 427.92,42.32   L 436.08,39.84   L 444.8,37.68   L 449.44,36.8   L 444.56,34.96   L 434.72,31.76   L 424.8,29.04   L 414.96,26.72   L 400,24   L 380.16,21.6   L 360.4,20.32   L 340.88,20   L 312.08,20.56   L 275.52,22.24   L 250,22.88   L 233.92,22.64   L 218.8,21.52   L 204.72,19.28   L 194.96,16.72   L 188.8,14.56   L 183.04,11.92   L 177.52,8.88   L 174.96,7.2  z "
     id="path10233" />
  <path
     style="fill:none;stroke:#7a542e;stroke-width:5.3600001px;stroke-linecap:round;stroke-linejoin:miter;stroke-miterlimit:4;stroke-dasharray:3,1;stroke-dashoffset:0;stroke-opacity:1;"
     d="  M 195.52,431.6   L 197.92,432.48   L 213.84,436.8   L 224.64,438.8   L 232.4,439.68   L 240.48,440.08   L 248.72,439.84   L 256.8,438.8   L 264.64,436.8   L 272,433.68   L 277.04,430.48   L 280.16,427.92   L 283.04,425.04   L 285.6,421.76   L 287.92,418   L 290,413.92   L 290.8,411.6   L 292.8,406.08   L 295.68,395.76   L 297.36,386.24   L 297.92,377.6   L 297.44,369.68   L 296,362.48   L 293.68,355.92   L 290.56,350   L 286.64,344.64   L 282.08,339.76   L 276.88,335.36   L 271.2,331.28   L 261.92,325.92   L 248.24,319.6   L 226.48,311.36   L 205.04,303.2   L 195.12,298.64   L 188.88,295.36   L 183.12,291.84   L 177.84,288   L 173.12,283.76   L 169.04,279.04   L 165.76,273.92   L 163.2,268.24   L 161.6,261.92   L 160.88,255.04   L 161.04,251.28   L 161.2,247.92   L 162.48,241.84   L 164.64,236.32   L 167.6,231.44   L 171.28,226.96   L 175.68,223.04   L 180.72,219.6   L 186.32,216.48   L 192.4,213.76   L 199.04,211.28   L 209.52,208.16   L 224.56,204.64   L 240.32,201.76   L 256.16,198.96   L 271.76,196.08   L 286.48,192.72   L 296.64,189.6   L 302.88,187.28   L 308.64,184.56   L 313.92,181.6   L 318.56,178.16   L 322.48,174.4   L 325.68,170.08   L 328.08,165.28   L 329.68,159.92   L 330.24,153.92   L 330.16,150.72   L 329.92,146.64   L 328.88,139.2   L 327.28,132.48   L 325.28,126.48   L 322.8,121.12   L 319.84,116.48   L 316.56,112.48   L 312.88,109.04   L 308.96,106.08   L 304.72,103.68   L 300.32,101.84   L 295.68,100.32   L 288.4,98.88   L 278.48,98.24   L 268.4,98.8   L 258.48,100.24   L 249.12,102.24   L 240.56,104.64   L 223.52,110.72   L 220.24,112.24  "
     id="path10235" />
  <path
     style="fill:#c69956;fill-rule:evenodd;fill-opacity:1;stroke:none;"
     d="  M 91.76,376.96   L 93.36,372.64   L 103.84,375.52   L 118.16,379.04   L 132.96,381.68   L 145.68,383.28   L 156.08,384.64   L 178.32,386.88   L 194.64,388.8   L 203.68,390   L 222.56,392.88   L 240.4,396.16   L 255.2,399.28   L 260.56,400.64   L 268.72,402.88   L 282.88,407.12   L 294.32,411.36   L 300.96,414.64   L 304.56,416.96   L 306.08,418.08   L 308.56,420.32   L 310,422.32   L 310.08,423.2   L 308.8,424.16   L 308.08,424.08   L 212.96,414.96   L 90.96,390.72   L 91.76,376.96  z "
     id="path10237" />
  <path
     style="fill:#9c6c3b;fill-rule:evenodd;fill-opacity:1;stroke:#9c6c3b;stroke-width:1.28px;stroke-linecap:butt;stroke-linejoin:miter;stroke-miterlimit:4;stroke-dasharray:none;stroke-opacity:1;"
     d="  M 317.68,438.64   L 317.52,435.84   L 316.4,430.88   L 314.56,426.56   L 312,423.04   L 308.96,420.32   L 305.68,418.48   L 302.16,417.6   L 298.56,417.68   L 296.8,418.16   L 294.48,419.04   L 290.32,421.92   L 286.8,426   L 283.92,431.04   L 281.84,436.88   L 280.4,443.2   L 279.92,449.84   L 280.16,456.64   L 280.72,459.92   L 281.28,462.72   L 282.88,467.92   L 284.96,472.64   L 287.52,476.88   L 290.4,480.48   L 293.6,483.52   L 297.12,485.84   L 300.88,487.44   L 302.8,487.92   L 301.44,487.44   L 299.04,486.16   L 296.8,484.4   L 294.8,482.24   L 292.24,478.32   L 289.68,472.16   L 288.08,465.28   L 287.36,458   L 287.52,450.88   L 288.64,444.24   L 289.6,441.28   L 293.12,441.6   L 300.16,441.68   L 307.12,441.12   L 314.16,439.68   L 317.68,438.64  z "
     id="path10239" />
  <path
     style="fill:#f2cb8a;fill-rule:evenodd;fill-opacity:1;stroke:none;"
     d="  M 66.72,366.24   L 65.04,366.24   L 61.92,366.8   L 58.88,367.76   L 56.08,369.12   L 52.08,371.84   L 47.44,376.56   L 45.44,379.36   L 56.48,393.68   L 40.32,395.28   L 48.96,402.8   L 37.76,403.84   L 37.76,407.28   L 38.64,413.92   L 40.72,420   L 43.12,424.16   L 45.12,426.64   L 46.24,427.84   L 158.32,454.08   L 299.68,487.2   L 297.28,486.32   L 292.88,483.44   L 289.2,479.6   L 286.16,474.88   L 283.68,469.44   L 281.92,463.52   L 280.88,457.28   L 280.4,450.96   L 280.64,444.64   L 281.52,438.56   L 283.12,432.96   L 285.36,427.92   L 288.32,423.68   L 291.92,420.48   L 296.32,418.32   L 301.28,417.6   L 304.16,417.84   L 295.84,414.64   L 280.64,408.96   L 268,405.28   L 258.16,402.96   L 246.72,400.8   L 233.04,398.64   L 225.12,397.6   L 208.08,395.52   L 179.28,391.84   L 159.04,388.96   L 138.24,385.44   L 117.44,381.2   L 96.96,376.08   L 77.28,369.84   L 67.92,366.24   L 67.28,366.24   L 66.72,366.24  z    M 299.68,487.2   L 301.2,487.68   L 302.8,487.92   L 301.28,487.6   L 299.68,487.2  z   "
     id="path10241" />
  <path
     style="fill:#9c6c3b;fill-rule:nonzero;fill-opacity:1;stroke:none;"
     d="  M -201.84,104.48   L -138.8,104.48   L -138.8,167.52   L -201.84,167.52   L -201.84,104.48  z "
     id="path10243" />
  <path
     style="fill:#c69956;fill-rule:nonzero;fill-opacity:1;stroke:none;"
     d="  M -277.28,104.48   L -214.24,104.48   L -214.24,167.52   L -277.28,167.52   L -277.28,104.48  z "
     id="path10245" />
  <path
     style="fill:#f2cb8a;fill-rule:nonzero;fill-opacity:1;stroke:none;"
     d="  M -352.72,104.48   L -289.68,104.48   L -289.68,167.52   L -352.72,167.52   L -352.72,104.48  z "
     id="path10247" />
  <path
     style="fill:#7a542e;fill-rule:nonzero;fill-opacity:1;stroke:none;"
     d="  M -352.72,183.04   L -289.68,183.04   L -289.68,246.08   L -352.72,246.08   L -352.72,183.04  z "
     id="path10249" />
  <path
     style="fill:#fbedbf;fill-rule:nonzero;fill-opacity:1;stroke:none;"
     d="  M -277.28,183.04   L -214.24,183.04   L -214.24,246.08   L -277.28,246.08   L -277.28,183.04  z "
     id="path10251" />
  <path
     style="fill:#494e4a;fill-rule:nonzero;fill-opacity:1;stroke:none;"
     d="  M -352.72,267.52   L -289.68,267.52   L -289.68,330.56   L -352.72,330.56   L -352.72,267.52  z "
     id="path10253" />
  <path
     style="fill:#faf1e8;fill-rule:nonzero;fill-opacity:1;stroke:none;"
     d="  M -277.28,267.52   L -214.24,267.52   L -214.24,330.56   L -277.28,330.56   L -277.28,267.52  z "
     id="path10255" />
  <path
     style="fill:#fbedbf;fill-rule:evenodd;fill-opacity:1;stroke:none;"
     d="  M 174.96,7.2   L 170.24,8.72   L 161.44,12.08   L 153.2,15.76   L 145.6,19.76   L 138.56,24   L 132.08,28.48   L 126.16,33.2   L 120.8,38.24   L 118.32,40.8   L 126.48,60.8   L 107.12,55.44   L 104.32,60.08   L 99.6,69.76   L 97.6,74.8   L 105.44,79.28   L 122.56,88.8   L 136.08,95.12   L 145.12,98.48   L 154.16,100.96   L 162.96,102.24   L 167.28,102.32   L 176.72,101.84   L 192.56,100.08   L 205.84,97.44   L 217.68,93.84   L 234.72,86.88   L 254.72,77.76   L 271.28,70.8   L 281.2,66.96   L 286.32,65.04   L 296.88,61.6   L 313.2,56.96   L 335.44,52.08   L 357.92,48.24   L 391.12,43.76   L 431.92,39.2   L 449.44,36.8   L 444.56,34.96   L 434.72,31.76   L 424.8,29.04   L 414.96,26.72   L 400,24   L 380.16,21.6   L 360.4,20.32   L 340.88,20   L 312.08,20.56   L 275.52,22.24   L 250,22.88   L 233.92,22.64   L 218.8,21.52   L 204.72,19.28   L 194.96,16.72   L 188.8,14.56   L 183.04,11.92   L 177.52,8.88   L 174.96,7.2  z "
     id="path10257" />
  <path
     style="fill:#c69956;fill-rule:evenodd;fill-opacity:1;stroke:none;"
     d="  M 280.56,452.96   L 274.16,452.8   L 238,450.72   L 217.12,448.56   L 203.92,446.56   L 197.84,445.44   L 185.6,442.72   L 158.8,435.68   L 131.6,428   L 106.72,421.04   L 96.16,418.48   L 86.08,416.24   L 65.92,412.32   L 41.84,408.32   L 37.84,407.76   L 38.16,410.64   L 39.28,416.16   L 41.36,421.28   L 44.32,425.84   L 46.24,427.84   L 162,454.88   L 302.8,487.92   L 300.24,487.44   L 295.6,485.44   L 291.6,482.24   L 288.24,478.24   L 285.44,473.36   L 283.28,468   L 281.68,462.16   L 280.8,456   L 280.56,452.96  z "
     id="path10259" />
  <path
     style="fill:#fbedbf;fill-rule:evenodd;fill-opacity:1;stroke:none;"
     d="  M 67.92,366.24   L 66.24,366.16   L 63.04,366.56   L 60,367.36   L 57.12,368.56   L 53.12,371.04   L 48.32,375.6   L 46.24,378.24   L 52,382.24   L 61.84,388.08   L 69.2,391.76   L 77.04,395.2   L 85.44,398.16   L 94.4,400.64   L 103.84,402.48   L 108.8,403.04   L 121.28,404.32   L 147.04,406.4   L 186.64,408.88   L 238.32,411.6   L 273.6,414.24   L 294.64,416.48   L 304.16,417.84   L 295.84,414.64   L 280.64,408.96   L 268,405.28   L 258.16,402.96   L 246.72,400.8   L 233.04,398.64   L 225.12,397.6   L 208.08,395.52   L 179.28,391.84   L 159.04,388.96   L 138.24,385.44   L 117.44,381.2   L 96.96,376.08   L 77.28,369.84   L 67.92,366.24  z "
     id="path10261" />
  <path
     style="fill:#7a542e;fill-rule:nonzero;fill-opacity:1;stroke:none;"
     d="  M 152.96,62.32   L 143.84,95.92   L 117.84,80.64   L 108.16,111.28   L 137.68,114.96   L 126.48,146.48   L 157.2,156.16   L 156.72,120.48   L 192.32,137.76   L 202,107.12   L 164.96,102.8   L 183.68,71.92   L 152.96,62.32  z "
     id="path10263" />
  <path
     style="fill:#494e4a;fill-rule:nonzero;fill-opacity:1;stroke:none;"
     d="  M 212.32,77.12   L 210.4,73.92   L 206.08,68   L 201.28,62.56   L 196.08,57.76   L 190.4,53.44   L 184.48,49.84   L 178.16,46.72   L 171.68,44.32   L 164.96,42.48   L 158.08,41.36   L 151.12,40.88   L 144.08,41.04   L 137.04,41.92   L 130.08,43.52   L 123.28,45.76   L 116.56,48.8   L 113.28,50.64   L 110.08,52.56   L 104.08,56.8   L 98.72,61.6   L 93.84,66.88   L 89.6,72.48   L 85.92,78.48   L 82.88,84.8   L 80.48,91.28   L 78.64,98   L 77.52,104.88   L 76.96,111.84   L 77.2,118.88   L 78.08,125.84   L 79.6,132.8   L 81.92,139.68   L 84.96,146.4   L 86.72,149.68   L 88.64,152.88   L 92.96,158.8   L 97.76,164.24   L 102.96,169.12   L 108.64,173.36   L 114.64,177.04   L 120.88,180.08   L 127.44,182.48   L 134.16,184.32   L 141.04,185.44   L 148,185.92   L 154.96,185.76   L 162,184.88   L 168.96,183.28   L 175.84,181.04   L 182.56,178   L 185.76,176.24   L 189.04,174.24   L 194.96,170   L 200.4,165.2   L 205.2,159.92   L 209.44,154.32   L 213.12,148.32   L 216.16,142   L 218.64,135.52   L 220.4,128.8   L 221.6,121.92   L 222.08,114.96   L 221.92,107.92   L 221.04,100.96   L 219.44,94   L 217.2,87.12   L 214.16,80.4   L 212.32,77.12  z    M 204.08,79.2   L 205.52,81.84   L 207.84,87.28   L 209.6,92.88   L 210.72,98.56   L 211.28,104.32   L 211.12,110.08   L 210.48,115.84   L 209.28,121.6   L 207.44,127.2   L 205.12,132.72   L 202.24,138   L 198.88,143.04   L 194.96,147.84   L 190.56,152.32   L 185.76,156.48   L 180.4,160.24   L 177.6,162   L 174.72,163.6   L 168.8,166.32   L 162.72,168.4   L 156.64,170   L 150.56,170.96   L 144.48,171.36   L 138.48,171.2   L 132.56,170.48   L 126.8,169.2   L 121.2,167.44   L 115.92,165.12   L 110.8,162.32   L 106.08,158.96   L 101.68,155.2   L 97.76,150.88   L 94.24,146.08   L 92.72,143.52   L 91.2,140.88   L 88.88,135.44   L 87.12,129.84   L 86,124.16   L 85.52,118.4   L 85.6,112.64   L 86.24,106.88   L 87.44,101.12   L 89.28,95.52   L 91.6,90.08   L 94.48,84.8   L 97.84,79.68   L 101.76,74.88   L 106.16,70.4   L 110.96,66.24   L 116.32,62.48   L 119.12,60.8   L 122.08,59.2   L 127.92,56.4   L 134,54.32   L 140.08,52.8   L 146.16,51.76   L 152.24,51.44   L 158.24,51.6   L 164.16,52.24   L 169.92,53.52   L 175.52,55.28   L 180.88,57.6   L 185.92,60.4   L 190.64,63.76   L 195.04,67.6   L 198.96,71.84   L 202.48,76.64   L 204.08,79.2  z   "
     id="path10265" />
  <path
     style="fill:#494e4a;fill-rule:nonzero;fill-opacity:1;stroke:none;"
     d="  M 83.28,135.44   L 83.68,139.44   L 85.2,145.76   L 87.92,150.72   L 92.16,155.12   L 94.96,157.44   L 18.4,205.76   L 15.84,205.44   L 11.12,204.08   L 7.12,202   L 3.92,199.12   L 1.52,195.52   L 0.24,191.28   L 0,186.48   L 1.04,181.12   L 2.16,178.16   L 83.28,135.44  z "
     id="path10267" />
  <path
     style="fill:#faf1e8;fill-rule:nonzero;fill-opacity:1;stroke:none;"
     d="  M 208.48,75.76   L 206.72,72.8   L 202.64,67.28   L 198.16,62.24   L 193.2,57.76   L 187.92,53.84   L 182.24,50.4   L 176.24,47.68   L 170,45.44   L 163.6,43.84   L 157.12,42.8   L 150.4,42.48   L 143.76,42.72   L 137.04,43.68   L 130.32,45.2   L 123.76,47.44   L 117.28,50.4   L 114.16,52.16   L 111.04,54   L 105.28,58.08   L 100.08,62.72   L 95.36,67.68   L 91.2,73.04   L 87.68,78.72   L 84.64,84.64   L 82.24,90.88   L 80.4,97.2   L 79.2,103.68   L 78.64,110.24   L 78.72,116.8   L 79.52,123.44   L 80.88,129.92   L 82.96,136.32   L 85.76,142.64   L 87.52,145.68   L 89.28,148.64   L 93.28,154.24   L 97.84,159.28   L 102.8,163.76   L 108.08,167.68   L 113.76,171.04   L 119.76,173.84   L 125.92,176   L 132.32,177.6   L 138.88,178.64   L 145.52,178.96   L 152.24,178.72   L 158.96,177.84   L 165.68,176.24   L 172.24,174   L 178.72,171.12   L 181.84,169.36   L 184.96,167.52   L 190.72,163.36   L 195.92,158.8   L 200.64,153.76   L 204.72,148.4   L 208.32,142.72   L 211.36,136.8   L 213.76,130.64   L 215.6,124.24   L 216.72,117.76   L 217.36,111.2   L 217.2,104.64   L 216.48,98.08   L 215.12,91.52   L 212.96,85.12   L 210.16,78.88   L 208.48,75.76  z    M 204.16,74.72   L 205.68,77.52   L 208.16,83.2   L 210,88.96   L 211.2,94.96   L 211.76,100.96   L 211.68,106.96   L 210.96,113.04   L 209.68,118.96   L 207.84,124.8   L 205.44,130.56   L 202.48,136.08   L 198.96,141.36   L 194.96,146.32   L 190.4,151.04   L 185.36,155.36   L 179.84,159.28   L 176.88,161.04   L 173.84,162.72   L 167.68,165.52   L 161.44,167.76   L 155.12,169.36   L 148.8,170.32   L 142.48,170.72   L 136.16,170.56   L 130,169.76   L 124,168.48   L 118.24,166.56   L 112.72,164.16   L 107.44,161.2   L 102.48,157.68   L 97.92,153.76   L 93.76,149.2   L 90.08,144.24   L 88.48,141.52   L 86.96,138.8   L 84.48,133.12   L 82.64,127.28   L 81.44,121.36   L 80.96,115.28   L 80.96,109.28   L 81.68,103.28   L 82.96,97.28   L 84.8,91.44   L 87.2,85.76   L 90.16,80.24   L 93.68,74.96   L 97.76,69.92   L 102.24,65.28   L 107.28,60.96   L 112.8,57.04   L 115.76,55.28   L 118.8,53.6   L 124.96,50.72   L 131.2,48.56   L 137.52,46.96   L 143.84,46   L 150.24,45.6   L 156.48,45.76   L 162.64,46.48   L 168.64,47.84   L 174.4,49.68   L 180,52.16   L 185.2,55.12   L 190.16,58.56   L 194.72,62.56   L 198.88,67.04   L 202.56,72   L 204.16,74.72  z   "
     id="path10269" />
  <path
     style="fill:#faf1e8;fill-rule:nonzero;fill-opacity:1;stroke:none;"
     d="  M 78.08,140.96   L 78.08,143.6   L 78.8,147.68   L 80.48,150.8   L 83.28,153.44   L 85.2,154.8   L 25.28,191.92   L 23.36,191.92   L 20,191.36   L 17.12,190.24   L 14.96,188.56   L 13.44,186.32   L 12.72,183.6   L 12.96,180.4   L 14.08,176.8   L 15.12,174.8   L 78.08,140.96  z "
     id="path10271" />
  <path
     style="fill:#faf1e8;fill-rule:nonzero;fill-opacity:1;stroke:none;"
     d="  M 186.48,63.68   L 183.36,61.76   L 176.64,58.48   L 169.6,56   L 162.4,54.48   L 154.96,53.84   L 147.36,54.08   L 139.84,55.2   L 132.4,57.28   L 128.8,58.64   L 135.92,71.04   L 139.12,69.6   L 145.52,67.2   L 152,65.28   L 158.48,63.84   L 164.88,62.96   L 171.28,62.48   L 177.52,62.56   L 183.52,63.2   L 186.48,63.68  z    M 114,67.12   L 111.04,69.44   L 105.6,74.56   L 100.88,80.24   L 96.8,86.4   L 93.6,92.88   L 91.12,99.68   L 89.44,106.64   L 88.64,113.84   L 88.64,117.44   L 89.84,114.8   L 92.56,109.44   L 95.76,104.24   L 99.44,99.2   L 103.6,94.4   L 108.08,89.76   L 113.04,85.36   L 118.24,81.28   L 121.04,79.36   L 114,67.12  z   "
     id="path10273" />
</svg>
