<?xml version="1.0" encoding="UTF-8" standalone="no"?>
<!-- Generator: Adobe Illustrator 18.1.1, SVG Export Plug-In . SVG Version: 6.00 Build 0)  -->

<svg
   xmlns:dc="http://purl.org/dc/elements/1.1/"
   xmlns:cc="http://creativecommons.org/ns#"
   xmlns:rdf="http://www.w3.org/1999/02/22-rdf-syntax-ns#"
   xmlns:svg="http://www.w3.org/2000/svg"
   xmlns="http://www.w3.org/2000/svg"
   xmlns:sodipodi="http://sodipodi.sourceforge.net/DTD/sodipodi-0.dtd"
   xmlns:inkscape="http://www.inkscape.org/namespaces/inkscape"
   version="1.1"
   id="Capa_1"
   x="0px"
   y="0px"
   viewBox="0 0 32 32"
   style="enable-background:new 0 0 32 32;"
   xml:space="preserve"
   sodipodi:docname="speech_bubble.svg"
   inkscape:version="0.92.2 5c3e80d, 2017-08-06"><metadata
     id="metadata44"><rdf:RDF><cc:Work
         rdf:about=""><dc:format>image/svg+xml</dc:format><dc:type
           rdf:resource="http://purl.org/dc/dcmitype/StillImage" /><dc:title></dc:title></cc:Work></rdf:RDF></metadata><defs
     id="defs42" /><sodipodi:namedview
     pagecolor="#ffffff"
     bordercolor="#666666"
     borderopacity="1"
     objecttolerance="10"
     gridtolerance="10"
     guidetolerance="10"
     inkscape:pageopacity="0"
     inkscape:pageshadow="2"
     inkscape:window-width="2560"
     inkscape:window-height="1440"
     id="namedview40"
     showgrid="false"
     inkscape:zoom="29.5"
     inkscape:cx="26.022958"
     inkscape:cy="19.627071"
     inkscape:window-x="0"
     inkscape:window-y="0"
     inkscape:window-maximized="0"
     inkscape:current-layer="Capa_1" /><g
     id="bubble"
     transform="matrix(0.97245763,0,0,1.0108959,0.27118644,-0.63196126)"
     style="fill:#502d16"><path
       inkscape:connector-curvature="0"
       id="path2"
       d="M 16,7 C 10.037,7 5,10.206 5,14 5,14.276 5.224,14.5 5.5,14.5 5.776,14.5 6,14.276 6,14 6,10.804 10.673,8 16,8 16.275,8 16.5,7.776 16.5,7.5 16.5,7.224 16.276,7 16,7 Z"
       style="fill:#502d16" /><path
       inkscape:connector-curvature="0"
       id="path4"
       d="M 16,2 C 7.163,2 0,7.373 0,14 0,18.127 2.779,21.766 7.008,23.926 7.008,23.953 7,23.971 7,24 c 0,1.793 -1.339,3.723 -1.928,4.736 0.001,0 0.002,0 0.002,0 C 5.027,28.846 5,28.967 5,29.094 5,29.594 5.405,30 5.906,30 6,30 6.165,29.975 6.161,29.986 9.286,29.474 12.23,26.603 12.914,25.771 13.913,25.918 14.943,26 16,26 24.835,26 32,20.627 32,14 32,7.373 24.836,2 16,2 Z m 0,22 c -0.917,0 -1.858,-0.07 -2.796,-0.207 -0.097,-0.016 -0.194,-0.021 -0.29,-0.021 -0.594,0 -1.163,0.264 -1.546,0.73 -0.428,0.521 -1.646,1.684 -3.085,2.539 0.39,-0.895 0.695,-1.898 0.716,-2.932 0.006,-0.064 0.009,-0.129 0.009,-0.184 0,-0.752 -0.421,-1.439 -1.09,-1.781 C 4.212,20.252 2,17.207 2,14 2,8.486 8.28,4 16,4 c 7.718,0 14,4.486 14,10 0,5.514 -6.281,10 -14,10 z"
       style="fill:#502d16" /></g><g
     id="g9" /><g
     id="g11" /><g
     id="g13" /><g
     id="g15" /><g
     id="g17" /><g
     id="g19" /><g
     id="g21" /><g
     id="g23" /><g
     id="g25" /><g
     id="g27" /><g
     id="g29" /><g
     id="g31" /><g
     id="g33" /><g
     id="g35" /><g
     id="g37" /></svg>