<?xml version="1.0" encoding="UTF-8" standalone="no"?>
<!-- Created with Inkscape (http://www.inkscape.org/) -->

<svg
   xmlns:dc="http://purl.org/dc/elements/1.1/"
   xmlns:cc="http://creativecommons.org/ns#"
   xmlns:rdf="http://www.w3.org/1999/02/22-rdf-syntax-ns#"
   xmlns:svg="http://www.w3.org/2000/svg"
   xmlns="http://www.w3.org/2000/svg"
   xmlns:sodipodi="http://sodipodi.sourceforge.net/DTD/sodipodi-0.dtd"
   xmlns:inkscape="http://www.inkscape.org/namespaces/inkscape"
   version="1.0"
   width="299.99649"
   height="225.92412"
   viewBox="0 0 85.704 64.542"
   id="Layer_1"
   xml:space="preserve"
   inkscape:version="0.92.2 5c3e80d, 2017-08-06"
   sodipodi:docname="speech_bubble2.svg"><metadata
     id="metadata8"><rdf:RDF><cc:Work
         rdf:about=""><dc:format>image/svg+xml</dc:format><dc:type
           rdf:resource="http://purl.org/dc/dcmitype/StillImage" /><dc:title /></cc:Work></rdf:RDF></metadata><sodipodi:namedview
     pagecolor="#ffffff"
     bordercolor="#666666"
     borderopacity="1"
     objecttolerance="10"
     gridtolerance="10"
     guidetolerance="10"
     inkscape:pageopacity="0"
     inkscape:pageshadow="2"
     inkscape:window-width="2560"
     inkscape:window-height="1391"
     id="namedview6"
     showgrid="false"
     inkscape:zoom="1.4772854"
     inkscape:cx="-74.485472"
     inkscape:cy="213.34045"
     inkscape:window-x="0"
     inkscape:window-y="23"
     inkscape:window-maximized="0"
     inkscape:current-layer="g3012" /><defs
     id="defs8" /><g
     id="g3012"><path
       d="m 45.813238,1.6556249 c 20.973776,0 37.976309,11.8349851 37.976309,26.4325731 0,14.597589 -17.002533,26.432574 -37.976309,26.432574 -6.575413,0 -12.759015,-1.16405 -18.152353,-3.210388 -10.644372,4.007293 -25.1774486,11.575991 -25.1774486,11.575991 0,0 9.4765266,-5.364877 13.3832576,-11.878625 0.998028,-1.664962 1.582425,-3.410563 1.917315,-5.086909 C 11.607996,41.220051 7.8369291,34.960554 7.8369291,28.088198 7.8369291,13.49061 24.839462,1.6556249 45.813238,1.6556249 m 0,2.1061056 c -19.779367,0 -35.8711521,10.9128525 -35.8711521,24.3274165 0,5.944531 3.2379001,11.682245 9.1169701,16.156296 l 1.047361,0.797854 -0.257097,1.290227 c -0.422169,2.115592 -1.154563,4.05283 -2.176309,5.757637 -0.323505,0.537911 -0.680215,1.069181 -1.062539,1.588117 3.439023,-1.561554 7.040274,-3.107928 10.308532,-4.338387 l 0.744727,-0.280814 0.744726,0.282711 c 5.29752,2.010287 11.316049,3.072827 17.404781,3.072827 19.779367,0 35.871152,-10.912852 35.871152,-24.327417 0,-13.414564 -16.091785,-24.3264675 -35.871152,-24.3264675 z"
       id="path5"
       inkscape:connector-curvature="0"
       style="stroke-width:0.9486962" /><path
       style="fill:#ffeeaa;stroke-width:0.67691725"
       d="m 60.891594,184.39424 c 3.80288,-5.34065 9.457028,-20.75503 9.478487,-25.84031 0.0026,-0.61812 -2.368058,-3.08693 -5.268146,-5.48623 C 45.96032,137.23146 36.348498,120.31458 35.396528,100.78599 34.037516,72.907369 53.040296,46.620365 86.570523,29.995767 100.52935,23.074852 114.21767,18.748872 131.95391,15.653053 c 7.4247,-1.295963 10.97074,-1.481407 28.45091,-1.487873 17.95283,-0.0066 20.85757,0.151672 28.76898,1.567942 28.91199,5.175711 51.11581,14.805392 69.25532,30.035681 18.17028,15.256128 28.26302,36.094714 26.9743,55.694107 -2.49298,37.91443 -41.0171,70.05213 -94.87578,79.14756 -11.61363,1.96126 -22.03767,2.61007 -35.53816,2.21196 -18.96207,-0.55917 -34.66877,-3.3112 -51.32803,-8.99339 l -6.989968,-2.38415 -4.856092,1.82757 c -2.670851,1.00516 -10.831233,4.37367 -18.134182,7.48556 -7.302949,3.1119 -13.4921,5.658 -13.753669,5.658 -0.261569,0 0.172256,-0.9098 0.964055,-2.02178 z"
       id="path20"
       inkscape:connector-curvature="0"
       transform="matrix(0.28568334,0,0,0.28568334,0,-3.7854477e-4)" /></g></svg>